<svg width="22" height="38" viewBox="0 0 22 38" fill="none" xmlns="http://www.w3.org/2000/svg">
<mask id="mask0_35_587" style="mask-type:alpha" maskUnits="userSpaceOnUse" x="0" y="33" width="22" height="5">
<path fill-rule="evenodd" clip-rule="evenodd" d="M0.845947 33.667H21.065V37.8902H0.845947V33.667Z" fill="white"/>
</mask>
<g mask="url(#mask0_35_587)">
<path fill-rule="evenodd" clip-rule="evenodd" d="M10.9554 33.667C16.5387 33.667 21.065 34.6123 21.065 35.7786C21.065 36.9448 16.5387 37.8902 10.9554 37.8902C5.37221 37.8902 0.845947 36.9448 0.845947 35.7786C0.845947 34.6123 5.37221 33.667 10.9554 33.667" fill="#DBD4DA"/>
</g>
<path fill-rule="evenodd" clip-rule="evenodd" d="M11.0238 33.0648C11.6155 33.0648 12.0952 33.785 12.0952 34.6734C12.0952 35.5616 11.6155 36.2817 11.0238 36.2817C10.4321 36.2817 9.95245 35.5616 9.95245 34.6734C9.95245 33.785 10.4321 33.0648 11.0238 33.0648" fill="#1B2749"/>
<path fill-rule="evenodd" clip-rule="evenodd" d="M11.0238 31.9925C11.6155 31.9925 12.0952 32.7126 12.0952 33.6011C12.0952 34.4894 11.6155 35.2094 11.0238 35.2094C10.4321 35.2094 9.95245 34.4894 9.95245 33.6011C9.95245 32.7126 10.4321 31.9925 11.0238 31.9925" fill="#1B2749"/>
<path fill-rule="evenodd" clip-rule="evenodd" d="M11.0238 29.3118C11.6155 29.3118 12.0952 30.032 12.0952 30.9204C12.0952 31.8085 11.6155 32.5287 11.0238 32.5287C10.4321 32.5287 9.95245 31.8085 9.95245 30.9204C9.95245 30.032 10.4321 29.3118 11.0238 29.3118" fill="#1B2749"/>
<path fill-rule="evenodd" clip-rule="evenodd" d="M11.0238 27.7034C11.6155 27.7034 12.0952 28.4234 12.0952 29.3119C12.0952 30.2002 11.6155 30.9202 11.0238 30.9202C10.4321 30.9202 9.95245 30.2002 9.95245 29.3119C9.95245 28.4234 10.4321 27.7034 11.0238 27.7034" fill="#1B2749"/>
<path fill-rule="evenodd" clip-rule="evenodd" d="M11.0238 25.5588C11.6155 25.5588 12.0952 26.2789 12.0952 27.1672C12.0952 28.0555 11.6155 28.7757 11.0238 28.7757C10.4321 28.7757 9.95245 28.0555 9.95245 27.1672C9.95245 26.2789 10.4321 25.5588 11.0238 25.5588" fill="#1B2749"/>
<path fill-rule="evenodd" clip-rule="evenodd" d="M11.0238 23.4142C11.6155 23.4142 12.0952 24.1342 12.0952 25.0227C12.0952 25.911 11.6155 26.6311 11.0238 26.6311C10.4321 26.6311 9.95245 25.911 9.95245 25.0227C9.95245 24.1342 10.4321 23.4142 11.0238 23.4142" fill="#3F3D56"/>
<path fill-rule="evenodd" clip-rule="evenodd" d="M11.0238 21.8057C11.6155 21.8057 12.0952 22.5259 12.0952 23.4142C12.0952 24.3025 11.6155 25.0226 11.0238 25.0226C10.4321 25.0226 9.95245 24.3025 9.95245 23.4142C9.95245 22.5259 10.4321 21.8057 11.0238 21.8057" fill="#3F3D56"/>
<mask id="mask1_35_587" style="mask-type:alpha" maskUnits="userSpaceOnUse" x="5" y="0" width="12" height="27">
<path fill-rule="evenodd" clip-rule="evenodd" d="M5.14386 0.962814H16.8219V26.5584H5.14386V0.962814Z" fill="white"/>
</mask>
<g mask="url(#mask1_35_587)">
<path fill-rule="evenodd" clip-rule="evenodd" d="M15.5696 10.2253C15.7365 10.0177 15.8883 9.79887 16.0237 9.57034L12.8245 9.05564L16.2814 9.08029C16.9527 7.64945 16.9931 6.01057 16.393 4.54968L11.7513 6.91053L16.0316 3.82848C14.4235 1.09115 10.8571 0.150357 8.06592 1.72744C5.27463 3.30468 4.3155 6.80219 5.92358 9.53967C6.065 9.78023 6.22386 10.0103 6.39938 10.2285C6.14058 10.552 5.91777 10.9018 5.73471 11.2716L9.88771 13.3876L5.46287 11.9298C4.83199 13.761 5.18648 15.7811 6.40566 17.3001C4.41339 19.7829 4.85053 23.3792 7.38208 25.333C9.91332 27.2869 13.5805 26.8582 15.5727 24.3754C17.2383 22.2998 17.2383 19.3757 15.5727 17.3001C17.2382 15.2257 17.2382 12.3027 15.5727 10.2285L15.5696 10.2253Z" fill="#FFAC00"/>
</g>
<path fill-rule="evenodd" clip-rule="evenodd" d="M5.66885 13.8479C5.66748 15.1293 6.09144 16.3738 6.87193 17.3802C4.95079 19.8608 5.37232 23.4544 7.81333 25.4066C10.2545 27.3589 13.7907 26.9307 15.7117 24.45C17.3178 22.3761 17.3178 19.4541 15.7117 17.3802C16.4663 16.4086 5.66885 13.2058 5.66885 13.8479" fill="#FFAC00"/>
</svg>
