<svg width="24" height="43" viewBox="0 0 24 43" fill="none" xmlns="http://www.w3.org/2000/svg">
<mask id="mask0_35_455" style="mask-type:alpha" maskUnits="userSpaceOnUse" x="0" y="37" width="24" height="6">
<path fill-rule="evenodd" clip-rule="evenodd" d="M0.0615234 37.585H23.473V42.3361H0.0615234V37.585Z" fill="white"/>
</mask>
<g mask="url(#mask0_35_455)">
<path fill-rule="evenodd" clip-rule="evenodd" d="M11.7673 37.585C18.2321 37.585 23.473 38.6485 23.473 39.9606C23.473 41.2725 18.2321 42.3361 11.7673 42.3361C5.30246 42.3361 0.0615234 41.2725 0.0615234 39.9606C0.0615234 38.6485 5.30246 37.585 11.7673 37.585" fill="#DBD4DA"/>
</g>
<path fill-rule="evenodd" clip-rule="evenodd" d="M11.5786 36.9746C12.3182 36.9746 12.9178 37.8148 12.9178 38.8513C12.9178 39.8875 12.3182 40.7277 11.5786 40.7277C10.839 40.7277 10.2394 39.8875 10.2394 38.8513C10.2394 37.8148 10.839 36.9746 11.5786 36.9746" fill="#1B2749"/>
<path fill-rule="evenodd" clip-rule="evenodd" d="M11.5786 35.3662C12.3182 35.3662 12.9178 36.2062 12.9178 37.2428C12.9178 38.2792 12.3182 39.1192 11.5786 39.1192C10.839 39.1192 10.2394 38.2792 10.2394 37.2428C10.2394 36.2062 10.839 35.3662 11.5786 35.3662" fill="#1B2749"/>
<path fill-rule="evenodd" clip-rule="evenodd" d="M11.5786 32.6855C12.3182 32.6855 12.9178 33.5256 12.9178 34.5622C12.9178 35.5983 12.3182 36.4385 11.5786 36.4385C10.839 36.4385 10.2394 35.5983 10.2394 34.5622C10.2394 33.5256 10.839 32.6855 11.5786 32.6855" fill="#1B2749"/>
<path fill-rule="evenodd" clip-rule="evenodd" d="M11.5786 30.5409C12.3182 30.5409 12.9178 31.3809 12.9178 32.4175C12.9178 33.4539 12.3182 34.2939 11.5786 34.2939C10.839 34.2939 10.2394 33.4539 10.2394 32.4175C10.2394 31.3809 10.839 30.5409 11.5786 30.5409" fill="#1B2749"/>
<path fill-rule="evenodd" clip-rule="evenodd" d="M11.5786 28.3963C12.3182 28.3963 12.9178 29.2364 12.9178 30.2728C12.9178 31.3091 12.3182 32.1493 11.5786 32.1493C10.839 32.1493 10.2394 31.3091 10.2394 30.2728C10.2394 29.2364 10.839 28.3963 11.5786 28.3963" fill="#1B2749"/>
<path fill-rule="evenodd" clip-rule="evenodd" d="M11.5786 25.7155C12.3182 25.7155 12.9178 26.5556 12.9178 27.5921C12.9178 28.6285 12.3182 29.4686 11.5786 29.4686C10.839 29.4686 10.2394 28.6285 10.2394 27.5921C10.2394 26.5556 10.839 25.7155 11.5786 25.7155" fill="#3F3D56"/>
<path fill-rule="evenodd" clip-rule="evenodd" d="M11.5786 24.1071C12.3182 24.1071 12.9178 24.9473 12.9178 25.9836C12.9178 27.0199 12.3182 27.8601 11.5786 27.8601C10.839 27.8601 10.2394 27.0199 10.2394 25.9836C10.2394 24.9473 10.839 24.1071 11.5786 24.1071" fill="#3F3D56"/>
<mask id="mask1_35_455" style="mask-type:alpha" maskUnits="userSpaceOnUse" x="4" y="0" width="15" height="30">
<path fill-rule="evenodd" clip-rule="evenodd" d="M4.89685 0.0570374H18.1674V29.3853H4.89685V0.0570374Z" fill="white"/>
</mask>
<g mask="url(#mask1_35_455)">
<path fill-rule="evenodd" clip-rule="evenodd" d="M16.7443 10.6703C16.9339 10.4324 17.1064 10.1817 17.2603 9.91981L13.6249 9.33004L17.5532 9.3583C18.316 7.71879 18.3618 5.8409 17.6799 4.16697L12.4053 6.87211L17.2692 3.34059C15.4419 0.204073 11.3891 -0.873922 8.21737 0.933155C5.04545 2.74041 3.95553 6.74797 5.7829 9.88467C5.9436 10.1603 6.12413 10.4239 6.32358 10.674C6.02949 11.0446 5.77629 11.4454 5.56827 11.8692L10.2876 14.2938L5.25937 12.6234C4.54245 14.7216 4.94528 17.0363 6.33072 18.7769C4.06677 21.6217 4.56352 25.7424 7.44029 27.9812C10.3167 30.22 14.4839 29.7288 16.7478 26.884C18.6406 24.5057 18.6406 21.1552 16.7478 18.7769C18.6404 16.4 18.6404 13.0507 16.7478 10.674L16.7443 10.6703Z" fill="#00BECE"/>
</g>
<path fill-rule="evenodd" clip-rule="evenodd" d="M5.42039 14.5548C5.41883 16.0498 5.90335 17.5017 6.79533 18.6759C4.59975 21.5699 5.0815 25.7625 7.87122 28.04C10.6611 30.3177 14.7025 29.8181 16.8979 26.924C18.7335 24.5044 18.7335 21.0955 16.8979 18.6759C17.7603 17.5423 5.42039 13.8057 5.42039 14.5548" fill="#00BECE"/>
</svg>
