<svg width="85" height="84" viewBox="0 0 85 84" fill="none" xmlns="http://www.w3.org/2000/svg">
<g clip-path="url(#clip0_118_451)">
<path fill-rule="evenodd" clip-rule="evenodd" d="M23.722 72.3333L23.7177 72.3242L21.5826 68.1429L4.65699 35H0.388672L19.4478 72.3242L19.4434 72.3333H19.4521H23.7118H23.722Z" fill="#1B2749"/>
<path fill-rule="evenodd" clip-rule="evenodd" d="M40.0554 72.3333L40.0523 72.3242L37.9173 68.1429L35.7837 63.9646L33.6487 59.7863L31.5151 55.605L29.3787 51.4267L20.9907 35H16.722L27.2451 55.605L29.3787 59.7863L31.5151 63.9646L33.6487 68.1429L35.7837 72.3242L35.7781 72.3333H35.7882H40.0467H40.0554Z" fill="#1B2749"/>
<path fill-rule="evenodd" clip-rule="evenodd" d="M47.2506 68.1429L45.1156 63.9646L42.982 59.7863L40.8484 55.605L38.7134 51.4267L36.5798 47.2484L34.4448 43.067L30.3239 35H26.0553L32.3098 47.2453L36.5798 55.605L38.7134 59.7863L40.8484 63.9646L42.982 68.1429L45.1156 72.3242L45.1114 72.3333H45.12H49.3814H49.3886L49.3844 72.3242L47.2506 68.1429Z" fill="#1B2749"/>
<path fill-rule="evenodd" clip-rule="evenodd" d="M58.722 11.6667H54.707L40.0553 42.4513L42.0641 46.6667L58.722 11.6667Z" fill="#FA7268"/>
<path fill-rule="evenodd" clip-rule="evenodd" d="M26.4536 72.3333H30.712H30.722L30.7178 72.3242L28.5814 68.1429L26.4492 63.9646L24.3144 59.7863L11.657 35H7.38867L22.1796 63.9646L24.3144 68.1429L26.4492 72.3242L26.4436 72.3333H26.4536Z" fill="#1B2749"/>
<path fill-rule="evenodd" clip-rule="evenodd" d="M46.7887 53.6667L68.0554 11.6667H63.9261L44.722 49.5873L44.7456 49.6319L46.7887 53.6667Z" fill="#FA7268"/>
<path fill-rule="evenodd" clip-rule="evenodd" d="M49.1611 58.3334L75.0553 11.6667H70.8462L47.0553 54.5377L47.0763 54.5765L49.1611 58.3334Z" fill="#FA7268"/>
<path fill-rule="evenodd" clip-rule="evenodd" d="M84.3887 11.6667H79.8137L49.3887 63.7488L49.4118 63.7917L51.677 67.6667L84.3887 11.6667Z" fill="#FA7268"/>
</g>
<defs>
<clipPath id="clip0_118_451">
<rect width="84" height="84" fill="white" transform="translate(0.388672)"/>
</clipPath>
</defs>
</svg>
