<svg width="85" height="84" viewBox="0 0 85 84" fill="none" xmlns="http://www.w3.org/2000/svg">
<g clip-path="url(#clip0_118_451)">
<path fill-rule="evenodd" clip-rule="evenodd" d="M23.5228 72.3333L23.5185 72.3242L21.3834 68.1429L4.45777 35H0.189453L19.2485 72.3242L19.2442 72.3333H19.2528H23.5125H23.5228Z" fill="#1B2749"/>
<path fill-rule="evenodd" clip-rule="evenodd" d="M39.856 72.3333L39.853 72.3242L37.718 68.1429L35.5844 63.9646L33.4494 59.7863L31.3158 55.605L29.1794 51.4267L20.7913 35H16.5227L27.0458 55.605L29.1794 59.7863L31.3158 63.9646L33.4494 68.1429L35.5844 72.3242L35.5788 72.3333H35.5888H39.8474H39.856Z" fill="#1B2749"/>
<path fill-rule="evenodd" clip-rule="evenodd" d="M47.0515 68.1429L44.9165 63.9646L42.7829 59.7863L40.6493 55.605L38.5143 51.4267L36.3807 47.2484L34.2457 43.067L30.1248 35H25.8562L32.1107 47.2453L36.3807 55.605L38.5143 59.7863L40.6493 63.9646L42.7829 68.1429L44.9165 72.3242L44.9123 72.3333H44.9209H49.1823H49.1895L49.1853 72.3242L47.0515 68.1429Z" fill="#1B2749"/>
<path fill-rule="evenodd" clip-rule="evenodd" d="M58.5229 11.6667H54.5079L39.8562 42.4513L41.865 46.6667L58.5229 11.6667Z" fill="#FA7268"/>
<path fill-rule="evenodd" clip-rule="evenodd" d="M26.2544 72.3333H30.5128H30.5228L30.5186 72.3242L28.3822 68.1429L26.25 63.9646L24.1152 59.7863L11.4578 35H7.18945L21.9804 63.9646L24.1152 68.1429L26.25 72.3242L26.2444 72.3333H26.2544Z" fill="#1B2749"/>
<path fill-rule="evenodd" clip-rule="evenodd" d="M46.5893 53.6667L67.856 11.6667H63.7267L44.5227 49.5873L44.5463 49.6319L46.5893 53.6667Z" fill="#FA7268"/>
<path fill-rule="evenodd" clip-rule="evenodd" d="M48.962 58.3334L74.8562 11.6667H70.6471L46.8562 54.5377L46.8772 54.5765L48.962 58.3334Z" fill="#FA7268"/>
<path fill-rule="evenodd" clip-rule="evenodd" d="M84.1895 11.6667H79.6145L49.1895 63.7488L49.2126 63.7917L51.4778 67.6667L84.1895 11.6667Z" fill="#FA7268"/>
</g>
<defs>
<clipPath id="clip0_118_451">
<rect width="84" height="84" fill="white" transform="translate(0.189453)"/>
</clipPath>
</defs>
</svg>
