<svg width="85" height="84" viewBox="0 0 85 84" fill="none" xmlns="http://www.w3.org/2000/svg">
<g clip-path="url(#clip0_118_421)">
<path fill-rule="evenodd" clip-rule="evenodd" d="M23.993 72.3333L23.9887 72.3242L21.8536 68.1429L4.92799 35H0.659668L19.7188 72.3242L19.7144 72.3333H19.723H23.9828H23.993Z" fill="#1B2749"/>
<path fill-rule="evenodd" clip-rule="evenodd" d="M40.3264 72.3333L40.3233 72.3242L38.1883 68.1429L36.0547 63.9646L33.9197 59.7863L31.7861 55.605L29.6497 51.4267L21.2617 35H16.993L27.5161 55.605L29.6497 59.7863L31.7861 63.9646L33.9197 68.1429L36.0547 72.3242L36.0491 72.3333H36.0592H40.3177H40.3264Z" fill="#1B2749"/>
<path fill-rule="evenodd" clip-rule="evenodd" d="M47.5216 68.1429L45.3866 63.9646L43.253 59.7863L41.1194 55.605L38.9844 51.4267L36.8508 47.2484L34.7158 43.067L30.5949 35H26.3263L32.5808 47.2453L36.8508 55.605L38.9844 59.7863L41.1194 63.9646L43.253 68.1429L45.3866 72.3242L45.3824 72.3333H45.391H49.6524H49.6596L49.6554 72.3242L47.5216 68.1429Z" fill="#1B2749"/>
<path fill-rule="evenodd" clip-rule="evenodd" d="M58.993 11.6667H54.978L40.3263 42.4513L42.3351 46.6667L58.993 11.6667Z" fill="#FA7268"/>
<path fill-rule="evenodd" clip-rule="evenodd" d="M26.7246 72.3333H30.983H30.993L30.9888 72.3242L28.8524 68.1429L26.7202 63.9646L24.5854 59.7863L11.928 35H7.65967L22.4506 63.9646L24.5854 68.1429L26.7202 72.3242L26.7146 72.3333H26.7246Z" fill="#1B2749"/>
<path fill-rule="evenodd" clip-rule="evenodd" d="M47.0597 53.6667L68.3264 11.6667H64.1971L44.993 49.5873L45.0166 49.6319L47.0597 53.6667Z" fill="#FA7268"/>
<path fill-rule="evenodd" clip-rule="evenodd" d="M49.4321 58.3334L75.3263 11.6667H71.1172L47.3263 54.5377L47.3473 54.5765L49.4321 58.3334Z" fill="#FA7268"/>
<path fill-rule="evenodd" clip-rule="evenodd" d="M84.6597 11.6667H80.0847L49.6597 63.7488L49.6828 63.7917L51.948 67.6667L84.6597 11.6667Z" fill="#FA7268"/>
</g>
<defs>
<clipPath id="clip0_118_421">
<rect width="84" height="84" fill="white" transform="translate(0.659668)"/>
</clipPath>
</defs>
</svg>
