<svg width="85" height="84" viewBox="0 0 85 84" fill="none" xmlns="http://www.w3.org/2000/svg">
<g clip-path="url(#clip0_118_451)">
<path fill-rule="evenodd" clip-rule="evenodd" d="M24.0243 72.3333L24.0199 72.3242L21.8848 68.1429L4.95924 35H0.690918L19.75 72.3242L19.7457 72.3333H19.7543H24.014H24.0243Z" fill="#1B2749"/>
<path fill-rule="evenodd" clip-rule="evenodd" d="M40.3575 72.3333L40.3545 72.3242L38.2195 68.1429L36.0859 63.9646L33.9509 59.7863L31.8173 55.605L29.6809 51.4267L21.2928 35H17.0242L27.5473 55.605L29.6809 59.7863L31.8173 63.9646L33.9509 68.1429L36.0859 72.3242L36.0803 72.3333H36.0903H40.3489H40.3575Z" fill="#1B2749"/>
<path fill-rule="evenodd" clip-rule="evenodd" d="M47.553 68.1429L45.418 63.9646L43.2844 59.7863L41.1508 55.605L39.0158 51.4267L36.8822 47.2484L34.7472 43.067L30.6263 35H26.3577L32.6122 47.2453L36.8822 55.605L39.0158 59.7863L41.1508 63.9646L43.2844 68.1429L45.418 72.3242L45.4138 72.3333H45.4224H49.6838H49.691L49.6868 72.3242L47.553 68.1429Z" fill="#1B2749"/>
<path fill-rule="evenodd" clip-rule="evenodd" d="M59.0243 11.6667H55.0094L40.3577 42.4513L42.3664 46.6667L59.0243 11.6667Z" fill="#FA7268"/>
<path fill-rule="evenodd" clip-rule="evenodd" d="M26.7559 72.3333H31.0142H31.0243L31.0201 72.3242L28.8837 68.1429L26.7515 63.9646L24.6167 59.7863L11.9593 35H7.69092L22.4818 63.9646L24.6167 68.1429L26.7515 72.3242L26.7459 72.3333H26.7559Z" fill="#1B2749"/>
<path fill-rule="evenodd" clip-rule="evenodd" d="M47.0908 53.6667L68.3575 11.6667H64.2282L45.0242 49.5873L45.0477 49.6319L47.0908 53.6667Z" fill="#FA7268"/>
<path fill-rule="evenodd" clip-rule="evenodd" d="M49.4635 58.3334L75.3577 11.6667H71.1486L47.3577 54.5377L47.3787 54.5765L49.4635 58.3334Z" fill="#FA7268"/>
<path fill-rule="evenodd" clip-rule="evenodd" d="M84.6909 11.6667H80.1159L49.6909 63.7488L49.714 63.7917L51.9792 67.6667L84.6909 11.6667Z" fill="#FA7268"/>
</g>
<defs>
<clipPath id="clip0_118_451">
<rect width="84" height="84" fill="white" transform="translate(0.690918)"/>
</clipPath>
</defs>
</svg>
