<svg width="36" height="36" viewBox="0 0 36 36" fill="none" xmlns="http://www.w3.org/2000/svg">
<path fill-rule="evenodd" clip-rule="evenodd" d="M18 36C27.9411 36 36 27.9411 36 18C36 8.05887 27.9411 0 18 0C8.05887 0 0 8.05887 0 18C0 27.9411 8.05887 36 18 36Z" fill="#FA7268"/>
<path fill-rule="evenodd" clip-rule="evenodd" d="M16.2283 14.1723H13.2551C12.9299 14.1723 12.7016 14.0256 12.5698 13.7321C12.4383 13.4459 12.4924 13.1929 12.7325 12.9727L17.9356 8.04248C18.075 7.90306 18.2493 7.83333 18.4582 7.83333C18.6673 7.83333 18.8413 7.90306 18.9808 8.04248L24.1841 12.9727C24.424 13.1929 24.4783 13.446 24.3466 13.7321C24.2152 14.0255 23.9868 14.1723 23.6614 14.1723H20.6881V19.1026C20.6881 19.2934 20.6146 19.4585 20.4676 19.5978C20.3204 19.7371 20.1463 19.807 19.945 19.807H16.9715C16.7703 19.807 16.596 19.7371 16.4489 19.5978C16.3019 19.4585 16.2283 19.2934 16.2283 19.1026V14.1723ZM26.1089 19.807C26.4027 19.807 26.6526 19.9077 26.858 20.1093C27.0639 20.3109 27.1666 20.5552 27.1666 20.8432V24.2973C27.1666 24.5851 27.0639 24.8298 26.8581 25.0312C26.6526 25.2327 26.4027 25.3333 26.1091 25.3333H9.89093C9.59714 25.3333 9.34743 25.2327 9.14174 25.0312C8.93606 24.83 8.83325 24.5851 8.83325 24.2973V20.8432C8.83325 20.5552 8.93606 20.3106 9.14174 20.1093C9.34747 19.9077 9.59718 19.807 9.89093 19.807H14.5955C14.7498 20.21 15.0086 20.5409 15.3722 20.7999C15.7357 21.059 16.1416 21.1886 16.5896 21.1886H19.4103C19.8583 21.1886 20.264 21.059 20.6277 20.7999C20.9913 20.5409 21.2503 20.2099 21.4044 19.807H26.1089ZM22.2306 23.952C22.4216 23.952 22.5869 23.8836 22.7267 23.7468C22.8661 23.6102 22.9359 23.4482 22.9359 23.2611C22.9359 23.074 22.8661 22.9119 22.7267 22.7754C22.5869 22.6387 22.4216 22.5702 22.2306 22.5702C22.0397 22.5702 21.8746 22.6388 21.7349 22.7754C21.5954 22.9119 21.5257 23.074 21.5257 23.2611C21.5257 23.4482 21.5954 23.6102 21.7349 23.7468C21.8746 23.8836 22.0397 23.952 22.2306 23.952ZM25.547 23.7468C25.4075 23.8836 25.2422 23.952 25.0512 23.952C24.8602 23.952 24.695 23.8836 24.5554 23.7468C24.416 23.6102 24.3463 23.4482 24.3463 23.2611C24.3463 23.074 24.416 22.9119 24.5554 22.7754C24.695 22.6388 24.8602 22.5702 25.0512 22.5702C25.2422 22.5702 25.4075 22.6387 25.547 22.7754C25.6866 22.9119 25.7564 23.074 25.7564 23.2611C25.7564 23.4482 25.6867 23.6102 25.547 23.7468Z" fill="white"/>
</svg>
