<svg width="36" height="36" viewBox="0 0 36 36" fill="none" xmlns="http://www.w3.org/2000/svg">
<path fill-rule="evenodd" clip-rule="evenodd" d="M18 36C27.9411 36 36 27.9411 36 18C36 8.05887 27.9411 0 18 0C8.05887 0 0 8.05887 0 18C0 27.9411 8.05887 36 18 36Z" fill="#DFE0E5" fill-opacity="0.5"/>
<path fill-rule="evenodd" clip-rule="evenodd" d="M14 13.3333H10.6667C10.2985 13.3333 10 13.0349 10 12.6667C10 12.2985 10.2985 12 10.6667 12H14V10H16.6667V15.3333H14V13.3333ZM18 12H25.3333C25.7015 12 26 12.2985 26 12.6667C26 13.0349 25.7015 13.3333 25.3333 13.3333H18V12Z" fill="#1B2749"/>
<path fill-rule="evenodd" clip-rule="evenodd" d="M14 24H10.6667C10.2985 24 10 23.7015 10 23.3333C10 22.9651 10.2985 22.6666 10.6667 22.6666H14V20.6666H16.6667V26H14V24ZM18 22.6666H25.3333C25.7015 22.6666 26 22.9651 26 23.3333C26 23.7015 25.7015 24 25.3333 24H18V22.6666Z" fill="#1B2749"/>
<path fill-rule="evenodd" clip-rule="evenodd" d="M19.3333 18.6667H10.6667C10.2985 18.6667 10 18.3682 10 18C10 17.6319 10.2985 17.3334 10.6667 17.3334H19.3333V15.3334H22V20.6667H19.3333V18.6667ZM23.3333 17.3334H25.3333C25.7015 17.3334 26 17.6319 26 18C26 18.3682 25.7015 18.6667 25.3333 18.6667H23.3333V17.3334Z" fill="#1B2749"/>
</svg>
