<svg width="36" height="36" viewBox="0 0 36 36" fill="none" xmlns="http://www.w3.org/2000/svg">
<path fill-rule="evenodd" clip-rule="evenodd" d="M18 36C27.9411 36 36 27.9411 36 18C36 8.05887 27.9411 0 18 0C8.05887 0 0 8.05887 0 18C0 27.9411 8.05887 36 18 36Z" fill="#DFE0E5" fill-opacity="0.5"/>
<path fill-rule="evenodd" clip-rule="evenodd" d="M20.0015 12.0398H22.9095C23.1436 12.0398 23.3333 12.2337 23.3333 12.4729V13.8333H13.3333V12.4728C13.3333 12.2336 13.5229 12.0397 13.757 12.0397H16.665V11.4779C16.665 11.3981 16.7283 11.3333 16.8064 11.3333H19.8601C19.9382 11.3333 20.0015 11.3981 20.0015 11.4779V12.0398ZM14.6052 24.0292C14.6199 24.3855 14.9099 24.6667 15.2625 24.6667H21.404C21.7566 24.6667 22.0466 24.3855 22.0613 24.0292L22.4999 14.6667H14.1666L14.6052 24.0292ZM19.7225 16.9922C19.7225 16.843 19.8422 16.722 19.9898 16.722H20.4172C20.5647 16.722 20.6844 16.8429 20.6844 16.9922V22.3412C20.6844 22.4904 20.5647 22.6114 20.4172 22.6114H19.9898C19.8422 22.6114 19.7225 22.4905 19.7225 22.3412V16.9922ZM18.1196 16.722C17.972 16.722 17.8524 16.843 17.8524 16.9922V22.3412C17.8524 22.4905 17.972 22.6114 18.1196 22.6114H18.5469C18.6945 22.6114 18.8141 22.4904 18.8141 22.3412V16.9922C18.8141 16.8429 18.6944 16.722 18.5469 16.722H18.1196ZM15.9821 16.9922C15.9821 16.843 16.1018 16.722 16.2493 16.722H16.6767C16.8243 16.722 16.9439 16.8429 16.9439 16.9922V22.3412C16.9439 22.4904 16.8243 22.6114 16.6767 22.6114H16.2493C16.1018 22.6114 15.9821 22.4905 15.9821 22.3412V16.9922Z" fill="#1B2749"/>
</svg>
