<svg width="58" height="58" viewBox="0 0 58 58" fill="none" xmlns="http://www.w3.org/2000/svg">
<g clip-path="url(#clip0_121_1972)">
<rect opacity="0.5" x="0.290283" y="0.665615" width="56.7823" height="56.7823" rx="28.3912" fill="#DFE0E5"/>
<path fill-rule="evenodd" clip-rule="evenodd" d="M26.8889 28.5602H14V16.2083H26.8889V28.5602ZM24.311 18.6785H16.5776V26.0895H24.311V18.6785ZM26.8889 44H14V31.6481H26.8889V44ZM24.311 34.1187H16.5776V41.5106H24.311V34.1187ZM18.8333 36.2801H22.0556V39.3681H18.8333V36.2801ZM38.1667 40.912H34.9444V44H38.1667V40.912ZM39.7778 40.912H43V44H39.7778V40.912ZM37.8447 34.1187H40.4222V31.6481H43V39.0595H35.2664V36.5889H32.6891V44H30.1111V31.6481H37.8447V34.1187ZM22.0556 20.8403H18.8333V23.9282H22.0556V20.8403ZM30.1111 28.5602V16.2083H43V28.5602H30.1111ZM32.689 26.0895H40.4221V18.6785H32.689V26.0895ZM38.1667 20.8403H34.9444V23.9282H38.1667V20.8403Z" fill="#1B2749"/>
</g>
<defs>
<clipPath id="clip0_121_1972">
<rect width="56.7823" height="56.7823" fill="white" transform="translate(0.290283 0.665615)"/>
</clipPath>
</defs>
</svg>
