<svg width="32" height="36" viewBox="0 0 32 36" fill="none" xmlns="http://www.w3.org/2000/svg">
<path fill-rule="evenodd" clip-rule="evenodd" d="M0.0756836 9.01186V0.182793H7.9949V9.01186H0.0756836ZM1.06558 7.90823H6.51004V1.83824H1.06558V7.90823Z" fill="#E6E6E5"/>
<rect x="2.55042" y="2.94188" width="2.9697" height="3.3109" fill="#E6E6E5"/>
<path fill-rule="evenodd" clip-rule="evenodd" d="M0.0756836 34.3954V25.5664H7.9949V34.3954H0.0756836ZM1.06558 33.2918H6.51004V27.2218H1.06558V33.2918Z" fill="#E6E6E5"/>
<rect x="2.55042" y="28.8773" width="2.9697" height="3.3109" fill="#E6E6E5"/>
<path fill-rule="evenodd" clip-rule="evenodd" d="M23.3384 9.01186V0.182793H31.2576V9.01186H23.3384ZM24.8232 7.90823H30.2677V1.83824H24.8232V7.90823Z" fill="#E6E6E5"/>
<rect x="25.8132" y="2.94188" width="2.9697" height="3.3109" fill="#E6E6E5"/>
<rect x="13.9343" y="5.70096" width="1.9798" height="2.20727" fill="#E6E6E5"/>
<rect x="19.3788" y="13.4264" width="1.97983" height="2.20727" fill="#E6E6E5"/>
<rect x="22.8435" y="17.2891" width="1.97983" height="2.20727" fill="#E6E6E5"/>
<rect x="21.3586" y="15.0819" width="1.9798" height="2.20727" fill="#E6E6E5"/>
<rect x="24.8232" y="13.4264" width="1.9798" height="2.20727" fill="#E6E6E5"/>
<rect x="29.2778" y="11.771" width="1.9798" height="3.86272" fill="#E6E6E5"/>
<rect x="29.2778" y="17.8409" width="1.9798" height="3.86272" fill="#E6E6E5"/>
<rect x="29.2778" y="22.8073" width="1.9798" height="2.20727" fill="#E6E6E5"/>
<path fill-rule="evenodd" clip-rule="evenodd" d="M24.8233 11.2191V13.4264H21.3586V9.56368H23.3384V11.2191H24.8233Z" fill="#E6E6E5"/>
<rect x="19.8738" y="6.25278" width="1.9798" height="2.20727" fill="#E6E6E5"/>
<path fill-rule="evenodd" clip-rule="evenodd" d="M19.3788 9.56368V11.2191H17.399V13.4264H15.4191V7.35641H17.399V9.56368H19.3788Z" fill="#E6E6E5"/>
<rect x="9.97473" y="5.70096" width="1.9798" height="2.20727" fill="#E6E6E5"/>
<rect x="9.97473" y="9.56368" width="1.9798" height="2.20727" fill="#E6E6E5"/>
<rect x="10.4697" y="11.771" width="1.9798" height="2.20727" fill="#E6E6E5"/>
<rect x="12.4495" y="15.6337" width="1.97983" height="2.20727" fill="#E6E6E5"/>
<rect x="15.9141" y="15.6337" width="1.97983" height="5.51817" fill="#E6E6E5"/>
<rect x="19.3788" y="19.4964" width="3.95963" height="2.20727" fill="#E6E6E5"/>
<rect x="23.3384" y="21.1518" width="1.9798" height="2.20727" fill="#E6E6E5"/>
<path fill-rule="evenodd" clip-rule="evenodd" d="M24.8233 23.9109V27.7736H19.3788V25.5664H21.3586V23.9109H24.8233Z" fill="#E6E6E5"/>
<rect x="15.9141" y="22.8073" width="1.97983" height="2.20727" fill="#E6E6E5"/>
<rect x="17.8939" y="0.182793" width="1.9798" height="2.20727" fill="#E6E6E5"/>
<rect x="17.8939" y="2.94188" width="1.9798" height="2.20727" fill="#E6E6E5"/>
<rect x="20.8636" y="0.182793" width="1.97983" height="2.20727" fill="#E6E6E5"/>
<rect x="26.8031" y="25.5664" width="1.9798" height="3.86272" fill="#E6E6E5"/>
<rect x="25.3182" y="18.9446" width="1.97983" height="2.20727" fill="#E6E6E5"/>
<rect x="27.2981" y="16.7373" width="1.9798" height="2.20727" fill="#E6E6E5"/>
<rect x="21.3586" y="29.4291" width="1.9798" height="2.20727" fill="#E6E6E5"/>
<rect x="18.3889" y="28.3255" width="1.97983" height="2.20727" fill="#E6E6E5"/>
<rect x="20.3687" y="32.74" width="1.9798" height="2.20727" fill="#E6E6E5"/>
<rect x="0.0756836" y="9.56368" width="1.9798" height="3.86272" fill="#E6E6E5"/>
<path fill-rule="evenodd" clip-rule="evenodd" d="M5.52012 14.53V16.1855H3.54031V17.2891H1.5605V13.4264H3.54031V14.53H5.52012Z" fill="#E6E6E5"/>
<path fill-rule="evenodd" clip-rule="evenodd" d="M9.97467 11.2191V13.4264H7.99486V21.1518H6.01505V19.4964H3.54028V17.2891H6.01505V13.4264H4.53019V11.2191H9.97467Z" fill="#E6E6E5"/>
<rect x="11.9546" y="7.35641" width="1.9798" height="2.20727" fill="#E6E6E5"/>
<rect x="8.48987" y="13.9782" width="1.9798" height="2.20727" fill="#E6E6E5"/>
<rect x="0.0756836" y="17.2891" width="1.9798" height="2.20727" fill="#E6E6E5"/>
<rect x="1.56055" y="19.4964" width="1.9798" height="2.20727" fill="#E6E6E5"/>
<rect x="0.0756836" y="21.1518" width="1.9798" height="2.20727" fill="#E6E6E5"/>
<rect x="1.56055" y="23.3591" width="1.9798" height="2.20727" fill="#E6E6E5"/>
<rect x="6.01514" y="23.3591" width="1.9798" height="2.20727" fill="#E6E6E5"/>
<path fill-rule="evenodd" clip-rule="evenodd" d="M12.4495 27.2218V29.4291H10.4697V28.3255H8.98486V26.1182H10.9647V27.2218H12.4495Z" fill="#E6E6E5"/>
<path fill-rule="evenodd" clip-rule="evenodd" d="M18.3889 32.74V34.9473H8.98486V32.74H14.9243V30.5327H16.4091V32.74H18.3889Z" fill="#E6E6E5"/>
<path fill-rule="evenodd" clip-rule="evenodd" d="M31.2576 28.8773V34.9473H23.8334V32.74H25.8132V30.5327H29.2778V28.8773H31.2576Z" fill="#E6E6E5"/>
<rect x="10.4697" y="23.3591" width="3.95963" height="2.20727" fill="#E6E6E5"/>
<path fill-rule="evenodd" clip-rule="evenodd" d="M14.4293 18.9446V22.8073H12.4495V20.6H10.4696V19.4964H9.47974V17.2891H11.4595V18.9446H14.4293Z" fill="#E6E6E5"/>
<rect x="12.9445" y="28.8773" width="1.9798" height="2.20727" fill="#E6E6E5"/>
<path fill-rule="evenodd" clip-rule="evenodd" d="M17.399 25.5664V27.7736H16.4091V28.8773H14.9243V26.67H15.4192V25.5664H17.399Z" fill="#E6E6E5"/>
<path fill-rule="evenodd" clip-rule="evenodd" d="M14.4293 0.182793V4.04551H13.9343V5.70096H11.9545V3.49369H12.4495V1.83824H8.48987V0.182793H14.4293Z" fill="#E6E6E5"/>
<rect x="15.4192" y="0.182793" width="1.9798" height="2.20727" fill="#E6E6E5"/>
</svg>
