<svg width="36" height="36" viewBox="0 0 36 36" fill="none" xmlns="http://www.w3.org/2000/svg">
<path fill-rule="evenodd" clip-rule="evenodd" d="M17.7901 36C27.6153 36 35.5802 27.9411 35.5802 18C35.5802 8.05887 27.6153 0 17.7901 0C7.96489 0 0 8.05887 0 18C0 27.9411 7.96489 36 17.7901 36Z" fill="#FA7268"/>
<path fill-rule="evenodd" clip-rule="evenodd" d="M16.0392 14.1723H13.1007C12.7794 14.1723 12.5537 14.0257 12.4234 13.7321C12.2934 13.4459 12.3469 13.1929 12.5842 12.9727L17.7266 8.04249C17.8645 7.90307 18.0367 7.83334 18.2432 7.83334C18.4499 7.83334 18.6218 7.90307 18.7597 8.04249L23.9023 12.9727C24.1394 13.1929 24.1931 13.446 24.063 13.7321C23.933 14.0255 23.7073 14.1723 23.3857 14.1723H20.4471V19.1026C20.4471 19.2934 20.3745 19.4585 20.2292 19.5978C20.0836 19.7371 19.9116 19.807 19.7127 19.807H16.7738C16.5749 19.807 16.4027 19.7371 16.2573 19.5978C16.112 19.4585 16.0392 19.2934 16.0392 19.1026V14.1723ZM25.8047 19.807C26.0951 19.807 26.3421 19.9077 26.545 20.1093C26.7485 20.3109 26.85 20.5553 26.85 20.8432V24.2974C26.85 24.5851 26.7485 24.8298 26.5451 25.0312C26.3421 25.2327 26.0951 25.3333 25.8048 25.3333H9.77581C9.48545 25.3333 9.23865 25.2327 9.03536 25.0312C8.83207 24.83 8.73047 24.5851 8.73047 24.2974V20.8432C8.73047 20.5553 8.83207 20.3106 9.03536 20.1093C9.23869 19.9077 9.48549 19.807 9.77581 19.807H14.4256C14.578 20.21 14.8338 20.5409 15.1932 20.7999C15.5524 21.059 15.9536 21.1886 16.3963 21.1886H19.1842C19.6269 21.1886 20.0279 21.059 20.3874 20.7999C20.7467 20.5409 21.0027 20.21 21.155 19.807H25.8047ZM21.9716 23.9521C22.1604 23.9521 22.3238 23.8836 22.4619 23.7468C22.5997 23.6102 22.6686 23.4482 22.6686 23.2611C22.6686 23.074 22.5997 22.9119 22.4619 22.7754C22.3237 22.6388 22.1604 22.5702 21.9716 22.5702C21.7829 22.5702 21.6197 22.6388 21.4816 22.7754C21.3438 22.9119 21.2749 23.074 21.2749 23.2611C21.2749 23.4482 21.3438 23.6102 21.4816 23.7468C21.6197 23.8836 21.7829 23.9521 21.9716 23.9521ZM25.2493 23.7468C25.1115 23.8836 24.9481 23.9521 24.7593 23.9521C24.5706 23.9521 24.4073 23.8836 24.2693 23.7468C24.1315 23.6102 24.0626 23.4482 24.0626 23.2611C24.0626 23.074 24.1315 22.9119 24.2693 22.7754C24.4072 22.6388 24.5705 22.5702 24.7593 22.5702C24.948 22.5702 25.1114 22.6388 25.2493 22.7754C25.3873 22.9119 25.4563 23.074 25.4563 23.2611C25.4563 23.4482 25.3874 23.6102 25.2493 23.7468Z" fill="white"/>
</svg>
