<svg width="41" height="46" viewBox="0 0 41 46" fill="none" xmlns="http://www.w3.org/2000/svg">
<path fill-rule="evenodd" clip-rule="evenodd" d="M0.862061 11.7027V0.561882H10.8548V11.7027H0.862061ZM2.11115 10.3101H8.98114V2.65078H2.11115V10.3101Z" fill="#E6E6E5"/>
<rect x="3.98486" y="4.04338" width="3.74725" height="4.1778" fill="#E6E6E5"/>
<path fill-rule="evenodd" clip-rule="evenodd" d="M0.862061 43.7324V32.5916H10.8548V43.7324H0.862061ZM2.11115 42.3398H8.98114V34.6805H2.11115V42.3398Z" fill="#E6E6E5"/>
<rect x="3.98486" y="36.7694" width="3.74725" height="4.1778" fill="#E6E6E5"/>
<path fill-rule="evenodd" clip-rule="evenodd" d="M30.2156 11.7027V0.561882H40.2083V11.7027H30.2156ZM32.0892 10.3101H38.9592V2.65078H32.0892V10.3101Z" fill="#E6E6E5"/>
<rect x="33.3384" y="4.04338" width="3.74725" height="4.1778" fill="#E6E6E5"/>
<rect x="18.3494" y="7.52487" width="2.49817" height="2.7852" fill="#E6E6E5"/>
<rect x="25.2192" y="17.2731" width="2.49817" height="2.78519" fill="#E6E6E5"/>
<rect x="29.5911" y="22.1472" width="2.4982" height="2.78519" fill="#E6E6E5"/>
<rect x="27.7175" y="19.362" width="2.49817" height="2.7852" fill="#E6E6E5"/>
<rect x="32.0894" y="17.2731" width="2.49817" height="2.78519" fill="#E6E6E5"/>
<rect x="37.7102" y="15.1842" width="2.4982" height="4.87409" fill="#E6E6E5"/>
<rect x="37.7102" y="22.8434" width="2.4982" height="4.8741" fill="#E6E6E5"/>
<rect x="37.7102" y="29.1101" width="2.4982" height="2.78519" fill="#E6E6E5"/>
<path fill-rule="evenodd" clip-rule="evenodd" d="M32.0894 14.4879V17.2731H27.7176V12.399H30.2158V14.4879H32.0894Z" fill="#E6E6E5"/>
<rect x="25.8438" y="8.22117" width="2.49817" height="2.78519" fill="#E6E6E5"/>
<path fill-rule="evenodd" clip-rule="evenodd" d="M25.2193 12.399V14.4879H22.7211V17.2731H20.2229V9.61377H22.7211V12.399H25.2193Z" fill="#E6E6E5"/>
<rect x="13.353" y="7.52487" width="2.49817" height="2.7852" fill="#E6E6E5"/>
<rect x="13.353" y="12.399" width="2.49817" height="2.78519" fill="#E6E6E5"/>
<rect x="13.9775" y="15.1842" width="2.4982" height="2.78519" fill="#E6E6E5"/>
<rect x="16.4756" y="20.0583" width="2.49817" height="2.78519" fill="#E6E6E5"/>
<rect x="20.8474" y="20.0583" width="2.49817" height="6.96299" fill="#E6E6E5"/>
<rect x="25.2192" y="24.9324" width="4.99634" height="2.78519" fill="#E6E6E5"/>
<rect x="30.2156" y="27.0212" width="2.4982" height="2.78519" fill="#E6E6E5"/>
<path fill-rule="evenodd" clip-rule="evenodd" d="M32.0892 30.5027V35.3768H25.2192V32.5916H27.7174V30.5027H32.0892Z" fill="#E6E6E5"/>
<rect x="20.8474" y="29.1101" width="2.49817" height="2.78519" fill="#E6E6E5"/>
<rect x="23.3457" y="0.561882" width="2.4982" height="2.7852" fill="#E6E6E5"/>
<rect x="23.3457" y="4.04338" width="2.4982" height="2.7852" fill="#E6E6E5"/>
<rect x="27.093" y="0.561882" width="2.49817" height="2.7852" fill="#E6E6E5"/>
<rect x="34.5874" y="32.5916" width="2.49817" height="4.87409" fill="#E6E6E5"/>
<rect x="32.7139" y="24.236" width="2.49817" height="2.78519" fill="#E6E6E5"/>
<rect x="35.2119" y="21.4509" width="2.49817" height="2.78519" fill="#E6E6E5"/>
<rect x="27.7175" y="37.4657" width="2.49817" height="2.78519" fill="#E6E6E5"/>
<rect x="23.9702" y="36.0731" width="2.4982" height="2.78519" fill="#E6E6E5"/>
<rect x="26.4683" y="41.6435" width="2.49817" height="2.78519" fill="#E6E6E5"/>
<rect x="0.862061" y="12.399" width="2.49817" height="4.87409" fill="#E6E6E5"/>
<path fill-rule="evenodd" clip-rule="evenodd" d="M7.73196 18.6657V20.7546H5.2338V22.1471H2.73563V17.2731H5.2338V18.6657H7.73196Z" fill="#E6E6E5"/>
<path fill-rule="evenodd" clip-rule="evenodd" d="M13.353 14.4879V17.2731H10.8548V27.0212H8.35661V24.9323H5.23389V22.1472H8.35661V17.2731H6.48298V14.4879H13.353Z" fill="#E6E6E5"/>
<rect x="15.8511" y="9.61377" width="2.4982" height="2.7852" fill="#E6E6E5"/>
<rect x="11.4792" y="17.9694" width="2.49817" height="2.78519" fill="#E6E6E5"/>
<rect x="0.862061" y="22.1472" width="2.49817" height="2.78519" fill="#E6E6E5"/>
<rect x="2.7356" y="24.9324" width="2.49817" height="2.78519" fill="#E6E6E5"/>
<rect x="0.862061" y="27.0212" width="2.49817" height="2.78519" fill="#E6E6E5"/>
<rect x="2.7356" y="29.8064" width="2.49817" height="2.78519" fill="#E6E6E5"/>
<rect x="8.35645" y="29.8064" width="2.4982" height="2.78519" fill="#E6E6E5"/>
<path fill-rule="evenodd" clip-rule="evenodd" d="M16.4756 34.6805V37.4657H13.9774V36.0731H12.1038V33.2879H14.602V34.6805H16.4756Z" fill="#E6E6E5"/>
<path fill-rule="evenodd" clip-rule="evenodd" d="M23.9701 41.6435V44.4287H12.1038V41.6435H19.5983V38.8583H21.4719V41.6435H23.9701Z" fill="#E6E6E5"/>
<path fill-rule="evenodd" clip-rule="evenodd" d="M40.2083 36.7694V44.4287H30.8401V41.6435H33.3383V38.8583H37.7101V36.7694H40.2083Z" fill="#E6E6E5"/>
<rect x="13.9775" y="29.8064" width="4.99637" height="2.78519" fill="#E6E6E5"/>
<path fill-rule="evenodd" clip-rule="evenodd" d="M18.974 24.236V29.1101H16.4758V26.3249H13.9776V24.9323H12.7285V22.1472H15.2267V24.236H18.974Z" fill="#E6E6E5"/>
<rect x="17.1001" y="36.7694" width="2.49817" height="2.78519" fill="#E6E6E5"/>
<path fill-rule="evenodd" clip-rule="evenodd" d="M22.7212 32.5916V35.3768H21.4721V36.7694H19.5985V33.9842H20.223V32.5916H22.7212Z" fill="#E6E6E5"/>
<path fill-rule="evenodd" clip-rule="evenodd" d="M18.9738 0.561882V5.43598H18.3492V7.52487H15.8511V4.73968H16.4756V2.65078H11.4792V0.561882H18.9738Z" fill="#E6E6E5"/>
<rect x="20.2229" y="0.561882" width="2.49817" height="2.7852" fill="#E6E6E5"/>
</svg>
