<svg width="27" height="43" viewBox="0 0 27 43" fill="none" xmlns="http://www.w3.org/2000/svg">
<mask id="mask0_35_455" style="mask-type:alpha" maskUnits="userSpaceOnUse" x="0" y="38" width="27" height="5">
<path fill-rule="evenodd" clip-rule="evenodd" d="M0.0200195 38.0205H26.6506V42.7716H0.0200195V38.0205Z" fill="white"/>
</mask>
<g mask="url(#mask0_35_455)">
<path fill-rule="evenodd" clip-rule="evenodd" d="M13.3353 38.0205C20.689 38.0205 26.6506 39.084 26.6506 40.3961C26.6506 41.708 20.689 42.7716 13.3353 42.7716C5.98158 42.7716 0.0200195 41.708 0.0200195 40.3961C0.0200195 39.084 5.98158 38.0205 13.3353 38.0205" fill="#DBD4DA"/>
</g>
<path fill-rule="evenodd" clip-rule="evenodd" d="M13.1206 37.4101C13.9619 37.4101 14.644 38.2503 14.644 39.2868C14.644 40.323 13.9619 41.1632 13.1206 41.1632C12.2793 41.1632 11.5973 40.323 11.5973 39.2868C11.5973 38.2503 12.2793 37.4101 13.1206 37.4101" fill="#1B2749"/>
<path fill-rule="evenodd" clip-rule="evenodd" d="M13.1206 35.8017C13.9619 35.8017 14.644 36.6417 14.644 37.6783C14.644 38.7147 13.9619 39.5547 13.1206 39.5547C12.2793 39.5547 11.5973 38.7147 11.5973 37.6783C11.5973 36.6417 12.2793 35.8017 13.1206 35.8017" fill="#1B2749"/>
<path fill-rule="evenodd" clip-rule="evenodd" d="M13.1206 33.1209C13.9619 33.1209 14.644 33.9611 14.644 34.9976C14.644 36.0338 13.9619 36.874 13.1206 36.874C12.2793 36.874 11.5973 36.0338 11.5973 34.9976C11.5973 33.9611 12.2793 33.1209 13.1206 33.1209" fill="#1B2749"/>
<path fill-rule="evenodd" clip-rule="evenodd" d="M13.1206 30.9763C13.9619 30.9763 14.644 31.8164 14.644 32.8529C14.644 33.8893 13.9619 34.7294 13.1206 34.7294C12.2793 34.7294 11.5973 33.8893 11.5973 32.8529C11.5973 31.8164 12.2793 30.9763 13.1206 30.9763" fill="#1B2749"/>
<path fill-rule="evenodd" clip-rule="evenodd" d="M13.1206 28.8317C13.9619 28.8317 14.644 29.6719 14.644 30.7083C14.644 31.7446 13.9619 32.5848 13.1206 32.5848C12.2793 32.5848 11.5973 31.7446 11.5973 30.7083C11.5973 29.6719 12.2793 28.8317 13.1206 28.8317" fill="#1B2749"/>
<path fill-rule="evenodd" clip-rule="evenodd" d="M13.1206 26.151C13.9619 26.151 14.644 26.991 14.644 28.0276C14.644 29.064 13.9619 29.904 13.1206 29.904C12.2793 29.904 11.5973 29.064 11.5973 28.0276C11.5973 26.991 12.2793 26.151 13.1206 26.151" fill="#3F3D56"/>
<path fill-rule="evenodd" clip-rule="evenodd" d="M13.1206 24.5426C13.9619 24.5426 14.644 25.3827 14.644 26.4191C14.644 27.4554 13.9619 28.2956 13.1206 28.2956C12.2793 28.2956 11.5973 27.4554 11.5973 26.4191C11.5973 25.3827 12.2793 24.5426 13.1206 24.5426" fill="#3F3D56"/>
<mask id="mask1_35_455" style="mask-type:alpha" maskUnits="userSpaceOnUse" x="5" y="0" width="16" height="30">
<path fill-rule="evenodd" clip-rule="evenodd" d="M5.52014 0.492516H20.6154V29.8208H5.52014V0.492516Z" fill="white"/>
</mask>
<g mask="url(#mask1_35_455)">
<path fill-rule="evenodd" clip-rule="evenodd" d="M18.9966 11.1057C19.2123 10.8679 19.4085 10.6171 19.5836 10.3553L15.4482 9.76552L19.9167 9.79377C20.7844 8.15427 20.8366 6.27638 20.0609 4.60244L14.061 7.30759L19.5937 3.77607C17.5151 0.639552 12.9051 -0.438444 9.29724 1.36863C5.68918 3.17589 4.44939 7.18345 6.52802 10.3201C6.71082 10.5958 6.91617 10.8594 7.14304 11.1094C6.80852 11.4801 6.52051 11.8809 6.28388 12.3047L11.6521 14.7292L5.9325 13.0588C5.11701 15.1571 5.57523 17.4718 7.15117 19.2123C4.57593 22.0571 5.14098 26.1779 8.4133 28.4167C11.6852 30.6555 16.4254 30.1643 19.0007 27.3195C21.1536 24.9412 21.1536 21.5906 19.0007 19.2123C21.1534 16.8354 21.1534 13.4862 19.0007 11.1094L18.9966 11.1057Z" fill="#00BECE"/>
</g>
<path fill-rule="evenodd" clip-rule="evenodd" d="M6.11561 14.9903C6.11384 16.4853 6.66499 17.9372 7.67962 19.1113C5.18214 22.0054 5.73013 26.1979 8.90344 28.4755C12.0769 30.7532 16.674 30.2536 19.1713 27.3595C21.2593 24.9399 21.2593 21.531 19.1713 19.1113C20.1522 17.9778 6.11561 14.2412 6.11561 14.9903" fill="#00BECE"/>
</svg>
