<svg width="40" height="40" viewBox="0 0 40 40" fill="none" xmlns="http://www.w3.org/2000/svg">
<rect width="40" height="40" fill="white"/>
<path d="M16.6945 33.4706C18.1565 33.4706 19.3416 32.2855 19.3416 30.8236C19.3416 29.3616 18.1565 28.1765 16.6945 28.1765C15.2326 28.1765 14.0475 29.3616 14.0475 30.8236C14.0475 32.2855 15.2326 33.4706 16.6945 33.4706Z" stroke="url(#paint0_linear_149_202)" stroke-width="3"/>
<path d="M28.165 33.4706C29.6269 33.4706 30.8121 32.2855 30.8121 30.8236C30.8121 29.3616 29.6269 28.1765 28.165 28.1765C26.7031 28.1765 25.5179 29.3616 25.5179 30.8236C25.5179 32.2855 26.7031 33.4706 28.165 33.4706Z" stroke="url(#paint1_linear_149_202)" stroke-width="3"/>
<path d="M20.0536 20.0541L20.1229 20.2348L25.0537 20.2351C25.7624 20.2351 26.4256 19.8965 26.8451 19.3288L26.9374 19.1938L30.8623 12.9865C30.908 12.9142 30.9323 12.8303 30.9323 12.7446C30.9323 12.5237 30.7743 12.3399 30.5659 12.3018L30.4856 12.2945L16.76 12.2939L20.0536 20.0541Z" fill="#FA6650" fill-opacity="0.14"/>
<path d="M11.3796 8.85794H28.9465C29.9211 8.85794 30.7112 9.64803 30.7112 10.6226C30.7112 10.9586 30.6153 11.2875 30.4348 11.5709L26.5586 17.655C25.9106 18.6721 24.788 19.288 23.582 19.288H15.8124" stroke="#080808" stroke-width="3" stroke-linecap="round" stroke-linejoin="round"/>
<path d="M7 7H8.81167C9.8714 7 10.829 7.63203 11.2456 8.60644L15.3931 18.3073C15.651 18.9103 15.5531 19.6065 15.1391 20.1151L14.0225 21.4868C13.5526 22.0641 13.6396 22.9131 14.2169 23.383C14.4573 23.5787 14.7578 23.6856 15.0678 23.6856H30.9663" stroke="#080808" stroke-width="3" stroke-linecap="round" stroke-linejoin="round"/>
<defs>
<linearGradient id="paint0_linear_149_202" x1="19.3416" y1="30.8236" x2="14.0782" y2="30.8236" gradientUnits="userSpaceOnUse">
<stop stop-color="#FF9B94"/>
<stop offset="1" stop-color="#FA6650"/>
</linearGradient>
<linearGradient id="paint1_linear_149_202" x1="30.8121" y1="30.8236" x2="25.5179" y2="30.8236" gradientUnits="userSpaceOnUse">
<stop stop-color="#FF9B94"/>
<stop offset="0.99419" stop-color="#FA6650"/>
</linearGradient>
</defs>
</svg>
