<svg width="41" height="41" viewBox="0 0 41 41" fill="none" xmlns="http://www.w3.org/2000/svg">
<rect width="40" height="40" transform="translate(0.5 0.5)" fill="white"/>
<path d="M25.3992 14.2353C27.2092 14.2353 28.6765 15.7645 28.6765 17.6509V22.4896C28.6765 25.3943 26.6884 27.8151 24.0529 28.3546L21.8278 28.3542C19.1932 27.814 17.2059 25.3937 17.2059 22.4896V17.6509C17.2059 15.7645 18.6732 14.2353 20.4832 14.2353H25.3992Z" fill="#FA6650" fill-opacity="0.14"/>
<path fill-rule="evenodd" clip-rule="evenodd" d="M32.0851 12.4706C33.0597 12.4706 33.8498 13.2607 33.8498 14.2353V16.8155C33.8498 19.2152 31.9045 21.1605 29.5048 21.1605H28.6221V12.4706H32.0851ZM12.7277 12.4706V21.1605H11.8449C9.4453 21.1605 7.5 19.2152 7.5 16.8155V14.2353C7.5 13.2607 8.29009 12.4706 9.26471 12.4706H12.7277Z" stroke="url(#paint0_linear_124_321)" stroke-width="3"/>
<path fill-rule="evenodd" clip-rule="evenodd" d="M24.6444 8.5C25.7409 8.5 26.7335 8.94442 27.4521 9.66296C28.1706 10.3815 28.615 11.3741 28.615 12.4706V19.9706C28.615 22.1635 27.7262 24.1488 26.2891 25.5858C24.852 27.0229 22.8667 27.9118 20.6738 27.9118C18.4809 27.9118 16.4957 27.0229 15.0586 25.5858C13.6215 24.1488 12.7327 22.1635 12.7327 19.9706V12.4706C12.7327 11.3741 13.1771 10.3815 13.8956 9.66296C14.6142 8.94442 15.6068 8.5 16.7033 8.5H24.6444Z" stroke="#080808" stroke-width="3"/>
<path d="M20.6736 29.5229V32.3235" stroke="#080808" stroke-width="3" stroke-linecap="square"/>
<path d="M13.6147 33.2059H27.7324" stroke="#080808" stroke-width="3" stroke-linecap="round"/>
<defs>
<linearGradient id="paint0_linear_124_321" x1="33.8498" y1="16.8155" x2="7.65309" y2="16.8155" gradientUnits="userSpaceOnUse">
<stop stop-color="#FF9B94"/>
<stop offset="1" stop-color="#FA6650"/>
</linearGradient>
</defs>
</svg>
