<svg width="40" height="40" viewBox="0 0 40 40" fill="none" xmlns="http://www.w3.org/2000/svg">
<rect width="40" height="40" fill="white"/>
<path d="M24.8992 13.7353C26.7092 13.7353 28.1765 15.2645 28.1765 17.1509V21.9896C28.1765 24.8943 26.1884 27.3151 23.5529 27.8546L21.3278 27.8542C18.6932 27.314 16.7059 24.8937 16.7059 21.9896V17.1509C16.7059 15.2645 18.1732 13.7353 19.9832 13.7353H24.8992Z" fill="#FA6650" fill-opacity="0.14"/>
<path fill-rule="evenodd" clip-rule="evenodd" d="M31.5851 11.9706C32.5597 11.9706 33.3498 12.7607 33.3498 13.7353V16.3155C33.3498 18.7152 31.4045 20.6605 29.0048 20.6605H28.1221V11.9706H31.5851ZM12.2277 11.9706V20.6605H11.3449C8.9453 20.6605 7 18.7152 7 16.3155V13.7353C7 12.7607 7.79009 11.9706 8.76471 11.9706H12.2277Z" stroke="url(#paint0_linear_121_3181)" stroke-width="3"/>
<path fill-rule="evenodd" clip-rule="evenodd" d="M24.1444 8C25.2409 8 26.2335 8.44442 26.9521 9.16296C27.6706 9.88149 28.115 10.8741 28.115 11.9706V19.4706C28.115 21.6635 27.2262 23.6488 25.7891 25.0858C24.352 26.5229 22.3667 27.4118 20.1738 27.4118C17.9809 27.4118 15.9957 26.5229 14.5586 25.0858C13.1215 23.6488 12.2327 21.6635 12.2327 19.4706V11.9706C12.2327 10.8741 12.6771 9.88149 13.3956 9.16296C14.1142 8.44442 15.1068 8 16.2033 8H24.1444Z" stroke="#080808" stroke-width="3"/>
<path d="M20.1736 29.0229V31.8235" stroke="#080808" stroke-width="3" stroke-linecap="square"/>
<path d="M13.1147 32.7059H27.2324" stroke="#080808" stroke-width="3" stroke-linecap="round"/>
<defs>
<linearGradient id="paint0_linear_121_3181" x1="33.3498" y1="16.3155" x2="7.15309" y2="16.3155" gradientUnits="userSpaceOnUse">
<stop stop-color="#FF9B94"/>
<stop offset="1" stop-color="#FA6650"/>
</linearGradient>
</defs>
</svg>
