<svg width="41" height="40" viewBox="0 0 41 40" fill="none" xmlns="http://www.w3.org/2000/svg">
<rect width="40" height="40" transform="translate(0.4375)" fill="white"/>
<path d="M17.132 33.4706C18.594 33.4706 19.7791 32.2855 19.7791 30.8236C19.7791 29.3616 18.594 28.1765 17.132 28.1765C15.6701 28.1765 14.485 29.3616 14.485 30.8236C14.485 32.2855 15.6701 33.4706 17.132 33.4706Z" stroke="url(#paint0_linear_149_202)" stroke-width="3"/>
<path d="M28.6025 33.4706C30.0644 33.4706 31.2496 32.2855 31.2496 30.8236C31.2496 29.3616 30.0644 28.1765 28.6025 28.1765C27.1406 28.1765 25.9554 29.3616 25.9554 30.8236C25.9554 32.2855 27.1406 33.4706 28.6025 33.4706Z" stroke="url(#paint1_linear_149_202)" stroke-width="3"/>
<path d="M20.4911 20.0541L20.5604 20.2348L25.4912 20.2351C26.1999 20.2351 26.8631 19.8965 27.2826 19.3288L27.3749 19.1938L31.2998 12.9865C31.3455 12.9142 31.3698 12.8303 31.3698 12.7446C31.3698 12.5237 31.2118 12.3399 31.0034 12.3018L30.9231 12.2945L17.1975 12.2939L20.4911 20.0541Z" fill="#FA6650" fill-opacity="0.14"/>
<path d="M11.8171 8.85794H29.384C30.3586 8.85794 31.1487 9.64803 31.1487 10.6226C31.1487 10.9586 31.0528 11.2875 30.8723 11.5709L26.9961 17.655C26.3481 18.6721 25.2255 19.288 24.0195 19.288H16.2499" stroke="#080808" stroke-width="3" stroke-linecap="round" stroke-linejoin="round"/>
<path d="M7.4375 7H9.24917C10.3089 7 11.2665 7.63203 11.6831 8.60644L15.8306 18.3073C16.0885 18.9103 15.9906 19.6065 15.5766 20.1151L14.46 21.4868C13.9901 22.0641 14.0771 22.9131 14.6544 23.383C14.8948 23.5787 15.1953 23.6856 15.5053 23.6856H31.4038" stroke="#080808" stroke-width="3" stroke-linecap="round" stroke-linejoin="round"/>
<defs>
<linearGradient id="paint0_linear_149_202" x1="19.7791" y1="30.8236" x2="14.5157" y2="30.8236" gradientUnits="userSpaceOnUse">
<stop stop-color="#FF9B94"/>
<stop offset="1" stop-color="#FA6650"/>
</linearGradient>
<linearGradient id="paint1_linear_149_202" x1="31.2496" y1="30.8236" x2="25.9554" y2="30.8236" gradientUnits="userSpaceOnUse">
<stop stop-color="#FF9B94"/>
<stop offset="0.99419" stop-color="#FA6650"/>
</linearGradient>
</defs>
</svg>
