<svg width="41" height="41" viewBox="0 0 41 41" fill="none" xmlns="http://www.w3.org/2000/svg">
<rect width="40" height="40" transform="translate(0.5 0.5)" fill="white"/>
<path fill-rule="evenodd" clip-rule="evenodd" d="M25.887 14.7258H27.6625C31.4661 14.7258 34.5496 17.8093 34.5496 21.6129C34.5496 22.0623 34.5056 22.5107 34.4182 22.9516C33.4268 27.9542 29.5836 31.9044 24.6101 33.0328L19.2713 34.244C17.7076 34.5988 16.1524 33.6188 15.7977 32.0551C15.7498 31.8443 15.7257 31.6289 15.7257 31.4127V24.8871C15.7257 19.2752 20.2751 14.7258 25.887 14.7258Z" fill="#FA6650" fill-opacity="0.14"/>
<path d="M21.0484 8C24.3759 8 27.3859 9.34692 29.5679 11.5289C31.7499 13.7109 33.0968 16.7209 33.0968 20.0484C33.0968 23.3759 31.7499 26.3859 29.5679 28.5679C27.3859 30.7499 24.3759 32.0968 21.0484 32.0968H9V20.0484C9 16.7209 10.3469 13.7109 12.5289 11.5289C14.7109 9.34692 17.7209 8 21.0484 8Z" stroke="#080808" stroke-width="3"/>
<path d="M15.7257 23.4355H20.5644" stroke="url(#paint0_linear_124_203)" stroke-width="3" stroke-linecap="round"/>
<path d="M15.7257 18.1129H26.3709" stroke="url(#paint1_linear_124_203)" stroke-width="3" stroke-linecap="round"/>
<defs>
<linearGradient id="paint0_linear_124_203" x1="-nan" y1="-nan" x2="-nan" y2="-nan" gradientUnits="userSpaceOnUse">
<stop stop-color="#FF9B94"/>
<stop offset="0.99419" stop-color="#FA6650"/>
</linearGradient>
<linearGradient id="paint1_linear_124_203" x1="-nan" y1="-nan" x2="-nan" y2="-nan" gradientUnits="userSpaceOnUse">
<stop stop-color="#FF9B94"/>
<stop offset="1" stop-color="#FA6650"/>
</linearGradient>
</defs>
</svg>
