<svg width="41" height="40" viewBox="0 0 41 40" fill="none" xmlns="http://www.w3.org/2000/svg">
<rect width="40" height="40" transform="translate(0.5625)" fill="white"/>
<path d="M25.4617 13.7353C27.2717 13.7353 28.739 15.2645 28.739 17.1509V21.9896C28.739 24.8943 26.7509 27.3151 24.1154 27.8546L21.8903 27.8542C19.2557 27.314 17.2684 24.8937 17.2684 21.9896V17.1509C17.2684 15.2645 18.7357 13.7353 20.5457 13.7353H25.4617Z" fill="#FA6650" fill-opacity="0.14"/>
<path fill-rule="evenodd" clip-rule="evenodd" d="M32.1476 11.9706C33.1222 11.9706 33.9123 12.7607 33.9123 13.7353V16.3155C33.9123 18.7152 31.967 20.6605 29.5673 20.6605H28.6846V11.9706H32.1476ZM12.7902 11.9706V20.6605H11.9074C9.5078 20.6605 7.5625 18.7152 7.5625 16.3155V13.7353C7.5625 12.7607 8.35259 11.9706 9.32721 11.9706H12.7902Z" stroke="url(#paint0_linear_149_232)" stroke-width="3"/>
<path fill-rule="evenodd" clip-rule="evenodd" d="M24.7069 8C25.8034 8 26.796 8.44442 27.5146 9.16296C28.2331 9.88149 28.6775 10.8741 28.6775 11.9706V19.4706C28.6775 21.6635 27.7887 23.6488 26.3516 25.0858C24.9145 26.5229 22.9292 27.4118 20.7363 27.4118C18.5434 27.4118 16.5582 26.5229 15.1211 25.0858C13.684 23.6488 12.7952 21.6635 12.7952 19.4706V11.9706C12.7952 10.8741 13.2396 9.88149 13.9581 9.16296C14.6767 8.44442 15.6693 8 16.7658 8H24.7069Z" stroke="#080808" stroke-width="3"/>
<path d="M20.7361 29.0229V31.8235" stroke="#080808" stroke-width="3" stroke-linecap="square"/>
<path d="M13.6772 32.7059H27.7949" stroke="#080808" stroke-width="3" stroke-linecap="round"/>
<defs>
<linearGradient id="paint0_linear_149_232" x1="33.9123" y1="16.3155" x2="7.71559" y2="16.3155" gradientUnits="userSpaceOnUse">
<stop stop-color="#FF9B94"/>
<stop offset="1" stop-color="#FA6650"/>
</linearGradient>
</defs>
</svg>
