<svg width="18" height="16" viewBox="0 0 18 16" fill="none" xmlns="http://www.w3.org/2000/svg">
<path fill-rule="evenodd" clip-rule="evenodd" d="M16.5896 5.92268L11.7544 5.28945L9.5945 1.3436C9.46674 1.14809 9.23375 1.02808 8.98198 1.02808C8.73021 1.02808 8.49723 1.14809 8.36946 1.3436L6.20551 5.28945L1.37023 5.92268C1.113 5.95614 0.899154 6.11829 0.818579 6.34096C0.738004 6.56364 0.804675 6.80823 0.990565 6.97191L4.49018 10.0451L3.66461 14.3854C3.62072 14.6163 3.72606 14.8496 3.93634 14.9873C4.14662 15.1249 4.42539 15.1431 4.65543 15.0341L8.97993 12.9854L13.3044 15.0341C13.5345 15.1431 13.8132 15.1249 14.0235 14.9873C14.2338 14.8496 14.3391 14.6163 14.2953 14.3854L13.4697 10.0451L16.9693 6.97191C17.1551 6.80839 17.222 6.56403 17.1417 6.34143C17.0614 6.11882 16.848 5.95652 16.591 5.92268H16.5896Z" fill="#FA7268"/>
</svg>
