<svg width="28" height="17" viewBox="0 0 28 17" fill="none" xmlns="http://www.w3.org/2000/svg">
<path fill-rule="evenodd" clip-rule="evenodd" d="M25.4835 6.46442L18.2326 5.80781L14.9936 1.71627C14.802 1.51355 14.4527 1.3891 14.0751 1.3891C13.6976 1.3891 13.3482 1.51355 13.1566 1.71627L9.91152 5.80781L2.66058 6.46442C2.27484 6.49912 1.95415 6.66726 1.83332 6.89815C1.71249 7.12905 1.81247 7.38267 2.09123 7.5524L7.33923 10.7391L6.10122 15.2397C6.0354 15.4791 6.19336 15.721 6.5087 15.8637C6.82404 16.0064 7.24207 16.0253 7.58704 15.9122L14.072 13.788L20.557 15.9122C20.902 16.0253 21.32 16.0064 21.6354 15.8637C21.9507 15.721 22.1087 15.4791 22.0429 15.2397L20.8048 10.7391L26.0528 7.5524C26.3315 7.38284 26.4317 7.12946 26.3114 6.89863C26.191 6.66781 25.8709 6.49952 25.4855 6.46442H25.4835Z" fill="#FA7268"/>
</svg>
