<svg width="21" height="17" viewBox="0 0 21 17" fill="none" xmlns="http://www.w3.org/2000/svg">
<path fill-rule="evenodd" clip-rule="evenodd" d="M11.8611 10.9684C12.0487 10.8557 12.2979 10.6469 12.2979 10.1291C12.2979 9.76139 12.0059 9.54087 11.3822 9.31274V11.1509C11.5642 11.1032 11.7316 11.0465 11.8611 10.9684Z" fill="#7F8592"/>
<path fill-rule="evenodd" clip-rule="evenodd" d="M10.5734 0.209229C5.22095 0.209229 0.866699 3.9304 0.866699 8.50461C0.866699 13.0788 5.22095 16.8 10.5734 16.8C15.9258 16.8 20.28 13.0788 20.28 8.50461C20.28 3.9304 15.9258 0.209229 10.5734 0.209229ZM13.9157 10.1298C13.9157 11.2006 13.3042 11.7923 12.7905 12.1007C12.3885 12.3419 11.904 12.4857 11.3823 12.5687V14.0349H9.76447V12.6267C8.83344 12.5666 7.88381 12.3772 7.06279 12.1242L6.30243 11.8898L6.85167 10.5895L7.61283 10.8246C8.35701 11.0541 9.09633 11.1909 9.76447 11.2435V8.81776C8.47915 8.42373 7.05308 7.80849 7.05308 6.24481C7.05308 5.46505 7.47613 4.82146 8.24538 4.43296C8.6838 4.21175 9.21119 4.09216 9.76447 4.03617V2.97436H11.3823V4.04654C12.3343 4.14124 13.2063 4.36452 13.6924 4.59403L14.4018 4.92654L13.6229 6.13835L12.9143 5.80516C12.564 5.64063 11.9922 5.50652 11.3823 5.43394V7.82854C12.6182 8.20183 13.9157 8.74241 13.9157 10.1298Z" fill="#7F8592"/>
<path fill-rule="evenodd" clip-rule="evenodd" d="M9.06968 5.62404C8.79061 5.76506 8.6709 5.95033 8.6709 6.24481C8.6709 6.76811 9.01791 7.05361 9.76452 7.33082V5.43256C9.4992 5.47196 9.25492 5.53003 9.06968 5.62404Z" fill="#7F8592"/>
</svg>
