<svg width="40" height="16" viewBox="0 0 40 16" fill="none" xmlns="http://www.w3.org/2000/svg">
<path fill-rule="evenodd" clip-rule="evenodd" d="M37.0143 5.92268L26.4168 5.28945L21.683 1.3436C21.4029 1.14809 20.8923 1.02808 20.3405 1.02808C19.7887 1.02808 19.2781 1.14809 18.998 1.3436L14.2553 5.28945L3.65773 5.92268C3.09396 5.95614 2.62526 6.11829 2.44867 6.34096C2.27207 6.56364 2.41819 6.80823 2.82561 6.97191L10.4958 10.0451L8.68636 14.3854C8.59016 14.6163 8.82103 14.8496 9.2819 14.9873C9.74278 15.1249 10.3538 15.1431 10.8579 15.0341L20.336 12.9854L29.8141 15.0341C30.3183 15.1431 30.9292 15.1249 31.3901 14.9873C31.851 14.8496 32.0819 14.6163 31.9857 14.3854L30.1763 10.0451L37.8464 6.97191C38.2537 6.80839 38.4001 6.56403 38.2242 6.34143C38.0483 6.11882 37.5805 5.95652 37.0173 5.92268H37.0143Z" fill="#FA7268"/>
</svg>
