<svg width="28" height="18" viewBox="0 0 28 18" fill="none" xmlns="http://www.w3.org/2000/svg">
<path fill-rule="evenodd" clip-rule="evenodd" d="M25.4835 6.63367L18.2326 5.97706L14.9936 1.88552C14.802 1.6828 14.4527 1.55835 14.0751 1.55835C13.6976 1.55835 13.3482 1.6828 13.1566 1.88552L9.91152 5.97706L2.66058 6.63367C2.27484 6.66837 1.95415 6.83651 1.83332 7.0674C1.71249 7.2983 1.81247 7.55192 2.09123 7.72165L7.33923 10.9083L6.10122 15.4089C6.0354 15.6483 6.19336 15.8902 6.5087 16.033C6.82404 16.1757 7.24207 16.1945 7.58704 16.0815L14.072 13.9572L20.557 16.0815C20.902 16.1945 21.32 16.1757 21.6354 16.033C21.9507 15.8902 22.1087 15.6483 22.0429 15.4089L20.8048 10.9083L26.0528 7.72165C26.3315 7.55209 26.4317 7.29871 26.3114 7.06788C26.191 6.83706 25.8709 6.66877 25.4855 6.63367H25.4835Z" fill="#FA7268"/>
</svg>
