<svg width="25" height="16" viewBox="0 0 25 16" fill="none" xmlns="http://www.w3.org/2000/svg">
<path fill-rule="evenodd" clip-rule="evenodd" d="M14.2092 10.376C14.4435 10.2673 14.7546 10.066 14.7546 9.56663C14.7546 9.21196 14.39 8.9993 13.6113 8.7793V10.552C13.8386 10.506 14.0476 10.4513 14.2092 10.376Z" fill="#7F8592"/>
<path fill-rule="evenodd" clip-rule="evenodd" d="M12.6013 0C5.91834 0 0.481689 3.58867 0.481689 8C0.481689 12.4113 5.91834 16 12.6013 16C19.2842 16 24.7209 12.4113 24.7209 8C24.7209 3.58867 19.2842 0 12.6013 0ZM16.7745 9.56733C16.7745 10.6 16.0109 11.1707 15.3696 11.468C14.8677 11.7007 14.2627 11.8393 13.6113 11.9193V13.3333H11.5913V11.9753C10.4289 11.9173 9.24315 11.7347 8.21803 11.4907L7.26867 11.2647L7.95443 10.0107L8.90481 10.2373C9.83398 10.4587 10.7571 10.5907 11.5913 10.6413V8.302C9.98649 7.922 8.20591 7.32867 8.20591 5.82067C8.20591 5.06867 8.73413 4.448 9.69461 4.07333C10.242 3.86 10.9005 3.74467 11.5913 3.69067V2.66667H13.6113V3.70067C14.8 3.792 15.8887 4.00733 16.4957 4.22867L17.3815 4.54933L16.4089 5.718L15.5241 5.39667C15.0868 5.238 14.3728 5.10867 13.6113 5.03867V7.348C15.1545 7.708 16.7745 8.22933 16.7745 9.56733Z" fill="#7F8592"/>
<path fill-rule="evenodd" clip-rule="evenodd" d="M10.7237 5.22202C10.3753 5.35802 10.2258 5.53669 10.2258 5.82069C10.2258 6.32535 10.6591 6.60069 11.5913 6.86802V5.03735C11.26 5.07535 10.955 5.13135 10.7237 5.22202Z" fill="#7F8592"/>
</svg>
