<svg width="23" height="21" viewBox="0 0 23 21" fill="none" xmlns="http://www.w3.org/2000/svg">
<path fill-rule="evenodd" clip-rule="evenodd" d="M15.7995 0.833313C19.3617 0.833313 22.2724 3.45641 22.2724 6.66665C22.2724 8.01895 21.6612 9.52124 20.5474 11.1637C19.6382 12.5044 18.4111 13.912 16.9435 15.3547C15.8104 16.4688 14.5988 17.5408 13.3874 18.5333C12.9633 18.8807 12.5692 19.1937 12.2149 19.4673C12.0008 19.6327 11.8464 19.7491 11.7616 19.8116L11.1761 20.2434L10.5905 19.8116C10.5057 19.7491 10.3513 19.6327 10.1372 19.4673C9.78292 19.1937 9.3888 18.8807 8.96472 18.5333C7.75329 17.5408 6.54176 16.4688 5.40859 15.3547C3.94105 13.912 2.71387 12.5044 1.8047 11.1637C0.69094 9.52124 0.0797119 8.01895 0.0797119 6.66665C0.0797119 3.45641 2.99039 0.833313 6.55258 0.833313C8.32508 0.833313 9.96282 1.49201 11.1761 2.60906C12.3893 1.49201 14.027 0.833313 15.7995 0.833313Z" fill="#1B2749"/>
</svg>
