<svg width="21" height="17" viewBox="0 0 21 17" fill="none" xmlns="http://www.w3.org/2000/svg">
<path fill-rule="evenodd" clip-rule="evenodd" d="M18.8943 6.46442L13.6071 5.80781L11.2454 1.71627C11.1057 1.51355 10.851 1.3891 10.5757 1.3891C10.3004 1.3891 10.0456 1.51355 9.9059 1.71627L7.53972 5.80781L2.25257 6.46442C1.9713 6.49912 1.73747 6.66726 1.64936 6.89815C1.56126 7.12905 1.63416 7.38267 1.83742 7.5524L5.66409 10.7391L4.76137 15.2397C4.71337 15.4791 4.82856 15.721 5.05849 15.8637C5.28842 16.0064 5.59324 16.0253 5.84478 15.9122L10.5734 13.788L15.3021 15.9122C15.5536 16.0253 15.8584 16.0064 16.0884 15.8637C16.3183 15.721 16.4335 15.4791 16.3855 15.2397L15.4828 10.7391L19.3094 7.5524C19.5126 7.38284 19.5857 7.12946 19.4979 6.89863C19.4102 6.66781 19.1768 6.49952 18.8958 6.46442H18.8943Z" fill="#FA7268"/>
</svg>
