<svg width="40" height="16" viewBox="0 0 40 16" fill="none" xmlns="http://www.w3.org/2000/svg">
<path fill-rule="evenodd" clip-rule="evenodd" d="M22.9171 10.376C23.2933 10.2674 23.7926 10.066 23.7926 9.56669C23.7926 9.21202 23.2073 8.99936 21.9573 8.77936V10.552C22.3221 10.506 22.6577 10.4514 22.9171 10.376Z" fill="#7F8592"/>
<path fill-rule="evenodd" clip-rule="evenodd" d="M20.336 0C9.60764 0 0.880005 3.58867 0.880005 8C0.880005 12.4113 9.60764 16 20.336 16C31.0644 16 39.792 12.4113 39.792 8C39.792 3.58867 31.0644 0 20.336 0ZM27.0353 9.56733C27.0353 10.6 25.8096 11.1707 24.7801 11.468C23.9743 11.7007 23.0031 11.8393 21.9573 11.9193V13.3333H18.7147V11.9753C16.8485 11.9173 14.9451 11.7347 13.2994 11.4907L11.7754 11.2647L12.8762 10.0107L14.4019 10.2373C15.8935 10.4587 17.3754 10.5907 18.7147 10.6413V8.302C16.1384 7.922 13.28 7.32867 13.28 5.82067C13.28 5.06867 14.1279 4.448 15.6698 4.07333C16.5486 3.86 17.6057 3.74467 18.7147 3.69067V2.66667H21.9573V3.70067C23.8656 3.792 25.6134 4.00733 26.5879 4.22867L28.0098 4.54933L26.4484 5.718L25.0281 5.39667C24.3261 5.238 23.1798 5.10867 21.9573 5.03867V7.348C24.4347 7.708 27.0353 8.22933 27.0353 9.56733Z" fill="#7F8592"/>
<path fill-rule="evenodd" clip-rule="evenodd" d="M17.3219 5.22202C16.7625 5.35802 16.5226 5.53669 16.5226 5.82069C16.5226 6.32535 17.2181 6.60069 18.7146 6.86802V5.03735C18.1828 5.07535 17.6932 5.13135 17.3219 5.22202Z" fill="#7F8592"/>
</svg>
