<svg width="25" height="16" viewBox="0 0 25 16" fill="none" xmlns="http://www.w3.org/2000/svg">
<path fill-rule="evenodd" clip-rule="evenodd" d="M22.6622 5.92268L16.0607 5.28945L13.1119 1.3436C12.9375 1.14809 12.6194 1.02808 12.2757 1.02808C11.932 1.02808 11.6139 1.14809 11.4394 1.3436L8.48504 5.28945L1.88359 5.92268C1.53241 5.95614 1.24044 6.11829 1.13044 6.34096C1.02043 6.56364 1.11145 6.80823 1.36524 6.97191L6.14316 10.0451L5.01604 14.3854C4.95612 14.6163 5.09993 14.8496 5.38702 14.9873C5.67411 15.1249 6.0547 15.1431 6.36877 15.0341L12.2729 12.9854L18.177 15.0341C18.4911 15.1431 18.8717 15.1249 19.1587 14.9873C19.4458 14.8496 19.5897 14.6163 19.5297 14.3854L18.4026 10.0451L23.1805 6.97191C23.4342 6.80839 23.5255 6.56403 23.4159 6.34143C23.3063 6.11882 23.0149 5.95652 22.664 5.92268H22.6622Z" fill="#FA7268"/>
</svg>
