<svg width="18" height="16" viewBox="0 0 18 16" fill="none" xmlns="http://www.w3.org/2000/svg">
<path fill-rule="evenodd" clip-rule="evenodd" d="M16.1817 5.92268L11.5337 5.28945L9.45747 1.3436C9.33466 1.14809 9.11069 1.02808 8.86867 1.02808C8.62665 1.02808 8.40269 1.14809 8.27987 1.3436L6.19971 5.28945L1.55167 5.92268C1.3044 5.95614 1.09883 6.11829 1.02138 6.34096C0.943922 6.56364 1.00801 6.80823 1.1867 6.97191L4.55081 10.0451L3.75721 14.3854C3.71501 14.6163 3.81627 14.8496 4.01841 14.9873C4.22055 15.1249 4.48852 15.1431 4.70966 15.0341L8.8667 12.9854L13.0238 15.0341C13.2449 15.1431 13.5129 15.1249 13.715 14.9873C13.9171 14.8496 14.0184 14.6163 13.9762 14.3854L13.1826 10.0451L16.5467 6.97191C16.7253 6.80839 16.7896 6.56403 16.7124 6.34143C16.6353 6.11882 16.4301 5.95652 16.1831 5.92268H16.1817Z" fill="#FA7268"/>
</svg>
