<svg width="30" height="17" viewBox="0 0 30 17" fill="none" xmlns="http://www.w3.org/2000/svg">
<path fill-rule="evenodd" clip-rule="evenodd" d="M16.7003 10.9683C16.9804 10.8557 17.3522 10.6469 17.3522 10.1291C17.3522 9.76136 16.9164 9.54084 15.9857 9.31271V11.1508C16.2573 11.1031 16.5072 11.0464 16.7003 10.9683Z" fill="#7F8592"/>
<path fill-rule="evenodd" clip-rule="evenodd" d="M14.7787 0.209229C6.79121 0.209229 0.293335 3.9304 0.293335 8.50461C0.293335 13.0788 6.79121 16.8 14.7787 16.8C22.7661 16.8 29.264 13.0788 29.264 8.50461C29.264 3.9304 22.7661 0.209229 14.7787 0.209229ZM19.7664 10.1298C19.7664 11.2006 18.8539 11.7924 18.0874 12.1007C17.4874 12.3419 16.7644 12.4857 15.9858 12.5687V14.0349H13.5716V12.6267C12.1822 12.5666 10.765 12.3772 9.5398 12.1242L8.40512 11.8898L9.22475 10.5895L10.3606 10.8246C11.4712 11.0541 12.5745 11.1909 13.5716 11.2435V8.81776C11.6535 8.42373 9.52532 7.80849 9.52532 6.24481C9.52532 5.46505 10.1566 4.82146 11.3046 4.43296C11.9589 4.21175 12.7459 4.09216 13.5716 4.03617V2.97436H15.9858V4.04654C17.4065 4.14124 18.7078 4.36452 19.4333 4.59403L20.4919 4.92654L19.3295 6.13835L18.272 5.80516C17.7494 5.64063 16.8959 5.50652 15.9858 5.43394V7.82854C17.8302 8.20183 19.7664 8.74241 19.7664 10.1298Z" fill="#7F8592"/>
<path fill-rule="evenodd" clip-rule="evenodd" d="M12.5347 5.62404C12.1182 5.76506 11.9396 5.95033 11.9396 6.24481C11.9396 6.76811 12.4574 7.05361 13.5716 7.33082V5.43256C13.1757 5.47196 12.8111 5.53003 12.5347 5.62404Z" fill="#7F8592"/>
</svg>
