<svg width="19" height="16" viewBox="0 0 19 16" fill="none" xmlns="http://www.w3.org/2000/svg">
<path fill-rule="evenodd" clip-rule="evenodd" d="M17.4104 5.92268L12.5752 5.28945L10.4153 1.3436C10.2875 1.14809 10.0546 1.02808 9.80278 1.02808C9.55102 1.02808 9.31803 1.14809 9.19027 1.3436L7.02631 5.28945L2.19103 5.92268C1.9338 5.95614 1.71995 6.11829 1.63938 6.34096C1.5588 6.56364 1.62548 6.80823 1.81137 6.97191L5.31098 10.0451L4.48541 14.3854C4.44152 14.6163 4.54686 14.8496 4.75714 14.9873C4.96742 15.1249 5.24619 15.1431 5.47623 15.0341L9.80074 12.9854L14.1252 15.0341C14.3553 15.1431 14.634 15.1249 14.8443 14.9873C15.0546 14.8496 15.1599 14.6163 15.1161 14.3854L14.2905 10.0451L17.7901 6.97191C17.9759 6.80839 18.0428 6.56403 17.9625 6.34143C17.8822 6.11882 17.6688 5.95652 17.4118 5.92268H17.4104Z" fill="#FA7268"/>
</svg>
