<svg width="26" height="16" viewBox="0 0 26 16" fill="none" xmlns="http://www.w3.org/2000/svg">
<path fill-rule="evenodd" clip-rule="evenodd" d="M14.5043 10.376C14.7406 10.2673 15.0544 10.066 15.0544 9.56663C15.0544 9.21196 14.6866 8.9993 13.9011 8.7793V10.552C14.1304 10.506 14.3413 10.4513 14.5043 10.376Z" fill="#7F8592"/>
<path fill-rule="evenodd" clip-rule="evenodd" d="M12.8823 0C6.14071 0 0.656372 3.58867 0.656372 8C0.656372 12.4113 6.14071 16 12.8823 16C19.6239 16 25.1082 12.4113 25.1082 8C25.1082 3.58867 19.6239 0 12.8823 0ZM17.0921 9.56733C17.0921 10.6 16.3218 11.1707 15.6749 11.468C15.1685 11.7007 14.5583 11.8393 13.9011 11.9193V13.3333H11.8635V11.9753C10.6908 11.9173 9.49469 11.7347 8.46058 11.4907L7.50288 11.2647L8.19467 10.0107L9.15338 10.2373C10.0907 10.4587 11.0219 10.5907 11.8635 10.6413V8.302C10.2445 7.922 8.44835 7.32867 8.44835 5.82067C8.44835 5.06867 8.9812 4.448 9.9501 4.07333C10.5023 3.86 11.1666 3.74467 11.8635 3.69067V2.66667H13.9011V3.70067C15.1003 3.792 16.1986 4.00733 16.8109 4.22867L17.7044 4.54933L16.7233 5.718L15.8308 5.39667C15.3896 5.238 14.6693 5.10867 13.9011 5.03867V7.348C15.4579 7.708 17.0921 8.22933 17.0921 9.56733Z" fill="#7F8592"/>
<path fill-rule="evenodd" clip-rule="evenodd" d="M10.9882 5.22202C10.6367 5.35802 10.486 5.53669 10.486 5.82069C10.486 6.32535 10.923 6.60069 11.8634 6.86802V5.03735C11.5292 5.07535 11.2216 5.13135 10.9882 5.22202Z" fill="#7F8592"/>
</svg>
