<svg width="21" height="17" viewBox="0 0 21 17" fill="none" xmlns="http://www.w3.org/2000/svg">
<path fill-rule="evenodd" clip-rule="evenodd" d="M18.8943 6.46439L13.6071 5.80778L11.2454 1.71624C11.1057 1.51352 10.851 1.38907 10.5757 1.38907C10.3004 1.38907 10.0456 1.51352 9.9059 1.71624L7.53972 5.80778L2.25257 6.46439C1.9713 6.49909 1.73747 6.66723 1.64936 6.89812C1.56126 7.12902 1.63416 7.38264 1.83742 7.55237L5.66409 10.7391L4.76137 15.2396C4.71337 15.479 4.82856 15.7209 5.05849 15.8637C5.28842 16.0064 5.59324 16.0252 5.84478 15.9122L10.5734 13.7879L15.3021 15.9122C15.5536 16.0252 15.8584 16.0064 16.0884 15.8637C16.3183 15.7209 16.4335 15.479 16.3855 15.2396L15.4828 10.7391L19.3094 7.55237C19.5126 7.38281 19.5857 7.12943 19.4979 6.8986C19.4102 6.66778 19.1768 6.49949 18.8958 6.46439H18.8943Z" fill="#FA7268"/>
</svg>
