<svg width="18" height="16" viewBox="0 0 18 16" fill="none" xmlns="http://www.w3.org/2000/svg">
<path fill-rule="evenodd" clip-rule="evenodd" d="M10.2541 10.376C10.4257 10.2674 10.6536 10.066 10.6536 9.56669C10.6536 9.21202 10.3865 8.99936 9.81616 8.77936V10.552C9.98261 10.506 10.1357 10.4514 10.2541 10.376Z" fill="#7F8592"/>
<path fill-rule="evenodd" clip-rule="evenodd" d="M9.07642 0C4.18145 0 0.199341 3.58867 0.199341 8C0.199341 12.4113 4.18145 16 9.07642 16C13.9714 16 17.9535 12.4113 17.9535 8C17.9535 3.58867 13.9714 0 9.07642 0ZM12.1331 9.56733C12.1331 10.6 11.5738 11.1707 11.1041 11.468C10.7364 11.7007 10.2933 11.8393 9.81617 11.9193V13.3333H8.33666V11.9753C7.4852 11.9173 6.61673 11.7347 5.86587 11.4907L5.1705 11.2647L5.6728 10.0107L6.36891 10.2373C7.04948 10.4587 7.72562 10.5907 8.33666 10.6413V8.302C7.16119 7.922 5.857 7.32867 5.857 5.82067C5.857 5.06867 6.24389 4.448 6.9474 4.07333C7.34835 3.86 7.83067 3.74467 8.33666 3.69067V2.66667H9.81617V3.70067C10.6869 3.792 11.4843 4.00733 11.9289 4.22867L12.5777 4.54933L11.8653 5.718L11.2173 5.39667C10.897 5.238 10.3739 5.10867 9.81617 5.03867V7.348C10.9465 7.708 12.1331 8.22933 12.1331 9.56733Z" fill="#7F8592"/>
<path fill-rule="evenodd" clip-rule="evenodd" d="M7.70125 5.22202C7.44603 5.35802 7.33655 5.53669 7.33655 5.82069C7.33655 6.32535 7.6539 6.60069 8.3367 6.86802V5.03735C8.09406 5.07535 7.87065 5.13135 7.70125 5.22202Z" fill="#7F8592"/>
</svg>
