<svg width="16" height="16" viewBox="0 0 16 16" fill="none" xmlns="http://www.w3.org/2000/svg">
<path fill-rule="evenodd" clip-rule="evenodd" d="M14.8578 5.92268L10.5003 5.28945L8.5538 1.3436C8.43866 1.14809 8.2287 1.02808 8.0018 1.02808C7.77491 1.02808 7.56495 1.14809 7.4498 1.3436L5.49965 5.28945L1.14211 5.92268C0.9103 5.95614 0.717578 6.11829 0.644964 6.34096C0.57235 6.56364 0.632434 6.80823 0.799958 6.97191L3.9538 10.0451L3.2098 14.3854C3.17025 14.6163 3.26518 14.8496 3.45468 14.9873C3.64419 15.1249 3.89541 15.1431 4.10273 15.0341L7.99996 12.9854L11.8972 15.0341C12.1045 15.1431 12.3557 15.1249 12.5452 14.9873C12.7347 14.8496 12.8297 14.6163 12.7901 14.3854L12.0461 10.0451L15.2 6.97191C15.3674 6.80839 15.4276 6.56403 15.3553 6.34143C15.283 6.11882 15.0906 5.95652 14.859 5.92268H14.8578Z" fill="#1B2749"/>
</svg>
