<svg width="32" height="21" viewBox="0 0 32 21" fill="none" xmlns="http://www.w3.org/2000/svg">
<path fill-rule="evenodd" clip-rule="evenodd" d="M22.0938 0.833313C26.9998 0.833313 31.0085 3.45641 31.0085 6.66665C31.0085 8.01895 30.1667 9.52124 28.6328 11.1637C27.3806 12.5044 25.6905 13.912 23.6693 15.3547C22.1087 16.4688 20.4401 17.5408 18.7717 18.5333C18.1876 18.8807 17.6448 19.1937 17.1569 19.4673C16.862 19.6327 16.6493 19.7491 16.5326 19.8116L15.7261 20.2434L14.9197 19.8116C14.8029 19.7491 14.5903 19.6327 14.2954 19.4673C13.8074 19.1937 13.2646 18.8807 12.6806 18.5333C11.0121 17.5408 9.34355 16.4688 7.7829 15.3547C5.76173 13.912 4.07161 12.5044 2.81946 11.1637C1.28554 9.52124 0.443726 8.01895 0.443726 6.66665C0.443726 3.45641 4.45244 0.833313 9.35845 0.833313C11.7996 0.833313 14.0552 1.49201 15.7261 2.60906C17.3971 1.49201 19.6526 0.833313 22.0938 0.833313Z" fill="#1B2749"/>
</svg>
