<svg width="40" height="16" viewBox="0 0 40 16" fill="none" xmlns="http://www.w3.org/2000/svg">
<path fill-rule="evenodd" clip-rule="evenodd" d="M22.6973 10.376C23.0767 10.2674 23.5805 10.066 23.5805 9.56669C23.5805 9.21202 22.99 8.99936 21.729 8.77936V10.552C22.097 10.506 22.4356 10.4514 22.6973 10.376Z" fill="#7F8592"/>
<path fill-rule="evenodd" clip-rule="evenodd" d="M20.0935 0C9.27099 0 0.466797 3.58867 0.466797 8C0.466797 12.4113 9.27099 16 20.0935 16C30.9159 16 39.7201 12.4113 39.7201 8C39.7201 3.58867 30.9159 0 20.0935 0ZM26.8516 9.56733C26.8516 10.6 25.6151 11.1707 24.5765 11.468C23.7636 11.7007 22.7839 11.8393 21.729 11.9193V13.3333H18.4579V11.9753C16.5754 11.9173 14.6552 11.7347 12.9951 11.4907L11.4577 11.2647L12.5683 10.0107L14.1073 10.2373C15.612 10.4587 17.1069 10.5907 18.4579 10.6413V8.302C15.859 7.922 12.9755 7.32867 12.9755 5.82067C12.9755 5.06867 13.8309 4.448 15.3863 4.07333C16.2728 3.86 17.3392 3.74467 18.4579 3.69067V2.66667H21.729V3.70067C23.6541 3.792 25.4172 4.00733 26.4002 4.22867L27.8345 4.54933L26.2595 5.718L24.8268 5.39667C24.1186 5.238 22.9622 5.10867 21.729 5.03867V7.348C24.2281 7.708 26.8516 8.22933 26.8516 9.56733Z" fill="#7F8592"/>
<path fill-rule="evenodd" clip-rule="evenodd" d="M17.0529 5.22202C16.4886 5.35802 16.2466 5.53669 16.2466 5.82069C16.2466 6.32535 16.9482 6.60069 18.4579 6.86802V5.03735C17.9214 5.07535 17.4275 5.13135 17.0529 5.22202Z" fill="#7F8592"/>
</svg>
