<svg width="40" height="16" viewBox="0 0 40 16" fill="none" xmlns="http://www.w3.org/2000/svg">
<path fill-rule="evenodd" clip-rule="evenodd" d="M36.918 5.92268L26.2275 5.28945L21.4522 1.3436C21.1697 1.14809 20.6546 1.02808 20.098 1.02808C19.5413 1.02808 19.0262 1.14809 18.7437 1.3436L13.9593 5.28945L3.26884 5.92268C2.70012 5.95614 2.22731 6.11829 2.04917 6.34096C1.87102 6.56364 2.01843 6.80823 2.42942 6.97191L10.1669 10.0451L8.34157 14.3854C8.24453 14.6163 8.47742 14.8496 8.94235 14.9873C9.40727 15.1249 10.0236 15.1431 10.5322 15.0341L20.0934 12.9854L29.6546 15.0341C30.1632 15.1431 30.7796 15.1249 31.2445 14.9873C31.7094 14.8496 31.9423 14.6163 31.8453 14.3854L30.02 10.0451L37.7574 6.97191C38.1683 6.80839 38.316 6.56403 38.1386 6.34143C37.9611 6.11882 37.4892 5.95652 36.921 5.92268H36.918Z" fill="#FA7268"/>
</svg>
