<svg width="18" height="16" viewBox="0 0 18 16" fill="none" xmlns="http://www.w3.org/2000/svg">
<path fill-rule="evenodd" clip-rule="evenodd" d="M10.0749 10.376C10.2465 10.2674 10.4744 10.066 10.4744 9.56669C10.4744 9.21202 10.2073 8.99936 9.63696 8.77936V10.552C9.80341 10.506 9.95654 10.4514 10.0749 10.376Z" fill="#7F8592"/>
<path fill-rule="evenodd" clip-rule="evenodd" d="M8.89722 0C4.00225 0 0.0201416 3.58867 0.0201416 8C0.0201416 12.4113 4.00225 16 8.89722 16C13.7922 16 17.7743 12.4113 17.7743 8C17.7743 3.58867 13.7922 0 8.89722 0ZM11.9539 9.56733C11.9539 10.6 11.3946 11.1707 10.9249 11.468C10.5572 11.7007 10.1141 11.8393 9.63697 11.9193V13.3333H8.15746V11.9753C7.306 11.9173 6.43753 11.7347 5.68667 11.4907L4.9913 11.2647L5.4936 10.0107L6.18971 10.2373C6.87029 10.4587 7.54642 10.5907 8.15746 10.6413V8.302C6.98199 7.922 5.6778 7.32867 5.6778 5.82067C5.6778 5.06867 6.06469 4.448 6.7682 4.07333C7.16915 3.86 7.65147 3.74467 8.15746 3.69067V2.66667H9.63697V3.70067C10.5077 3.792 11.3051 4.00733 11.7497 4.22867L12.3985 4.54933L11.6861 5.718L11.0381 5.39667C10.7178 5.238 10.1948 5.10867 9.63697 5.03867V7.348C10.7673 7.708 11.9539 8.22933 11.9539 9.56733Z" fill="#7F8592"/>
<path fill-rule="evenodd" clip-rule="evenodd" d="M7.52205 5.22202C7.26683 5.35802 7.15735 5.53669 7.15735 5.82069C7.15735 6.32535 7.4747 6.60069 8.1575 6.86802V5.03735C7.91486 5.07535 7.69145 5.13135 7.52205 5.22202Z" fill="#7F8592"/>
</svg>
