<svg width="24" height="21" viewBox="0 0 24 21" fill="none" xmlns="http://www.w3.org/2000/svg">
<path fill-rule="evenodd" clip-rule="evenodd" d="M16.6203 0.833313C20.1825 0.833313 23.0932 3.45641 23.0932 6.66665C23.0932 8.01895 22.482 9.52124 21.3682 11.1637C20.459 12.5044 19.2319 13.912 17.7643 15.3547C16.6312 16.4688 15.4196 17.5408 14.2082 18.5333C13.7841 18.8807 13.39 19.1937 13.0357 19.4673C12.8216 19.6327 12.6672 19.7491 12.5824 19.8116L11.9969 20.2434L11.4113 19.8116C11.3265 19.7491 11.1721 19.6327 10.958 19.4673C10.6037 19.1937 10.2096 18.8807 9.78552 18.5333C8.57409 17.5408 7.36256 16.4688 6.22939 15.3547C4.76185 13.912 3.53467 12.5044 2.6255 11.1637C1.51174 9.52124 0.900513 8.01895 0.900513 6.66665C0.900513 3.45641 3.81119 0.833313 7.37338 0.833313C9.14588 0.833313 10.7836 1.49201 11.9969 2.60906C13.2101 1.49201 14.8478 0.833313 16.6203 0.833313Z" fill="#1B2749"/>
</svg>
