<svg width="26" height="16" viewBox="0 0 26 16" fill="none" xmlns="http://www.w3.org/2000/svg">
<path fill-rule="evenodd" clip-rule="evenodd" d="M14.6931 10.376C14.9414 10.2674 15.2711 10.066 15.2711 9.56669C15.2711 9.21202 14.8847 8.99936 14.0596 8.77936V10.552C14.3004 10.506 14.5219 10.4514 14.6931 10.376Z" fill="#7F8592"/>
<path fill-rule="evenodd" clip-rule="evenodd" d="M12.9894 0C5.90773 0 0.146729 3.58867 0.146729 8C0.146729 12.4113 5.90773 16 12.9894 16C20.071 16 25.8321 12.4113 25.8321 8C25.8321 3.58867 20.071 0 12.9894 0ZM17.4115 9.56733C17.4115 10.6 16.6025 11.1707 15.9229 11.468C15.391 11.7007 14.7499 11.8393 14.0596 11.9193V13.3333H11.9192V11.9753C10.6873 11.9173 9.4309 11.7347 8.34463 11.4907L7.33862 11.2647L8.0653 10.0107L9.07238 10.2373C10.057 10.4587 11.0352 10.5907 11.9192 10.6413V8.302C10.2186 7.922 8.33179 7.32867 8.33179 5.82067C8.33179 5.06867 8.89151 4.448 9.90929 4.07333C10.4894 3.86 11.1871 3.74467 11.9192 3.69067V2.66667H14.0596V3.70067C15.3193 3.792 16.473 4.00733 17.1162 4.22867L18.0548 4.54933L17.0241 5.718L16.0866 5.39667C15.6232 5.238 14.8666 5.10867 14.0596 5.03867V7.348C15.6949 7.708 17.4115 8.22933 17.4115 9.56733Z" fill="#7F8592"/>
<path fill-rule="evenodd" clip-rule="evenodd" d="M10.9998 5.22202C10.6306 5.35802 10.4722 5.53669 10.4722 5.82069C10.4722 6.32535 10.9313 6.60069 11.9191 6.86802V5.03735C11.5681 5.07535 11.2449 5.13135 10.9998 5.22202Z" fill="#7F8592"/>
</svg>
