<svg width="25" height="16" viewBox="0 0 25 16" fill="none" xmlns="http://www.w3.org/2000/svg">
<path fill-rule="evenodd" clip-rule="evenodd" d="M22.8411 5.92268L16.2397 5.28945L13.2909 1.3436C13.1165 1.14809 12.7984 1.02808 12.4546 1.02808C12.1109 1.02808 11.7928 1.14809 11.6184 1.3436L8.664 5.28945L2.06255 5.92268C1.71136 5.95614 1.4194 6.11829 1.30939 6.34096C1.19938 6.56364 1.29041 6.80823 1.5442 6.97191L6.32212 10.0451L5.195 14.3854C5.13507 14.6163 5.27888 14.8496 5.56598 14.9873C5.85307 15.1249 6.23365 15.1431 6.54773 15.0341L12.4518 12.9854L18.356 15.0341C18.67 15.1431 19.0506 15.1249 19.3377 14.9873C19.6248 14.8496 19.7686 14.6163 19.7087 14.3854L18.5816 10.0451L23.3595 6.97191C23.6132 6.80839 23.7044 6.56403 23.5948 6.34143C23.4853 6.11882 23.1939 5.95652 22.843 5.92268H22.8411Z" fill="#FA7268"/>
</svg>
