<svg width="26" height="16" viewBox="0 0 26 16" fill="none" xmlns="http://www.w3.org/2000/svg">
<path fill-rule="evenodd" clip-rule="evenodd" d="M14.5355 10.376C14.7719 10.2673 15.0857 10.066 15.0857 9.56663C15.0857 9.21196 14.7179 8.9993 13.9324 8.7793V10.552C14.1616 10.506 14.3725 10.4513 14.5355 10.376Z" fill="#7F8592"/>
<path fill-rule="evenodd" clip-rule="evenodd" d="M12.9137 0C6.17209 0 0.687744 3.58867 0.687744 8C0.687744 12.4113 6.17209 16 12.9137 16C19.6552 16 25.1396 12.4113 25.1396 8C25.1396 3.58867 19.6552 0 12.9137 0ZM17.1234 9.56733C17.1234 10.6 16.3532 11.1707 15.7063 11.468C15.1999 11.7007 14.5896 11.8393 13.9325 11.9193V13.3333H11.8948V11.9753C10.7222 11.9173 9.52606 11.7347 8.49195 11.4907L7.53426 11.2647L8.22604 10.0107L9.18475 10.2373C10.1221 10.4587 11.0533 10.5907 11.8948 10.6413V8.302C10.2759 7.922 8.47973 7.32867 8.47973 5.82067C8.47973 5.06867 9.01257 4.448 9.98148 4.07333C10.5337 3.86 11.198 3.74467 11.8948 3.69067V2.66667H13.9325V3.70067C15.1316 3.792 16.2299 4.00733 16.8422 4.22867L17.7358 4.54933L16.7546 5.718L15.8621 5.39667C15.421 5.238 14.7007 5.10867 13.9325 5.03867V7.348C15.4892 7.708 17.1234 8.22933 17.1234 9.56733Z" fill="#7F8592"/>
<path fill-rule="evenodd" clip-rule="evenodd" d="M11.0196 5.22202C10.6681 5.35802 10.5173 5.53669 10.5173 5.82069C10.5173 6.32535 10.9544 6.60069 11.8948 6.86802V5.03735C11.5606 5.07535 11.2529 5.13135 11.0196 5.22202Z" fill="#7F8592"/>
</svg>
