<svg width="25" height="16" viewBox="0 0 25 16" fill="none" xmlns="http://www.w3.org/2000/svg">
<path fill-rule="evenodd" clip-rule="evenodd" d="M23.0802 5.92268L16.4209 5.28945L13.4462 1.3436C13.2702 1.14809 12.9494 1.02808 12.6026 1.02808C12.2559 1.02808 11.935 1.14809 11.759 1.3436L8.77872 5.28945L2.11936 5.92268C1.7651 5.95614 1.47057 6.11829 1.3596 6.34096C1.24863 6.56364 1.34045 6.80823 1.59647 6.97191L6.4163 10.0451L5.27929 14.3854C5.21884 14.6163 5.36391 14.8496 5.65352 14.9873C5.94313 15.1249 6.32706 15.1431 6.64389 15.0341L12.5998 12.9854L18.5557 15.0341C18.8725 15.1431 19.2564 15.1249 19.5461 14.9873C19.8357 14.8496 19.9807 14.6163 19.9203 14.3854L18.7833 10.0451L23.6031 6.97191C23.8591 6.80839 23.9511 6.56403 23.8405 6.34143C23.73 6.11882 23.436 5.95652 23.0821 5.92268H23.0802Z" fill="#FA7268"/>
</svg>
