<svg width="31" height="21" viewBox="0 0 31 21" fill="none" xmlns="http://www.w3.org/2000/svg">
<path fill-rule="evenodd" clip-rule="evenodd" d="M21.6544 0.833313C26.5178 0.833313 30.4916 3.45641 30.4916 6.66665C30.4916 8.01895 29.6571 9.52124 28.1366 11.1637C26.8953 12.5044 25.2199 13.912 23.2163 15.3547C21.6692 16.4688 20.0151 17.5408 18.3612 18.5333C17.7822 18.8807 17.2441 19.1937 16.7604 19.4673C16.4681 19.6327 16.2573 19.7491 16.1416 19.8116L15.3421 20.2434L14.5427 19.8116C14.4269 19.7491 14.2162 19.6327 13.9238 19.4673C13.4401 19.1937 12.902 18.8807 12.3231 18.5333C10.6691 17.5408 9.01506 16.4688 7.46798 15.3547C5.46439 13.912 3.78897 12.5044 2.5477 11.1637C1.02712 9.52124 0.192627 8.01895 0.192627 6.66665C0.192627 3.45641 4.16649 0.833313 9.02984 0.833313C11.4498 0.833313 13.6857 1.49201 15.3421 2.60906C16.9985 1.49201 19.2345 0.833313 21.6544 0.833313Z" fill="#1B2749"/>
</svg>
