<svg width="84" height="84" viewBox="0 0 84 84" fill="none" xmlns="http://www.w3.org/2000/svg">
<path fill-rule="evenodd" clip-rule="evenodd" d="M23.3333 72.3333L23.329 72.3242L21.1939 68.1429L4.26832 35H0L19.0591 72.3242L19.0548 72.3333H19.0634H23.3231H23.3333Z" fill="#1B2749"/>
<path fill-rule="evenodd" clip-rule="evenodd" d="M39.6667 72.3333L39.6637 72.3242L37.5287 68.1429L35.3951 63.9646L33.2601 59.7863L31.1265 55.605L28.9901 51.4267L20.602 35H16.3334L26.8565 55.605L28.9901 59.7863L31.1265 63.9646L33.2601 68.1429L35.3951 72.3242L35.3895 72.3333H35.3995H39.6581H39.6667Z" fill="#1B2749"/>
<path fill-rule="evenodd" clip-rule="evenodd" d="M46.8619 68.1429L44.7269 63.9646L42.5933 59.7863L40.4597 55.605L38.3247 51.4267L36.1911 47.2484L34.0561 43.067L29.9352 35H25.6666L31.9211 47.2453L36.1911 55.605L38.3247 59.7863L40.4597 63.9646L42.5933 68.1429L44.7269 72.3242L44.7227 72.3333H44.7314H48.9927H49L48.9958 72.3242L46.8619 68.1429Z" fill="#1B2749"/>
<path fill-rule="evenodd" clip-rule="evenodd" d="M58.3333 11.6666H54.3183L39.6666 42.4512L41.6754 46.6666L58.3333 11.6666Z" fill="#FA7268"/>
<path fill-rule="evenodd" clip-rule="evenodd" d="M26.065 72.3333H30.3233H30.3333L30.3291 72.3242L28.1927 68.1429L26.0605 63.9646L23.9258 59.7863L11.2684 35H7L21.7909 63.9646L23.9258 68.1429L26.0605 72.3242L26.0549 72.3333H26.065Z" fill="#1B2749"/>
<path fill-rule="evenodd" clip-rule="evenodd" d="M46.4 53.6666L67.6667 11.6666H63.5374L44.3334 49.5873L44.3569 49.6318L46.4 53.6666Z" fill="#FA7268"/>
<path fill-rule="evenodd" clip-rule="evenodd" d="M48.7725 58.3333L74.6666 11.6666H70.4575L46.6666 54.5377L46.6876 54.5764L48.7725 58.3333Z" fill="#FA7268"/>
<path fill-rule="evenodd" clip-rule="evenodd" d="M84 11.6666H79.425L49 63.7487L49.0231 63.7917L51.2883 67.6666L84 11.6666Z" fill="#FA7268"/>
</svg>
