<svg width="85" height="84" viewBox="0 0 85 84" fill="none" xmlns="http://www.w3.org/2000/svg">
<g clip-path="url(#clip0_118_421)">
<path fill-rule="evenodd" clip-rule="evenodd" d="M23.3438 72.3333L23.3395 72.3242L21.2044 68.1429L4.27882 35H0.010498L19.0696 72.3242L19.0653 72.3333H19.0739H23.3336H23.3438Z" fill="#1B2749"/>
<path fill-rule="evenodd" clip-rule="evenodd" d="M39.6772 72.3333L39.6742 72.3242L37.5392 68.1429L35.4056 63.9646L33.2706 59.7863L31.137 55.605L29.0006 51.4267L20.6125 35H16.3439L26.867 55.605L29.0006 59.7863L31.137 63.9646L33.2706 68.1429L35.4056 72.3242L35.4 72.3333H35.41H39.6686H39.6772Z" fill="#1B2749"/>
<path fill-rule="evenodd" clip-rule="evenodd" d="M46.8724 68.1429L44.7374 63.9646L42.6038 59.7863L40.4702 55.605L38.3352 51.4267L36.2016 47.2484L34.0666 43.067L29.9457 35H25.6771L31.9316 47.2453L36.2016 55.605L38.3352 59.7863L40.4702 63.9646L42.6038 68.1429L44.7374 72.3242L44.7332 72.3333H44.7419H49.0032H49.0105L49.0063 72.3242L46.8724 68.1429Z" fill="#1B2749"/>
<path fill-rule="evenodd" clip-rule="evenodd" d="M58.3438 11.6667H54.3288L39.6771 42.4513L41.6859 46.6667L58.3438 11.6667Z" fill="#FA7268"/>
<path fill-rule="evenodd" clip-rule="evenodd" d="M26.0755 72.3333H30.3338H30.3438L30.3396 72.3242L28.2032 68.1429L26.071 63.9646L23.9363 59.7863L11.2789 35H7.0105L21.8014 63.9646L23.9363 68.1429L26.071 72.3242L26.0654 72.3333H26.0755Z" fill="#1B2749"/>
<path fill-rule="evenodd" clip-rule="evenodd" d="M46.4105 53.6667L67.6772 11.6667H63.5479L44.3439 49.5873L44.3674 49.6319L46.4105 53.6667Z" fill="#FA7268"/>
<path fill-rule="evenodd" clip-rule="evenodd" d="M48.783 58.3334L74.6771 11.6667H70.468L46.6771 54.5377L46.6981 54.5765L48.783 58.3334Z" fill="#FA7268"/>
<path fill-rule="evenodd" clip-rule="evenodd" d="M84.0105 11.6667H79.4355L49.0105 63.7488L49.0336 63.7917L51.2988 67.6667L84.0105 11.6667Z" fill="#FA7268"/>
</g>
<defs>
<clipPath id="clip0_118_421">
<rect width="84" height="84" fill="white" transform="translate(0.010498)"/>
</clipPath>
</defs>
</svg>
