<svg width="84" height="84" viewBox="0 0 84 84" fill="none" xmlns="http://www.w3.org/2000/svg">
<path fill-rule="evenodd" clip-rule="evenodd" d="M23.3333 72.3333L23.329 72.3242L21.1939 68.1429L4.26832 35H0L19.0591 72.3242L19.0548 72.3333H19.0634H23.3231H23.3333Z" fill="#1B2749"/>
<path fill-rule="evenodd" clip-rule="evenodd" d="M39.6666 72.3333L39.6636 72.3242L37.5286 68.1429L35.395 63.9646L33.26 59.7863L31.1264 55.605L28.99 51.4267L20.6019 35H16.3333L26.8564 55.605L28.99 59.7863L31.1264 63.9646L33.26 68.1429L35.395 72.3242L35.3894 72.3333H35.3994H39.658H39.6666Z" fill="#1B2749"/>
<path fill-rule="evenodd" clip-rule="evenodd" d="M46.862 68.1429L44.727 63.9646L42.5934 59.7863L40.4598 55.605L38.3248 51.4267L36.1912 47.2484L34.0562 43.067L29.9353 35H25.6667L31.9212 47.2453L36.1912 55.605L38.3248 59.7863L40.4598 63.9646L42.5934 68.1429L44.727 72.3242L44.7228 72.3333H44.7314H48.9928H49L48.9958 72.3242L46.862 68.1429Z" fill="#1B2749"/>
<path fill-rule="evenodd" clip-rule="evenodd" d="M58.3334 11.6667H54.3184L39.6667 42.4513L41.6755 46.6667L58.3334 11.6667Z" fill="#FA7268"/>
<path fill-rule="evenodd" clip-rule="evenodd" d="M26.065 72.3333H30.3233H30.3333L30.3291 72.3242L28.1927 68.1429L26.0605 63.9646L23.9258 59.7863L11.2684 35H7L21.7909 63.9646L23.9258 68.1429L26.0605 72.3242L26.0549 72.3333H26.065Z" fill="#1B2749"/>
<path fill-rule="evenodd" clip-rule="evenodd" d="M46.3999 53.6667L67.6666 11.6667H63.5373L44.3333 49.5873L44.3569 49.6319L46.3999 53.6667Z" fill="#FA7268"/>
<path fill-rule="evenodd" clip-rule="evenodd" d="M48.7725 58.3334L74.6667 11.6667H70.4576L46.6667 54.5377L46.6877 54.5765L48.7725 58.3334Z" fill="#FA7268"/>
<path fill-rule="evenodd" clip-rule="evenodd" d="M84 11.6667H79.425L49 63.7488L49.0231 63.7917L51.2883 67.6667L84 11.6667Z" fill="#FA7268"/>
</svg>
