<svg width="85" height="84" viewBox="0 0 85 84" fill="none" xmlns="http://www.w3.org/2000/svg">
<g clip-path="url(#clip0_118_421)">
<path fill-rule="evenodd" clip-rule="evenodd" d="M23.5428 72.3333L23.5385 72.3242L21.4034 68.1429L4.47779 35H0.209473L19.2686 72.3242L19.2642 72.3333H19.2729H23.5326H23.5428Z" fill="#1B2749"/>
<path fill-rule="evenodd" clip-rule="evenodd" d="M39.8762 72.3333L39.8731 72.3242L37.7381 68.1429L35.6045 63.9646L33.4695 59.7863L31.3359 55.605L29.1995 51.4267L20.8115 35H16.5428L27.0659 55.605L29.1995 59.7863L31.3359 63.9646L33.4695 68.1429L35.6045 72.3242L35.5989 72.3333H35.609H39.8675H39.8762Z" fill="#1B2749"/>
<path fill-rule="evenodd" clip-rule="evenodd" d="M47.0714 68.1429L44.9364 63.9646L42.8028 59.7863L40.6692 55.605L38.5342 51.4267L36.4006 47.2484L34.2656 43.067L30.1447 35H25.8761L32.1306 47.2453L36.4006 55.605L38.5342 59.7863L40.6692 63.9646L42.8028 68.1429L44.9364 72.3242L44.9322 72.3333H44.9408H49.2022H49.2094L49.2052 72.3242L47.0714 68.1429Z" fill="#1B2749"/>
<path fill-rule="evenodd" clip-rule="evenodd" d="M58.5428 11.6667H54.5278L39.8761 42.4513L41.8849 46.6667L58.5428 11.6667Z" fill="#FA7268"/>
<path fill-rule="evenodd" clip-rule="evenodd" d="M26.2744 72.3333H30.5328H30.5428L30.5386 72.3242L28.4022 68.1429L26.27 63.9646L24.1352 59.7863L11.4778 35H7.20947L22.0004 63.9646L24.1352 68.1429L26.27 72.3242L26.2644 72.3333H26.2744Z" fill="#1B2749"/>
<path fill-rule="evenodd" clip-rule="evenodd" d="M46.6095 53.6667L67.8762 11.6667H63.7469L44.5428 49.5873L44.5664 49.6319L46.6095 53.6667Z" fill="#FA7268"/>
<path fill-rule="evenodd" clip-rule="evenodd" d="M48.9819 58.3334L74.8761 11.6667H70.667L46.8761 54.5377L46.8971 54.5765L48.9819 58.3334Z" fill="#FA7268"/>
<path fill-rule="evenodd" clip-rule="evenodd" d="M84.2095 11.6667H79.6345L49.2095 63.7488L49.2326 63.7917L51.4978 67.6667L84.2095 11.6667Z" fill="#FA7268"/>
</g>
<defs>
<clipPath id="clip0_118_421">
<rect width="84" height="84" fill="white" transform="translate(0.209473)"/>
</clipPath>
</defs>
</svg>
