<svg width="16" height="36" viewBox="0 0 16 36" fill="none" xmlns="http://www.w3.org/2000/svg">
<path fill-rule="evenodd" clip-rule="evenodd" d="M0.0756836 9.01186V0.182793H7.9949V9.01186H0.0756836ZM1.06558 7.90823H6.51004V1.83824H1.06558V7.90823Z" fill="#E6E6E5"/>
<rect x="2.55042" y="2.94188" width="2.9697" height="3.3109" fill="#E6E6E5"/>
<path fill-rule="evenodd" clip-rule="evenodd" d="M0.0756836 34.3954V25.5664H7.9949V34.3954H0.0756836ZM1.06558 33.2918H6.51004V27.2218H1.06558V33.2918Z" fill="#E6E6E5"/>
<rect x="2.55042" y="28.8773" width="2.9697" height="3.3109" fill="#E6E6E5"/>
<rect x="13.9343" y="5.70096" width="1.9798" height="2.20727" fill="#E6E6E5"/>
<path fill-rule="evenodd" clip-rule="evenodd" d="M19.3788 9.56368V11.2191H17.399V13.4264H15.4191V7.35641H17.399V9.56368H19.3788Z" fill="#E6E6E5"/>
<rect x="9.97473" y="5.70096" width="1.9798" height="2.20727" fill="#E6E6E5"/>
<rect x="9.97473" y="9.56368" width="1.9798" height="2.20727" fill="#E6E6E5"/>
<rect x="10.4697" y="11.771" width="1.9798" height="2.20727" fill="#E6E6E5"/>
<rect x="12.4495" y="15.6337" width="1.97983" height="2.20727" fill="#E6E6E5"/>
<rect x="15.9141" y="15.6337" width="1.97983" height="5.51817" fill="#E6E6E5"/>
<rect x="15.9141" y="22.8073" width="1.97983" height="2.20727" fill="#E6E6E5"/>
<rect x="0.0756836" y="9.56368" width="1.9798" height="3.86272" fill="#E6E6E5"/>
<path fill-rule="evenodd" clip-rule="evenodd" d="M5.52012 14.53V16.1855H3.54031V17.2891H1.5605V13.4264H3.54031V14.53H5.52012Z" fill="#E6E6E5"/>
<path fill-rule="evenodd" clip-rule="evenodd" d="M9.97467 11.2191V13.4264H7.99486V21.1518H6.01505V19.4964H3.54028V17.2891H6.01505V13.4264H4.53019V11.2191H9.97467Z" fill="#E6E6E5"/>
<rect x="11.9546" y="7.35641" width="1.9798" height="2.20727" fill="#E6E6E5"/>
<rect x="8.48987" y="13.9782" width="1.9798" height="2.20727" fill="#E6E6E5"/>
<rect x="0.0756836" y="17.2891" width="1.9798" height="2.20727" fill="#E6E6E5"/>
<rect x="1.56055" y="19.4964" width="1.9798" height="2.20727" fill="#E6E6E5"/>
<rect x="0.0756836" y="21.1518" width="1.9798" height="2.20727" fill="#E6E6E5"/>
<rect x="1.56055" y="23.3591" width="1.9798" height="2.20727" fill="#E6E6E5"/>
<rect x="6.01514" y="23.3591" width="1.9798" height="2.20727" fill="#E6E6E5"/>
<path fill-rule="evenodd" clip-rule="evenodd" d="M12.4495 27.2218V29.4291H10.4697V28.3255H8.98486V26.1182H10.9647V27.2218H12.4495Z" fill="#E6E6E5"/>
<path fill-rule="evenodd" clip-rule="evenodd" d="M18.3889 32.74V34.9473H8.98486V32.74H14.9243V30.5327H16.4091V32.74H18.3889Z" fill="#E6E6E5"/>
<rect x="10.4697" y="23.3591" width="3.95963" height="2.20727" fill="#E6E6E5"/>
<path fill-rule="evenodd" clip-rule="evenodd" d="M14.4293 18.9446V22.8073H12.4495V20.6H10.4696V19.4964H9.47974V17.2891H11.4595V18.9446H14.4293Z" fill="#E6E6E5"/>
<rect x="12.9445" y="28.8773" width="1.9798" height="2.20727" fill="#E6E6E5"/>
<path fill-rule="evenodd" clip-rule="evenodd" d="M17.399 25.5664V27.7736H16.4091V28.8773H14.9243V26.67H15.4192V25.5664H17.399Z" fill="#E6E6E5"/>
<path fill-rule="evenodd" clip-rule="evenodd" d="M14.4293 0.182793V4.04551H13.9343V5.70096H11.9545V3.49369H12.4495V1.83824H8.48987V0.182793H14.4293Z" fill="#E6E6E5"/>
<rect x="15.4192" y="0.182793" width="1.9798" height="2.20727" fill="#E6E6E5"/>
</svg>
