<svg width="217" height="169" viewBox="0 0 217 169" fill="none" xmlns="http://www.w3.org/2000/svg">
<g opacity="0.0786133">
<path fill-rule="evenodd" clip-rule="evenodd" d="M125.803 28.2197C111.929 27.6606 98.7147 22.4549 86.0966 16.7573C73.4783 11.0597 60.9783 4.75202 47.447 1.73388C38.737 -0.207844 28.7769 -0.483907 21.7585 4.94457C14.995 10.1782 12.8126 19.1862 11.6464 27.5516C10.7632 33.8477 10.2444 40.4732 12.6624 46.3657C14.3411 50.4579 17.3231 53.8959 19.3854 57.8142C26.5605 71.4503 21.4882 88.267 13.713 101.581C10.0686 107.826 5.83689 113.783 3.02216 120.432C0.207419 127.081 -1.10027 134.699 1.35647 141.482C3.79605 148.21 9.61203 153.253 15.9125 156.793C28.7085 164.006 43.7812 166.073 58.4892 167.233C91.0358 169.822 123.758 168.701 156.392 167.578C168.468 167.163 180.599 166.741 192.48 164.563C199.078 163.356 205.889 161.442 210.678 156.823C216.76 150.961 218.267 141.032 214.192 133.681C207.358 121.348 188.467 118.284 183.684 105.049C181.056 97.7645 183.755 89.6496 187.577 82.8942C195.773 68.3997 209.514 55.6845 210.236 39.1161C210.734 27.7488 204.129 16.3444 193.916 10.96C183.21 5.31574 168.367 6.02562 160.474 15.3677C152.345 25.0253 138.052 28.7162 125.803 28.2197" fill="#FA7268"/>
</g>
</svg>
