<svg width="144" height="112" viewBox="0 0 144 112" fill="none" xmlns="http://www.w3.org/2000/svg">
<path fill-rule="evenodd" clip-rule="evenodd" d="M110.322 46.583C109.579 45.9615 108.9 45.2513 108.288 44.5064C106.684 42.5553 105.438 40.3303 103.912 38.3167C103.855 38.2414 103.794 38.157 103.801 38.0623C103.807 37.9902 103.851 37.9273 103.896 37.8708C104.495 37.1128 106.48 35.9462 107.492 36.133C108.011 36.2287 108.252 36.8044 108.606 37.2889C109.439 38.4306 110.272 39.5724 111.105 40.7139C111.822 38.4946 112.538 36.2754 113.255 34.0561C113.586 33.0336 113.921 31.9997 114.481 31.0852C114.572 30.9371 114.68 30.7836 114.842 30.7249C115.072 30.6418 115.32 30.7784 115.519 30.9214C116.808 31.8443 117.731 33.2753 118.045 34.8397C118.3 36.1079 118.166 37.4216 117.97 38.7005C117.464 41.9958 116.546 45.2261 115.245 48.2905C115.195 48.4074 115.142 48.5285 115.044 48.6083C114.874 48.7476 114.627 48.7201 114.413 48.6758C112.892 48.3629 111.524 47.5892 110.322 46.583" fill="#C8E7F5"/>
<path fill-rule="evenodd" clip-rule="evenodd" d="M104.041 32.713C104.125 32.7144 104.208 32.7176 104.292 32.7212C105 32.751 105.742 32.8154 106.338 33.2025C106.675 33.4214 106.969 33.8245 106.839 34.2074C106.763 34.4308 106.564 34.5825 106.4 34.7506C105.34 35.8371 108.148 37.8259 106.79 38.9659C106.609 39.1178 106.423 39.2726 106.203 39.3427C106.024 39.4001 105.832 39.3976 105.643 39.385C105.496 39.3751 105.262 39.3983 105.163 39.2793C105.058 39.1544 105.026 38.7328 104.984 38.5656C104.865 38.088 104.745 37.6102 104.625 37.1327C104.508 36.6641 104.331 36.1228 103.915 35.9723C103.824 35.9392 103.727 35.9286 103.64 35.8822C103.542 35.8301 103.467 35.7376 103.396 35.6453C103.049 35.1914 102.198 34.1147 102.413 33.4978C102.534 33.1512 102.861 32.9102 103.209 32.804C103.477 32.7221 103.759 32.708 104.041 32.713" fill="#D4AA8C"/>
<path fill-rule="evenodd" clip-rule="evenodd" d="M114.916 107.51C114.43 107.482 113.945 107.455 113.46 107.427C113.224 105.612 113.127 103.753 113.171 101.903C113.843 102.276 114.776 102.047 114.903 103.318C114.943 103.729 114.82 107.504 114.916 107.51" fill="#ECD1BD"/>
<path fill-rule="evenodd" clip-rule="evenodd" d="M113.482 106.571C113.244 106.604 113.021 106.77 112.87 107.027C112.782 107.176 112.717 107.355 112.61 107.475C112.505 107.593 112.37 107.643 112.239 107.69C111.612 107.916 111.147 107.978 110.553 108.339C110.341 108.468 110.109 108.562 109.87 108.617C109.797 108.633 109.72 108.648 109.664 108.699C109.597 108.761 109.576 108.861 109.575 108.954C109.567 109.34 109.831 109.689 110.16 109.861C110.552 110.066 111.009 110.095 111.413 110.273C111.888 110.482 112.393 110.488 112.896 110.401C113.914 110.225 114.854 109.708 115.768 109.228C115.849 109.186 115.934 109.138 115.986 109.04C116.042 108.935 116.049 108.793 116.051 108.66C116.068 107.918 116.106 106.787 115.366 106.779C115.05 106.776 114.758 107.038 114.419 107.009C114.141 106.985 113.695 106.541 113.482 106.571" fill="#1C1E1E"/>
<path fill-rule="evenodd" clip-rule="evenodd" d="M107.318 81.3721C107.16 82.0977 107.001 82.8296 106.984 83.5733C106.966 84.3739 107.113 85.1665 107.259 85.9518C108.561 92.9445 109.864 99.9372 111.166 106.93C112.25 106.898 113.333 106.867 114.417 106.836C114.905 106.821 115.792 106.449 116.26 106.299C116.26 106.299 116.336 105.633 116.311 105.162C115.87 96.7865 114.854 90.416 115.607 83.0634C115.796 81.215 116.895 80.0321 117.855 78.4675C121.119 73.1524 121.935 68.5871 123.469 65.0547C123.566 64.8312 114.57 63.4393 114.125 63.3706C112.995 63.1957 112.024 63.1705 111.349 64.2685C110.604 65.482 110.464 67.2698 110.153 68.6388C109.698 70.6454 109.247 72.6529 108.799 74.6614C108.301 76.8972 107.807 79.1341 107.318 81.3721" fill="#002D51"/>
<path fill-rule="evenodd" clip-rule="evenodd" d="M126.242 108.194C125.72 108.216 125.198 108.238 124.677 108.259C124.241 106.416 123.95 104.512 123.81 102.605C124.567 102.919 125.542 102.588 125.805 103.882C125.89 104.301 126.139 108.198 126.242 108.194" fill="#ECD1BD"/>
<path fill-rule="evenodd" clip-rule="evenodd" d="M124.614 107.376C124.362 107.434 124.141 107.628 124.005 107.908C123.927 108.07 123.875 108.261 123.773 108.396C123.673 108.528 123.533 108.593 123.398 108.655C122.75 108.952 122.259 109.063 121.659 109.497C121.445 109.652 121.207 109.772 120.957 109.853C120.881 109.877 120.8 109.9 120.746 109.959C120.68 110.029 120.668 110.134 120.675 110.23C120.706 110.628 121.024 110.96 121.393 111.103C121.833 111.274 122.324 111.257 122.775 111.399C123.303 111.565 123.844 111.518 124.374 111.377C125.445 111.091 126.398 110.462 127.327 109.875C127.41 109.822 127.496 109.764 127.542 109.658C127.59 109.545 127.584 109.398 127.573 109.261C127.516 108.495 127.442 107.328 126.65 107.396C126.312 107.425 126.026 107.725 125.66 107.73C125.361 107.734 124.839 107.323 124.614 107.376" fill="#1C1E1E"/>
<path fill-rule="evenodd" clip-rule="evenodd" d="M120.101 91.8104C121.018 96.6909 122.372 101.533 122.438 106.501C122.441 106.734 122.448 106.987 122.595 107.167C122.742 107.345 122.987 107.4 123.214 107.435C124.662 107.657 126.165 107.497 127.536 106.977C127.681 104.389 127.063 101.829 126.779 99.2536C126.428 96.0799 126.585 92.8737 126.753 89.685C127.163 81.8987 129.908 73.8003 129.632 66.008C129.58 64.5323 127.225 63.3332 126.722 61.9466C123.648 62.4327 120.463 62.1769 117.504 61.2062C117.542 62.8051 117.823 64.2398 117.996 65.8014C118.222 67.8578 118.118 69.997 118.193 72.0658C118.346 76.2907 118.582 80.516 119.053 84.7183C119.32 87.0938 119.66 89.4613 120.101 91.8104" fill="#002D51"/>
<path fill-rule="evenodd" clip-rule="evenodd" d="M125.321 28.9906C126.004 29.2772 126.611 29.6537 127.072 30.1333C128.525 31.6463 129.68 33.7279 130.587 35.6305C132.443 39.5267 133.653 43.8872 134.123 48.2091C134.917 55.4997 133.833 62.8906 132.371 70.0848C123.544 67.1651 114.636 64.5192 105.66 62.1511C106.624 62.4056 109.841 56.9801 110.318 56.1603C111.557 54.0305 113.001 51.3262 113.261 48.8007C113.721 44.3326 112.803 39.8332 113.427 35.3736C113.664 33.6778 113.582 32.1534 114.786 30.8628C116.083 29.4728 117.876 28.5967 119.715 28.3359C121.301 28.111 123.564 28.2544 125.321 28.9906" fill="#FA7268"/>
<path fill-rule="evenodd" clip-rule="evenodd" d="M119.471 29.6852C119.51 29.7907 121.339 29.6887 121.54 29.6875C122.17 29.6834 122.48 29.5004 122.586 28.8187C122.702 28.078 122.93 27.3982 123.315 26.7571C123.626 26.2381 124.102 25.8798 124.432 25.3802C124.724 24.9395 124.965 24.466 125.162 23.9751C125.483 23.1743 125.693 22.3263 125.823 21.4733C125.923 20.8195 125.713 20.1805 125.666 19.5205C125.631 19.0207 125.592 18.506 125.369 18.0582C124.979 17.2727 124.111 16.8584 123.273 16.6223C120.887 15.9505 116.348 16.1825 115.966 19.3794C115.883 20.081 115.912 20.7908 115.941 21.4971C116.004 22.9871 115.609 25.7353 117.232 26.5706C117.689 26.8062 118.257 26.8085 118.661 27.1292C119.372 27.6949 119.157 28.8269 119.471 29.6852" fill="#D4AA8C"/>
<path fill-rule="evenodd" clip-rule="evenodd" d="M130.522 17.1542C129.872 16.8182 129.406 16.2132 128.945 15.6416C128.484 15.07 127.972 14.488 127.289 14.2343C126.669 14.004 125.994 14.0772 125.347 13.9631C124.666 13.8428 124.031 13.5177 123.371 13.2997C121.465 12.6704 119.304 12.9921 117.757 14.1605C116.836 14.8554 115.223 16.5776 115.635 17.8922C115.724 18.1786 115.942 18.4213 116.215 18.5398C116.577 18.6973 117.028 18.5889 117.375 18.7673C117.631 18.8996 117.731 19.1262 117.882 19.379C118.21 19.9287 118.51 20.5133 119.039 20.8963C119.542 21.2609 120.177 21.3709 120.788 21.4711C120.924 21.4931 121.067 21.5146 121.195 21.4642C121.38 21.391 121.478 21.1921 121.6 21.0333C121.836 20.7272 122.248 20.5372 122.614 20.6549C122.98 20.7723 123.21 21.2559 123.002 21.582C122.79 21.9131 122.324 21.9144 121.934 21.9217C121.815 21.9238 121.667 21.9526 121.637 22.069C121.617 22.1473 121.665 22.2253 121.71 22.2921L123.12 24.3762C123.406 24.7996 123.959 26.162 124.589 25.6962C125.653 24.91 125.951 23.6195 126.937 22.8649C127.388 22.5195 127.811 22.137 128.199 21.7225C128.945 20.9269 129.437 19.9276 130.316 19.2658C130.649 19.0156 131.039 18.8483 131.375 18.6033C131.937 18.1946 132.332 17.5688 132.464 16.878C132.066 17.4576 131.171 17.4903 130.522 17.1542" fill="#1B2749"/>
<path fill-rule="evenodd" clip-rule="evenodd" d="M136.247 66.2732L98.88 60.6801C98.1056 60.5642 97.5665 59.8247 97.682 59.0368L101.146 35.398C101.261 34.61 101.99 34.0601 102.764 34.1761L140.131 39.7691C140.905 39.8849 141.444 40.6246 141.329 41.4126L137.865 65.0514C137.749 65.8393 137.021 66.3891 136.247 66.2732" fill="#00BECE"/>
<path fill-rule="evenodd" clip-rule="evenodd" d="M99.1375 60.2417L135.857 65.7378C136.631 65.8537 137.359 65.3038 137.475 64.516L139.444 51.075C127.968 60.4709 108.092 60.6686 99.1375 60.2417" fill="#00BECE"/>
<path fill-rule="evenodd" clip-rule="evenodd" d="M107.835 49.7026L101.732 48.7892C101.478 48.7512 101.3 48.5092 101.338 48.2516L101.98 43.8669C102.018 43.6095 102.257 43.4299 102.512 43.4681L108.615 44.3815C108.87 44.4197 109.047 44.6615 109.009 44.9191L108.367 49.3037C108.329 49.5614 108.09 49.7408 107.835 49.7026" fill="#FFD54D"/>
<path fill-rule="evenodd" clip-rule="evenodd" d="M108.438 48.8169L108.757 46.6425C106.801 48.047 103.546 48.3892 101.573 48.4603C101.717 48.669 101.941 48.8206 102.208 48.8604L107.36 49.6315C107.876 49.7088 108.361 49.3423 108.438 48.8169" fill="#D1A458"/>
<path fill-rule="evenodd" clip-rule="evenodd" d="M108.747 54.3619L100.621 53.1455L101.006 50.5192L109.132 51.7353L108.747 54.3619Z" fill="white"/>
<path fill-rule="evenodd" clip-rule="evenodd" d="M117.811 55.7186L109.685 54.5023L110.07 51.8757L118.196 53.0921L117.811 55.7186Z" fill="white"/>
<path fill-rule="evenodd" clip-rule="evenodd" d="M126.875 57.0753L118.749 55.859L119.134 53.2326L127.26 54.4488L126.875 57.0753Z" fill="white"/>
<path fill-rule="evenodd" clip-rule="evenodd" d="M135.939 58.4321L127.813 57.2157L128.198 54.5892L136.324 55.8055L135.939 58.4321Z" fill="white"/>
<path opacity="0.723331" fill-rule="evenodd" clip-rule="evenodd" d="M130.311 44.0594C130.434 43.2217 130.955 42.5447 131.65 42.1958C131.3 41.8634 130.852 41.6311 130.343 41.5549C129.01 41.3556 127.769 42.2932 127.57 43.649C127.371 45.005 128.29 46.2659 129.623 46.4655C130.133 46.5417 130.628 46.4507 131.058 46.235C130.493 45.6977 130.189 44.897 130.311 44.0594" fill="white"/>
<path fill-rule="evenodd" clip-rule="evenodd" d="M133.053 44.4698C133.176 43.632 133.697 42.9551 134.391 42.6061C134.042 42.2737 133.594 42.0415 133.084 41.9653C132.575 41.8891 132.079 41.98 131.65 42.1959C132.214 42.7332 132.519 43.5338 132.396 44.3715C132.273 45.2091 131.752 45.886 131.058 46.235C131.407 46.5674 131.855 46.7996 132.365 46.8758C132.874 46.952 133.37 46.8611 133.799 46.6454C133.235 46.1079 132.93 45.3073 133.053 44.4698" fill="white"/>
<path fill-rule="evenodd" clip-rule="evenodd" d="M132.396 44.3715C132.519 43.5337 132.214 42.7331 131.65 42.1959C130.956 42.5448 130.434 43.2217 130.311 44.0595C130.189 44.897 130.493 45.6976 131.058 46.2349C131.752 45.886 132.273 45.209 132.396 44.3715" fill="#005467"/>
<path opacity="0.723331" fill-rule="evenodd" clip-rule="evenodd" d="M135.826 42.3757C135.316 42.2995 134.821 42.3904 134.391 42.6061C134.956 43.1436 135.26 43.9442 135.138 44.7817C135.015 45.6195 134.494 46.2964 133.799 46.6454C134.148 46.9778 134.597 47.2098 135.106 47.2862C136.439 47.4856 137.68 46.5482 137.879 45.1922C138.078 43.8362 137.158 42.5752 135.826 42.3757" fill="white"/>
<path fill-rule="evenodd" clip-rule="evenodd" d="M135.138 44.7817C135.26 43.9442 134.956 43.1436 134.391 42.6061C133.697 42.9551 133.176 43.632 133.053 44.4697C132.93 45.3073 133.235 46.1079 133.799 46.6454C134.494 46.2964 135.015 45.6195 135.138 44.7817" fill="#002D51"/>
<path fill-rule="evenodd" clip-rule="evenodd" d="M135.548 61.0984L118.358 58.5253L118.475 57.7295L135.665 60.3026L135.548 61.0984Z" fill="white"/>
<path fill-rule="evenodd" clip-rule="evenodd" d="M135.298 62.8096L122.17 60.8447L122.287 60.0488L135.414 62.0137L135.298 62.8096Z" fill="#E7E7E7"/>
<path fill-rule="evenodd" clip-rule="evenodd" d="M108.924 45.5014L108.952 45.3104L105.531 44.7984L105.657 43.9388L105.47 43.9107L105.344 44.7703L101.923 44.2583L101.895 44.4493L105.316 44.9613L105.196 45.7804L101.775 45.2683L101.747 45.4593L105.168 45.9716L105.167 45.9785L105.268 45.9863C105.303 45.9895 106.116 46.0574 106.095 46.6997C106.095 46.7013 106.088 46.8864 105.929 47.0261C105.759 47.175 105.481 47.2243 105.104 47.1723L101.574 46.6441L101.545 46.8349L104.983 47.3494L104.861 48.1838L101.423 47.6692L101.395 47.8602L104.833 48.3748L104.707 49.2344L104.894 49.2624L105.02 48.4029L108.424 48.9124L108.452 48.7214L105.048 48.2119L105.171 47.3747C105.559 47.4134 105.855 47.3452 106.053 47.1721C106.197 47.0461 106.251 46.8951 106.272 46.7992L108.681 47.1597L108.709 46.9689L106.283 46.6055C106.242 46.0773 105.731 45.8605 105.384 45.8056L105.503 44.9894L108.924 45.5014Z" fill="white"/>
<path fill-rule="evenodd" clip-rule="evenodd" d="M135.548 61.0984L135.665 60.3024L123.13 58.4262C122.38 58.5989 121.628 58.7574 120.876 58.9022L135.548 61.0984Z" fill="#E7E7E7"/>
<path fill-rule="evenodd" clip-rule="evenodd" d="M136.324 55.8056L132.65 55.2555C131.095 55.9744 129.478 56.5971 127.825 57.1344L127.813 57.2158L135.939 58.4321L136.324 55.8056Z" fill="#E7E7E7"/>
<path fill-rule="evenodd" clip-rule="evenodd" d="M101.58 35.7069L100.978 39.8158C101.341 38.087 102.722 34.4138 107.884 35.1865L103.198 34.4851C102.424 34.3692 101.696 34.9189 101.58 35.7069" fill="#00BECE"/>
<path fill-rule="evenodd" clip-rule="evenodd" d="M132.801 16.083C132.705 16.1029 132.609 16.1242 132.513 16.1468C132.456 16.1605 132.397 16.1754 132.349 16.2104C132.303 16.2447 132.271 16.2951 132.241 16.3451C131.903 16.9081 131.725 17.496 131.546 18.1222C131.479 18.3553 131.461 18.3734 131.604 18.5816C131.763 18.8128 131.949 19.0313 132.127 19.2477C132.26 19.6066 132.407 19.9604 132.51 20.3297C132.768 21.2645 132.331 23.5156 133.514 23.8031C133.742 23.8589 133.977 23.9147 134.204 23.8798C134.391 23.8514 134.562 23.7635 134.726 23.6679C134.853 23.5934 135.074 23.5101 135.111 23.3591C135.15 23.2004 134.995 22.8076 134.959 22.6388L134.656 21.1929C134.557 20.7201 134.48 20.1553 134.787 19.8346C134.855 19.7646 134.937 19.7114 134.994 19.6315C135.06 19.5411 135.087 19.4243 135.11 19.3101C135.194 18.8917 135.25 18.4533 135.243 18.0186C135.237 17.6215 134.985 17.4624 134.74 17.1968C134.485 16.9195 134.412 16.5329 134.185 16.2379C133.957 15.9414 133.645 15.9387 133.291 15.994C133.127 16.0197 132.963 16.0494 132.801 16.083" fill="#D4AA8C"/>
<path fill-rule="evenodd" clip-rule="evenodd" d="M136.884 33.9495C136.86 32.9133 136.82 31.8581 136.846 30.7753C136.917 27.7422 136.556 24.6717 135.78 21.71C134.484 21.6008 133.183 21.7774 131.976 22.2265C132.146 25.6174 132.181 29.0634 130.821 32.2271C130.766 32.3541 130.687 32.4957 130.552 32.5167C130.42 32.5371 130.304 32.4319 130.213 32.3335C129.321 31.3689 128.579 30.2283 127.481 29.5137C126.383 28.7989 124.739 28.6743 123.903 29.689C123.368 30.3384 123.311 31.2692 123.454 32.1018C123.673 33.3855 124.297 34.5649 125.032 35.635C126.176 37.3 127.61 38.7601 129.25 39.9271C130.373 40.7263 131.598 41.3945 132.598 42.3456C132.88 42.6132 133.165 42.9147 133.542 42.9998C134.24 43.1572 134.85 42.5158 135.237 41.9073C136.898 39.2903 136.947 36.687 136.884 33.9495" fill="#FA7268"/>
<mask id="mask0_35_471" style="mask-type:alpha" maskUnits="userSpaceOnUse" x="128" y="0" width="13" height="13">
<path fill-rule="evenodd" clip-rule="evenodd" d="M128.497 0.219166H140.711V12.044H128.497V0.219166Z" fill="white"/>
</mask>
<g mask="url(#mask0_35_471)">
<path fill-rule="evenodd" clip-rule="evenodd" d="M140.711 12.044H139.023V6.39704C139.023 3.93217 137.041 1.92695 134.605 1.92695C132.168 1.92695 130.186 3.93217 130.186 6.39704V12.044H128.497V6.39704C128.497 2.9905 131.237 0.219149 134.605 0.219149C137.972 0.219149 140.711 2.9905 140.711 6.39704V12.044Z" fill="#FFAC00"/>
</g>
<path fill-rule="evenodd" clip-rule="evenodd" d="M143.296 20.591C143.296 20.9569 143.003 21.2532 142.641 21.2532H126.568C126.206 21.2532 125.913 20.9569 125.913 20.591V10.0266C125.913 9.66073 126.206 9.36437 126.568 9.36437H142.641C143.003 9.36437 143.296 9.66073 143.296 10.0266V20.591Z" fill="#FFAC00"/>
<path fill-rule="evenodd" clip-rule="evenodd" d="M143.296 20.591V14.118C138 18.6501 130.365 20.353 126.039 20.9778C126.158 21.1441 126.35 21.2532 126.568 21.2532H142.641C143.003 21.2532 143.296 20.9569 143.296 20.591" fill="#FFAC00"/>
<path fill-rule="evenodd" clip-rule="evenodd" d="M136.041 13.5183C136.041 12.7158 135.398 12.0653 134.605 12.0653C133.811 12.0653 133.168 12.7158 133.168 13.5183C133.168 13.9968 133.398 14.4199 133.75 14.6846L133.293 17.9705H135.916L135.459 14.6846C135.812 14.4199 136.041 13.9968 136.041 13.5183" fill="#1B2749"/>
<path fill-rule="evenodd" clip-rule="evenodd" d="M126.461 10.6172V12.8921C126.521 11.9261 126.98 9.82405 129.855 9.82405H127.246C126.814 9.82405 126.461 10.1808 126.461 10.6172" fill="#FFAC00"/>
<path fill-rule="evenodd" clip-rule="evenodd" d="M133.293 17.9705C133.293 17.9705 135.24 17.4139 135.459 14.6846L135.916 17.9705H133.293Z" fill="#1B2749"/>
<path fill-rule="evenodd" clip-rule="evenodd" d="M105.097 35.8775C104.858 35.725 104.724 35.4209 104.772 35.1394C104.8 34.9721 104.886 34.8201 104.931 34.6563C104.976 34.4927 104.971 34.2948 104.847 34.1798C104.656 34.0023 104.275 34.0986 104.16 33.8639C104.072 33.6862 104.23 33.4853 104.391 33.3721C105.138 32.8485 106.634 33.0143 106.715 34.1519C106.764 34.839 105.922 36.4046 105.097 35.8775" fill="#D4AA8C"/>
<path fill-rule="evenodd" clip-rule="evenodd" d="M18.525 104.9C17.9835 105.073 17.4326 105.002 16.8846 105.072C16.4501 103.162 16.2133 101.285 16.1651 99.3047C17.2195 100.031 17.7874 99.3175 18.1815 101.073C18.309 101.642 18.2089 104.065 18.525 104.9" fill="#ECD1BD"/>
<path fill-rule="evenodd" clip-rule="evenodd" d="M16.5355 104.155C15.8548 104.083 16.0784 105.629 16.1594 105.985C16.2081 106.199 16.2856 106.411 16.282 106.63C16.2777 106.872 16.1754 107.1 16.0752 107.319C15.8651 107.779 15.6551 108.239 15.4452 108.699C15.3508 108.905 15.2549 109.117 15.2323 109.343C15.176 109.905 15.6231 110.444 16.1668 110.572C18.054 111.015 19.087 108.56 19.1197 107.099C19.1248 106.875 19.1137 106.651 19.1028 106.427C19.0801 105.965 19.1784 104.919 18.9005 104.53C18.5763 104.076 18.051 104.593 17.6031 104.502C17.1877 104.418 16.8108 104.184 16.5355 104.155" fill="#002D51"/>
<path fill-rule="evenodd" clip-rule="evenodd" d="M21.1733 70.9967C20.648 75.6924 19.8585 80.3533 19.9174 85.1185C19.9902 91.0054 19.2499 96.9461 19.5451 102.791C18.8697 102.981 18.1804 103.12 17.4846 103.206C16.6868 103.305 15.4049 103.397 14.9183 102.611C14.6695 102.208 14.6495 101.46 14.5616 101C14.2799 99.5275 14.0317 98.0482 13.7865 96.5691C13.0933 92.384 12.2936 88.1719 12.0631 83.9343C11.8205 79.4767 11.541 75.0126 11.2038 70.5788C11.0296 68.2872 10.9417 65.9889 10.9611 63.6904C10.966 63.0982 11.0326 56.9905 11.3294 56.9661C14.8509 56.6751 18.2962 57.0273 21.6756 58.0684C22.0041 58.1697 22.3306 58.3062 22.5043 58.5878C22.6781 58.8694 22.6513 59.1554 22.6259 59.4561C22.3835 62.3237 21.8072 65.0988 21.5042 67.9704C21.3985 68.9694 21.2881 69.9695 21.1733 70.9967" fill="#002D51"/>
<path fill-rule="evenodd" clip-rule="evenodd" d="M23.4956 104.673C24.0371 104.846 24.5878 104.774 25.1358 104.845C25.5705 102.935 25.8072 101.058 25.8555 99.0776C24.8011 99.8037 24.2331 99.0904 23.8389 100.846C23.7115 101.415 23.8115 103.838 23.4956 104.673" fill="#ECD1BD"/>
<path fill-rule="evenodd" clip-rule="evenodd" d="M25.6544 104.246C25.7214 105.306 26.6183 106.396 27.1347 107.321C27.1955 107.43 27.2575 107.543 27.2676 107.668C27.2823 107.853 27.1805 108.025 27.0824 108.182C26.9464 108.4 26.798 108.629 26.5668 108.737C26.3397 108.844 26.0753 108.815 25.8276 108.776C25.4134 108.711 25.0021 108.627 24.5954 108.525C24.4938 108.499 24.3905 108.471 24.3054 108.41C24.2045 108.337 24.1398 108.226 24.0777 108.117C23.7604 107.562 23.4953 107.17 23.4709 106.53C23.4459 105.869 23.4858 105.18 23.3258 104.533C23.2472 104.22 23.1437 103.819 23.4019 103.628C23.6015 103.48 23.9937 103.641 24.2224 103.664C24.6257 103.705 24.9933 103.657 25.3742 103.845C25.4517 103.884 25.5279 103.931 25.5787 104.002C25.6302 104.074 25.6488 104.157 25.6544 104.246" fill="#002D51"/>
<path fill-rule="evenodd" clip-rule="evenodd" d="M20.8471 70.7695C21.3726 75.4652 22.1619 80.1261 22.103 84.8915C22.0302 90.7782 22.7707 96.7189 22.4754 102.564C23.1508 102.754 23.8401 102.893 24.5359 102.979C25.3338 103.078 26.6156 103.17 27.1022 102.383C27.3509 101.981 27.371 101.233 27.459 100.773C27.7407 99.3003 27.9889 97.821 28.234 96.342C28.9271 92.1569 29.7268 87.9447 29.9575 83.7073C30.2001 79.2495 30.4796 74.7854 30.8166 70.3516C30.9908 68.0599 31.0789 65.7617 31.0595 63.4634C31.0545 62.871 30.988 56.7635 30.6913 56.7389C27.1697 56.4479 23.7244 56.8001 20.3449 57.8412C20.0163 57.9425 19.69 58.0791 19.5163 58.3606C19.3425 58.6422 19.3692 58.9282 19.3945 59.229C19.6369 62.0965 20.2132 64.8716 20.5164 67.7433C20.6219 68.7422 20.7323 69.7423 20.8471 70.7695" fill="#002D51"/>
<path fill-rule="evenodd" clip-rule="evenodd" d="M17.1842 31.5253C17.2217 31.5889 17.2702 31.6491 17.334 31.7051C17.5849 31.9257 17.9206 32.0387 18.2488 32.0652C18.6811 32.0999 19.1122 32.0005 19.5322 31.8916C20.0996 31.7445 20.0585 31.4059 20.109 30.8737C20.1366 30.5829 20.1471 30.2908 20.1504 29.9989C20.1524 29.8386 20.0559 29.272 20.1496 29.154C20.213 29.0739 20.4922 29.0819 20.6098 29.0099C20.7965 28.896 20.9459 28.6983 21.0505 28.5089C21.2191 28.2036 21.3009 27.8582 21.3809 27.518C21.5199 26.926 21.6591 26.334 21.7982 25.742C21.9404 25.1372 22.0832 24.5272 22.1023 23.9059C22.1313 22.9692 21.9009 21.6642 21.1632 21.0274C20.4904 20.4464 19.5513 20.2876 18.6959 20.2316C17.5629 20.1577 16.4109 20.4393 15.4776 21.1038C15.1005 21.3721 14.7487 21.7115 14.5441 22.1601C14.2287 22.8519 14.3078 23.6856 14.3945 24.4643C14.4746 25.1832 14.5546 25.9021 14.6348 26.6208C14.7269 27.4475 14.8883 28.3966 15.531 28.8074C15.8722 29.0256 16.3021 29.0496 16.6006 29.3381C16.9743 29.6995 16.9873 30.2762 17.0321 30.7616C17.0576 31.039 17.0534 31.3033 17.1842 31.5253" fill="#F4CDAF"/>
<path fill-rule="evenodd" clip-rule="evenodd" d="M20.164 21.9792C20.2069 22.0444 20.2437 22.1125 20.2732 22.1839C20.4277 22.5579 20.366 22.995 20.5177 23.3702C20.7582 23.9651 21.4827 24.2859 21.6275 24.9117C21.746 25.4234 21.427 25.9372 21.4298 26.4628C21.4331 27.0369 21.8292 27.5555 21.8079 28.1239C21.7894 28.6174 21.5242 29.3264 21.2591 29.7379C21.3412 29.6103 22.1563 29.6023 22.359 29.4587C22.6697 29.2389 22.6987 29.111 22.7737 28.7647C22.8483 28.4211 22.7535 28.093 22.8808 27.7376C23.0369 27.3016 23.3924 26.9663 23.4956 26.5054C23.6364 25.8765 23.2709 25.2454 23.2565 24.6008C23.2345 23.625 24.0099 22.6552 23.6506 21.7493C23.4397 21.2177 22.8968 20.9039 22.5732 20.4338C22.3277 20.0768 22.2184 19.6447 22.0387 19.2496C21.8594 18.8546 21.5685 18.4662 21.1492 18.3694C20.9161 18.3157 20.6719 18.3593 20.4346 18.33C20.0244 18.2795 19.67 18.0181 19.2711 17.9092C18.7007 17.7536 17.7503 18.387 17.4537 18.8863C17.1595 19.3818 17.3477 19.7753 17.705 20.1744C18.2995 20.8391 19.6598 21.2125 20.164 21.9792" fill="#1B2749"/>
<path fill-rule="evenodd" clip-rule="evenodd" d="M12.4608 19.5806C12.1414 19.8501 11.7392 20.0555 11.4512 20.3652C10.8901 20.9686 10.8328 21.8804 10.8625 22.708C10.889 23.4448 10.6111 24.1186 10.7373 24.8803C10.8224 25.392 11.0712 25.8989 11.5047 26.1766C12.0444 26.5225 12.8589 26.5333 13.1264 27.1198C13.417 27.7572 12.7987 28.6219 13.2402 29.1634C13.4836 29.4621 13.9259 29.4802 14.2596 29.6703C14.6319 29.8821 14.8419 30.2895 15.0832 30.6459C15.3248 31.0024 15.6758 31.3522 16.1028 31.3344C16.0795 30.6779 16.0665 30.1573 15.7523 29.5755C15.5693 29.2365 15.054 28.6224 15.3956 28.2211C15.6064 27.8922 16.1433 27.7556 16.1333 27.364C16.1283 27.1801 15.9919 27.0317 15.8826 26.8848C15.4587 26.3159 15.3705 25.5275 15.592 24.8517C15.8133 24.1754 16.3212 23.6145 16.9349 23.2647C17.6541 22.8546 17.5233 22.6791 17.6945 21.9478C17.8519 21.2747 18.2131 21.0963 18.7864 20.8183C19.3013 20.5687 19.4627 20.4233 19.6267 19.9113C19.7466 19.5365 19.8952 19.0876 19.6629 18.6926C19.4783 18.3788 19.1681 18.1656 18.8676 17.9629C18.24 17.5391 17.537 17.0966 16.7892 17.1989C16.3739 17.2556 15.9937 17.4785 15.5776 17.529C15.3 17.5626 15.0192 17.5178 14.7397 17.526C14.2633 17.5402 13.7709 17.7179 13.4038 18.0283C13.0334 18.3413 13.0631 18.6427 12.8727 19.0659C12.7794 19.2732 12.6321 19.4362 12.4608 19.5806" fill="#1B2749"/>
<path fill-rule="evenodd" clip-rule="evenodd" d="M13.9758 16.7791C14.0206 16.3177 13.9368 15.7257 13.4957 15.5987C13.2541 15.5292 12.9948 15.6386 12.7459 15.6036C12.2155 15.529 11.9974 14.8993 11.6941 14.4535C11.6487 14.3867 11.5955 14.3196 11.5202 14.2912C11.4128 14.2508 11.2956 14.3002 11.1829 14.3214C10.6657 14.4185 10.2373 13.9239 9.73484 13.7665C9.11287 13.5718 8.37241 14.0039 8.22843 14.6458C8.16936 14.9096 8.19978 15.187 8.1451 15.4517C7.92448 16.5243 6.4244 17.0698 6.4534 18.1648C6.47309 18.905 7.23201 19.567 6.99644 20.2681C6.84561 20.7164 6.30784 21.0495 6.40049 21.5136C6.46008 21.8121 6.79023 21.997 7.09067 21.9738C7.39111 21.9505 7.65709 21.7662 7.87121 21.552C8.2112 21.2117 8.45679 20.7874 8.77868 20.4296C9.10039 20.0719 9.54023 19.7704 10.0175 19.8003C10.4799 19.8291 10.9176 20.1638 11.3687 20.0577C11.7298 19.9728 11.9799 19.6269 12.3324 19.5114C12.6624 19.4035 13.0193 19.5146 13.3658 19.5137C13.7126 19.5128 14.1256 19.3042 14.1131 18.9542C14.1101 18.8693 14.0813 18.7833 14.1025 18.7012C14.1623 18.4711 14.5438 18.4599 14.6021 18.2295C14.4045 17.9599 14.1565 18.0767 14.0044 17.7181C13.8868 17.4406 13.9477 17.0687 13.9758 16.7791" fill="#1B2749"/>
<path fill-rule="evenodd" clip-rule="evenodd" d="M29.7639 19.7584C29.6735 19.777 29.5837 19.7971 29.4938 19.8182C29.44 19.8312 29.3848 19.8451 29.34 19.8779C29.2962 19.9101 29.2665 19.9577 29.2384 20.0044C28.9214 20.533 28.7536 21.0851 28.5857 21.673C28.5229 21.8919 28.5062 21.9089 28.6402 22.1044C28.7891 22.3215 28.9642 22.5267 29.1313 22.7298C29.256 23.0667 29.3943 23.3989 29.4903 23.7457C29.7329 24.6234 29.3231 26.737 30.4333 27.0071C30.6479 27.0593 30.868 27.1117 31.0818 27.0791C31.2566 27.0522 31.4174 26.9698 31.5712 26.8801C31.691 26.8102 31.8979 26.7319 31.9327 26.5901C31.9692 26.441 31.824 26.0722 31.7906 25.9139L31.5058 24.5561C31.4127 24.1123 31.3402 23.5819 31.6289 23.2809C31.6922 23.215 31.7695 23.1653 31.8237 23.0901C31.8845 23.0052 31.9105 22.8956 31.9321 22.7884C32.0113 22.3956 32.0636 21.9839 32.057 21.5756C32.051 21.2029 31.8147 21.0536 31.5851 20.8042C31.3455 20.5437 31.2764 20.1807 31.0635 19.9039C30.8492 19.6253 30.5564 19.6228 30.2241 19.6749C30.0701 19.6988 29.9166 19.7267 29.7639 19.7584" fill="#F4CDAF"/>
<path fill-rule="evenodd" clip-rule="evenodd" d="M33.598 36.5336C33.5755 35.5608 33.538 34.57 33.5619 33.5535C33.6289 30.7056 33.29 27.8226 32.5615 25.0418C31.3449 24.9392 30.123 25.1051 28.9896 25.5265C29.149 28.7106 29.1824 31.9461 27.9048 34.9164C27.8534 35.0356 27.7794 35.1687 27.6523 35.1884C27.5285 35.2076 27.4201 35.1088 27.3346 35.0163C26.4971 34.1105 25.8006 33.0397 24.7691 32.3686C23.7378 31.6977 22.1947 31.5806 21.4101 32.5335C20.9078 33.1432 20.8542 34.017 20.9878 34.7988C21.1939 36.0041 21.7796 37.1114 22.4696 38.1161C23.5434 39.6797 24.8907 41.0504 26.4305 42.1461C27.4849 42.8965 28.6348 43.524 29.5741 44.417C29.8383 44.6682 30.1056 44.9514 30.4594 45.0312C31.1153 45.179 31.6883 44.5769 32.0511 44.0053C33.6113 41.5483 33.6572 39.104 33.598 36.5336" fill="#FA7268"/>
<path fill-rule="evenodd" clip-rule="evenodd" d="M22.9109 23.3822C23.4013 13.7949 31.4889 6.42485 40.975 6.92038C50.461 7.41609 57.7532 15.59 57.2628 25.1772C56.7723 34.7645 48.6847 42.1348 39.1987 41.6391C29.7127 41.1434 22.4204 32.9695 22.9109 23.3822" fill="#FFD54D"/>
<path fill-rule="evenodd" clip-rule="evenodd" d="M25.5099 23.518C25.926 15.3815 32.7898 9.12648 40.8405 9.54721C48.8911 9.96776 55.0801 16.9049 54.664 25.0414C54.2477 33.178 47.3838 39.433 39.3332 39.0124C31.2825 38.5917 25.0936 31.6546 25.5099 23.518" fill="#FFC71B"/>
<path fill-rule="evenodd" clip-rule="evenodd" d="M41.7767 14.8336L41.6805 16.7106C42.4196 16.8708 43.0166 17.1516 43.4712 17.5531C43.9256 17.9545 44.3475 18.5559 44.7373 19.357L42.8362 20.3044C42.3325 19.254 41.6323 18.7052 40.7354 18.6582C40.1795 18.6293 39.7098 18.7712 39.3266 19.084C38.9433 19.3968 38.7389 19.8021 38.7134 20.3001C38.6902 20.7536 38.8194 21.1379 39.1009 21.4534C39.3765 21.7622 39.9461 22.1408 40.8098 22.5893C41.556 22.9803 42.1708 23.3437 42.6541 23.6793C43.1372 24.0151 43.4977 24.3331 43.7359 24.6336C44.4098 25.4498 44.7185 26.4102 44.662 27.5146C44.6065 28.5998 44.2352 29.5406 43.5485 30.3367C42.8684 31.127 41.9871 31.6378 40.9051 31.8694L40.8038 33.8517L39.1455 33.765L39.2441 31.84C38.0164 31.571 37.0941 31.091 36.4771 30.3993C35.8602 29.708 35.432 28.6677 35.1929 27.279L37.2998 26.9473C37.5345 27.9326 37.8464 28.6435 38.2358 29.0799C38.6452 29.4981 39.2065 29.7259 39.9202 29.7632C40.6152 29.7995 41.2078 29.6033 41.6986 29.1744C42.1824 28.7517 42.4426 28.1858 42.4788 27.4773C42.5111 26.8453 42.3443 26.3275 41.9787 25.9244C41.7923 25.7291 41.514 25.5051 41.1438 25.2519C40.7736 24.9989 40.2986 24.7198 39.719 24.4142C38.5218 23.7948 37.7426 23.2419 37.3812 22.7558C36.8041 22.028 36.5405 21.1787 36.5901 20.2083C36.6137 19.7488 36.7081 19.3249 36.8735 18.9365C37.0391 18.5484 37.2676 18.2004 37.5588 17.8921C37.8501 17.5842 38.2039 17.3227 38.6202 17.1075C39.0365 16.8925 39.504 16.7312 40.0224 16.6239L40.1184 14.7469L41.7767 14.8336Z" fill="#E69A24"/>
<path fill-rule="evenodd" clip-rule="evenodd" d="M15.7353 32.5973C15.6799 32.6202 15.6245 32.6444 15.5698 32.6692C14.6552 33.088 13.8984 33.785 13.1583 34.4709C12.0467 35.5008 11.4961 35.9566 11.1317 37.4009C10.7917 38.7478 10.6139 40.1587 10.4401 41.5357C10.0872 44.3287 9.9401 47.1433 9.81476 49.9546C9.7455 51.5114 9.5043 66.318 8.16156 66.4292C16.998 65.6965 25.8345 64.9638 34.671 64.231C34.2844 61.8724 33.2674 59.6758 32.3455 57.4739C29.9575 51.7697 28.1471 45.8189 26.9513 39.7442C26.5644 37.7784 26.2195 34.4964 24.6072 33.0919C22.8552 31.5657 19.0876 31.7709 16.9857 32.2242C16.5601 32.316 16.1375 32.4308 15.7353 32.5973" fill="#FA7268"/>
<path fill-rule="evenodd" clip-rule="evenodd" d="M47.2466 78.6164L3.32045 84.9143L0.244873 63.0032L44.1712 56.7054L47.2466 78.6164Z" fill="#00BECE"/>
<path fill-rule="evenodd" clip-rule="evenodd" d="M4.26601 83.6357L45.7207 77.6922L43.0995 58.061L1.63081 63.972L4.26601 83.6357ZM46.068 77.958L4.00144 83.9893L1.28308 63.7059L1.43532 63.6842L43.3644 57.7078L46.068 77.958Z" fill="white"/>
<path fill-rule="evenodd" clip-rule="evenodd" d="M37.3864 58.6877C37.3864 58.6877 42.1955 59.0238 43.2394 64.7916L44.5522 74.9787C44.5522 74.9787 44.8018 76.7576 42.9097 77.7391L41.1273 78.389L45.8943 77.8251L43.2321 57.8844L37.3864 58.6877Z" fill="white"/>
<path fill-rule="evenodd" clip-rule="evenodd" d="M7.19104 63.0695C7.19104 63.0695 2.6639 64.7442 3.2486 70.5778L4.79105 80.732C4.79105 80.732 5.04068 82.5109 7.1281 82.9217L9.01881 83.0451L4.28493 83.8434L1.35474 63.9411L7.19104 63.0695Z" fill="white"/>
<path fill-rule="evenodd" clip-rule="evenodd" d="M13.3196 71.685C13.4935 72.9237 12.7034 74.0614 11.5549 74.2261C10.4065 74.3908 9.33445 73.52 9.16058 72.2813C8.98672 71.0425 9.77675 69.9049 10.9252 69.7402C12.0737 69.5755 13.1457 70.4462 13.3196 71.685" fill="white"/>
<path fill-rule="evenodd" clip-rule="evenodd" d="M9.1729 78.3549L8.57413 78.4407L8.32977 76.7004L8.92872 76.6145L9.1729 78.3549Z" fill="white"/>
<path fill-rule="evenodd" clip-rule="evenodd" d="M10.1462 78.2153L9.5474 78.3011L9.30304 76.561L9.90181 76.4751L10.1462 78.2153Z" fill="white"/>
<path fill-rule="evenodd" clip-rule="evenodd" d="M11.1194 78.0758L10.5206 78.1616L10.2762 76.4213L10.875 76.3356L11.1194 78.0758Z" fill="white"/>
<path fill-rule="evenodd" clip-rule="evenodd" d="M12.0926 77.9363L11.4937 78.0221L11.2495 76.2818L11.8483 76.196L12.0926 77.9363Z" fill="white"/>
<path fill-rule="evenodd" clip-rule="evenodd" d="M13.0658 77.7967L12.4669 77.8825L12.2227 76.1424L12.8215 76.0565L13.0658 77.7967Z" fill="white"/>
<path fill-rule="evenodd" clip-rule="evenodd" d="M14.0391 77.6572L13.4402 77.743L13.1958 76.0027L13.7947 75.9171L14.0391 77.6572Z" fill="white"/>
<path fill-rule="evenodd" clip-rule="evenodd" d="M15.0123 77.5176L14.4134 77.6034L14.169 75.8633L14.7679 75.7775L15.0123 77.5176Z" fill="white"/>
<path fill-rule="evenodd" clip-rule="evenodd" d="M15.9856 77.3781L15.3866 77.4639L15.1423 75.7238L15.7412 75.638L15.9856 77.3781Z" fill="white"/>
<path fill-rule="evenodd" clip-rule="evenodd" d="M33.4652 65.5617L32.8663 65.6476L32.79 65.1039L33.3887 65.0179L33.4652 65.5617Z" fill="white"/>
<path fill-rule="evenodd" clip-rule="evenodd" d="M34.4385 65.4222L33.8395 65.5081L33.7631 64.9642L34.362 64.8784L34.4385 65.4222Z" fill="white"/>
<path fill-rule="evenodd" clip-rule="evenodd" d="M35.4116 65.2828L34.8128 65.3686L34.7363 64.8247L35.3353 64.7389L35.4116 65.2828Z" fill="white"/>
<path fill-rule="evenodd" clip-rule="evenodd" d="M36.3848 65.1431L35.786 65.229L35.7095 64.6853L36.3085 64.5993L36.3848 65.1431Z" fill="white"/>
<path fill-rule="evenodd" clip-rule="evenodd" d="M37.358 65.0037L36.7593 65.0895L36.6828 64.5456L37.2817 64.4598L37.358 65.0037Z" fill="white"/>
<path fill-rule="evenodd" clip-rule="evenodd" d="M38.3312 64.8642L37.7325 64.95L37.656 64.4061L38.2548 64.3203L38.3312 64.8642Z" fill="white"/>
<path fill-rule="evenodd" clip-rule="evenodd" d="M39.3045 64.7246L38.7056 64.8104L38.6293 64.2667L39.228 64.1807L39.3045 64.7246Z" fill="white"/>
<path fill-rule="evenodd" clip-rule="evenodd" d="M40.2777 64.5851L39.6788 64.6709L39.6025 64.127L40.2012 64.0412L40.2777 64.5851Z" fill="white"/>
<path fill-rule="evenodd" clip-rule="evenodd" d="M32.1301 79.6396L18.2022 81.6365L18.0503 80.5537L31.9782 78.5567L32.1301 79.6396Z" fill="white"/>
<path fill-rule="evenodd" clip-rule="evenodd" d="M22.4013 61.2306C18.955 61.7247 16.7571 66.4405 17.5013 71.743C18.2454 77.0454 21.6547 80.9574 25.1007 80.4634C28.5468 79.9693 30.7448 75.2533 30.0007 69.9508C29.2564 64.6483 25.8475 60.7365 22.4013 61.2306ZM25.1661 80.9273C23.3559 81.1869 21.5118 80.3687 19.9737 78.6236C18.4589 76.9048 17.4176 74.4847 17.0421 71.8088C16.6666 69.133 17.0006 66.5157 17.9826 64.4389C18.9799 62.3302 20.5261 61.0261 22.3361 60.7665C24.1461 60.507 25.99 61.3251 27.5283 63.0702C29.0429 64.7891 30.0842 67.2092 30.4599 69.8849C30.8354 72.5609 30.5012 75.1782 29.5192 77.255C28.5219 79.3636 26.9759 80.6678 25.1661 80.9273Z" fill="white"/>
<path fill-rule="evenodd" clip-rule="evenodd" d="M25.1115 80.7247C21.5329 81.2378 18.0133 77.2444 17.2498 71.8053C16.4863 66.3662 18.7683 61.5411 22.3467 61.028C25.9252 60.515 29.4449 64.5082 30.2084 69.9474C30.9719 75.3865 28.6898 80.2118 25.1115 80.7247Z" fill="#00BECE"/>
<path fill-rule="evenodd" clip-rule="evenodd" d="M8.90853 64.3735C8.94651 64.3385 8.98166 64.3008 9.01331 64.2594C9.30795 63.8735 9.1049 63.4322 9.26382 63.0299C9.33467 62.8504 9.8378 62.5767 9.60557 62.3588C9.51925 62.279 9.25116 61.9855 8.96409 61.708C8.82345 61.4058 8.66892 61.1094 8.55694 60.7951C8.27355 59.9999 8.60229 57.9829 7.46225 57.844C7.2418 57.8171 7.01554 57.7905 6.79967 57.8429C6.62299 57.8857 6.46301 57.9793 6.31042 58.0788C6.19141 58.1563 5.98432 58.2507 5.95478 58.3868C5.92367 58.5296 6.08698 58.8595 6.12742 59.004C6.24274 59.4173 6.35806 59.8305 6.47339 60.2438C6.5866 60.6491 6.68258 61.1371 6.40131 61.4479C6.33978 61.5159 6.26313 61.5703 6.21127 61.646C6.15291 61.7316 6.13111 61.8366 6.1137 61.9392C6.04919 62.3144 6.01315 62.7042 6.03706 63.0855C6.07995 63.7674 6.99498 64.3068 7.48545 64.6462C7.60781 64.7306 7.73702 64.8141 7.88328 64.8367C8.12114 64.8733 8.35002 64.7439 8.55676 64.6194C8.67912 64.5456 8.80376 64.4699 8.90853 64.3735" fill="#ECD1BD"/>
<path fill-rule="evenodd" clip-rule="evenodd" d="M5.39928 49.4114C5.14929 49.8883 4.89685 50.3724 4.7803 50.8992C4.68765 51.3191 4.68484 51.7537 4.69292 52.1838C4.74338 54.8518 5.20784 57.5112 6.06432 60.0352C7.30615 60.007 8.54166 59.7273 9.67678 59.2176C9.45967 57.0364 9.41467 54.8376 9.5423 52.6491C9.56849 52.2016 9.60295 51.7487 9.74623 51.3242C9.95208 50.7129 10.4397 50.2525 10.7775 49.704C12.2761 47.2713 13.5586 45.8252 15.1898 43.6258C16.0869 42.4164 17.7505 40.3472 18.6034 39.1058C19.4107 37.9312 14.2795 33.5888 12.8928 34.589C9.35701 37.1393 7.43871 45.5209 5.39928 49.4114" fill="#FA7268"/>
<path fill-rule="evenodd" clip-rule="evenodd" d="M84.9137 106.833C84.8441 106.603 84.7259 106.391 84.5507 106.236C84.4582 106.155 84.3525 106.091 84.2629 106.007C83.8404 105.61 83.8884 105.23 83.267 105.316C82.5599 105.414 81.8555 105.546 81.1509 105.66C81.1231 105.665 81.0938 105.67 81.0718 105.689C81.0403 105.716 81.0333 105.762 81.0282 105.804C80.999 106.051 80.97 106.298 80.9408 106.545C80.8623 107.212 80.2709 107.407 79.7862 107.671C79.6616 107.739 79.5323 107.807 79.401 107.878C78.8513 108.172 77.1847 108.827 78.0073 109.697C78.3471 110.057 78.936 110.057 79.3887 110.103C79.8261 110.148 80.2661 110.042 80.6972 109.982C82.0798 109.717 83.3549 109.304 84.6066 108.629C85.0549 108.387 85.026 107.703 84.9858 107.218C84.975 107.088 84.9515 106.958 84.9137 106.833" fill="#1C1E1E"/>
<path fill-rule="evenodd" clip-rule="evenodd" d="M70.6371 106.689C70.6141 106.579 70.5768 106.478 70.5216 106.392C70.4504 106.283 70.3509 106.196 70.2838 106.083C70.1113 105.796 70.1748 105.388 69.9624 105.131C69.6625 104.768 69.1543 104.933 68.7688 104.958C68.176 104.997 67.5716 104.967 66.9774 104.972C66.9491 104.972 66.9195 104.973 66.8953 104.988C66.8605 105.01 66.8466 105.055 66.8359 105.096L66.6464 105.815C66.4755 106.463 65.8633 106.566 65.347 106.752C65.2143 106.801 65.077 106.848 64.9372 106.898C64.4844 107.059 63.831 107.184 63.4741 107.538C62.6656 108.339 64.0841 108.959 64.615 109.098C65.0413 109.209 65.4914 109.172 65.9263 109.178C67.3309 109.128 68.6501 108.914 69.9821 108.438C70.1141 108.391 70.2509 108.341 70.3501 108.238C70.4401 108.145 70.4898 108.018 70.5283 107.892C70.6254 107.575 70.7182 107.076 70.6371 106.689" fill="#1C1E1E"/>
<path fill-rule="evenodd" clip-rule="evenodd" d="M74.2945 63.3415L73.3236 72.4306L71.9492 89.2025L70.5878 105.817L66.2407 105.584L64.4719 87.4517L63.9518 72.071L65.6117 62.2614L74.2945 63.3415Z" fill="#8A9193"/>
<path fill-rule="evenodd" clip-rule="evenodd" d="M82.9353 63.4498L84.3452 69.027L82.782 84.9202L84.6185 106.066L80.4891 106.419L75.1309 86.1915L70.9041 64.0605L82.9353 63.4498Z" fill="#8A9193"/>
<path fill-rule="evenodd" clip-rule="evenodd" d="M87.1826 63.6996C87.1486 62.662 87.0876 61.7936 87.079 61.483C87.0022 58.6736 86.7362 55.8479 86.3588 53.0138C86.0181 50.4548 85.5854 47.889 85.1169 45.3111C84.3823 41.2683 83.7144 37.7065 82.242 33.8618C81.719 32.4962 81.1822 31.1065 80.2793 29.9697C79.4475 28.9221 78.2065 28.2027 76.9606 27.7811C76.3784 27.5841 75.7234 27.4158 75.141 27.2826C74.481 27.1315 74.15 27.4325 73.5182 27.706C73.0934 27.8897 72.5952 27.9387 72.1554 28.0945C69.5413 29.0206 68.0488 30.8856 67.1643 33.5328C66.4527 35.6627 65.7409 37.7927 65.0293 39.9228C64.4449 41.6718 63.8604 43.4217 63.3536 45.1962C62.027 49.8413 61.2431 54.6282 60.6672 59.4264C60.3784 61.8321 60.1421 64.2439 59.9143 66.6565C59.7687 68.1982 60.5447 67.5496 61.4606 67.0786C63.0392 66.2668 64.6072 65.4105 66.3778 65.1173C67.2376 64.9752 68.1135 64.9682 68.9845 64.9807C74.2832 65.0572 79.6011 65.8539 84.5778 67.6943C84.8733 67.8037 85.1741 67.9203 85.4154 68.1246C85.738 68.3973 86.1747 69.0176 86.6402 68.6935C86.9299 68.492 87.0001 67.8046 87.053 67.4953C87.2655 66.2533 87.2239 64.954 87.1826 63.6996" fill="#FA7268"/>
<path fill-rule="evenodd" clip-rule="evenodd" d="M70.4984 17.5943C70.0544 18.4993 69.8698 19.5247 69.8772 20.5383C69.8793 20.8077 69.8768 21.1193 69.6732 21.2892C69.4552 21.4711 69.6731 21.8334 69.4893 21.6152C69.3058 21.397 68.6812 20.6382 68.6406 20.3527C68.5453 19.6839 68.5123 19.0057 68.5421 18.3304C68.5682 17.743 68.6536 17.1263 69.0033 16.6611C69.2107 16.3852 69.4958 16.1841 69.7768 15.9885C70.1839 15.7052 70.6043 15.419 71.0822 15.3009C71.9067 15.0976 72.4325 15.3773 71.728 16.0128C71.2232 16.468 70.8026 16.9742 70.4984 17.5943" fill="#002D51"/>
<path fill-rule="evenodd" clip-rule="evenodd" d="M76.2457 28.798C75.1062 28.9686 73.9665 29.1392 72.8269 29.3099C72.6017 28.3025 72.4477 27.2752 72.3672 26.2411C71.361 26.118 70.1715 25.8486 69.7767 24.7929C69.6524 24.4605 69.6302 24.0929 69.6097 23.7331L69.3542 19.2722C69.3249 18.7579 69.2971 18.2277 69.4444 17.7414C69.7034 16.8875 70.4426 16.3479 71.1764 15.994C73.0486 15.0909 75.2795 15.0049 77.102 16.0519C77.587 16.3305 78.0501 16.6974 78.3472 17.213C78.8053 18.0081 78.8034 19.0198 78.7858 19.9661C78.7696 20.8395 78.7534 21.7131 78.7373 22.5866C78.7184 23.5913 78.63 24.7513 77.9003 25.3201C77.5127 25.6219 76.9965 25.701 76.6685 26.0826C76.0903 26.7555 76.426 27.8805 76.2457 28.798" fill="#F4CDAF"/>
<path fill-rule="evenodd" clip-rule="evenodd" d="M73.1256 24.672C73.5734 24.9481 74.0264 24.9278 74.4989 24.7541C74.7415 24.6647 74.8674 25.0838 74.625 25.173C74.0549 25.3828 73.4812 25.3937 72.9437 25.0623C72.7197 24.9241 72.9006 24.533 73.1256 24.672ZM69.3934 24.6128C69.6184 25.5292 70.0986 26.3904 70.8578 26.8716C71.7184 27.417 72.7633 27.4039 73.7513 27.3756C74.2917 27.3602 74.8319 27.3447 75.3723 27.3293C76.7393 27.29 78.0885 27.0368 78.7174 25.5218C79.0071 24.823 79.0704 24.0252 78.9841 23.2595C78.9603 23.0491 78.9234 22.8332 78.8172 22.6563C78.7109 22.4795 78.5196 22.3496 78.3315 22.3869C78.0914 22.4345 77.9593 22.7101 77.814 22.9265C77.4966 23.3986 76.9088 23.6837 76.4113 23.4666C76.2639 23.4023 76.134 23.3002 76.0048 23.1971C75.9519 23.1548 75.899 23.1124 75.8452 23.0724C75.3108 22.6747 74.6725 22.5132 74.0401 22.4621C73.4914 22.4178 72.6787 22.254 72.2983 22.7526C72.0768 23.0425 71.8553 23.3325 71.634 23.6225C71.5427 23.742 71.4494 23.8636 71.3277 23.9435C71.2027 24.0258 71.0552 24.0583 70.9097 24.0686C70.5433 24.0947 70.123 23.9426 69.9794 23.5668C69.9168 23.4032 69.9154 23.2209 69.9001 23.0443C69.8846 22.8677 69.8493 22.6813 69.7371 22.5541C69.308 22.0675 69.2313 22.8819 69.2291 23.1585C69.2248 23.6477 69.277 24.1395 69.3934 24.6128Z" fill="#1B2749"/>
<path fill-rule="evenodd" clip-rule="evenodd" d="M68.6189 15.109C68.5055 14.7537 68.4169 14.39 68.3533 14.0215C68.6933 14.1243 69.0586 14.1371 69.4045 14.0582C69.3945 13.8443 69.3847 13.6304 69.3748 13.4165C69.3674 13.2385 71.7027 12.9899 71.8923 12.9638C73.6659 12.7193 75.2878 12.4903 76.9477 13.3877C78.3655 14.154 79.3104 15.3608 79.6033 16.981C79.883 18.5289 79.4888 20.5906 78.6766 21.9306C78.6608 21.5154 78.8442 20.5243 78.7292 20.135C78.651 19.7429 78.4991 19.3689 78.2983 19.0269C77.897 18.3439 77.3007 17.7826 76.6245 17.3955C75.5469 16.7784 74.3153 16.487 73.0944 16.3776C71.9756 16.2774 70.6147 16.2022 69.5325 16.5629C69.0123 16.7361 68.9316 16.8767 68.5848 16.3465C68.5236 16.2529 68.0207 15.15 68.0643 15.147L68.6189 15.109Z" fill="#1B2749"/>
<path fill-rule="evenodd" clip-rule="evenodd" d="M54.0698 109.668H49.3429C48.3182 109.668 47.4877 108.83 47.4877 107.796L43.425 93.8779C43.425 92.8438 44.2559 92.0054 45.2804 92.0054L55.6323 95.1594C56.657 95.1594 57.4874 95.9979 57.4874 97.0319L55.9251 107.796C55.9251 108.83 55.0943 109.668 54.0698 109.668" fill="#F1B39B"/>
<path fill-rule="evenodd" clip-rule="evenodd" d="M86.6862 109.668H91.4133C92.4378 109.668 93.2683 108.83 93.2683 107.796L97.331 93.8779C97.331 92.8438 96.5001 92.0054 95.4756 92.0054L85.1237 95.1594C84.0992 95.1594 83.2686 95.9979 83.2686 97.0319L84.831 107.796C84.831 108.83 85.6617 109.668 86.6862 109.668" fill="#F1B39B"/>
<path fill-rule="evenodd" clip-rule="evenodd" d="M72.8381 49.5349V54.5205H68.2705V49.5349C49.1968 50.5308 39.3045 64.0162 39.3045 79.4378C39.3045 95.4638 53.2955 108.455 70.5543 108.455C87.813 108.455 101.804 95.4638 101.804 79.4378C101.804 64.0157 91.9297 50.5297 72.8381 49.5349" fill="#F6C5B0"/>
<path fill-rule="evenodd" clip-rule="evenodd" d="M43.8948 46.4944C43.7779 46.4833 43.6624 46.5388 43.5991 46.6397C43.5361 46.7404 37.3945 56.8145 44.9587 67.1134C45.0195 67.1962 45.1139 67.241 45.2099 67.241C45.2635 67.241 45.3175 67.2269 45.3665 67.1983L59.5926 58.8628C59.7311 58.7816 59.7862 58.6078 59.7206 58.4605C59.6723 58.3521 54.7626 47.6073 43.8948 46.4944" fill="#F6C5B0"/>
<path fill-rule="evenodd" clip-rule="evenodd" d="M96.0634 46.6398C96.0003 46.5387 95.8832 46.4839 95.7677 46.4944C84.8996 47.6072 79.9899 58.3522 79.9416 58.4606C79.8758 58.6077 79.931 58.7814 80.0695 58.8628L94.2956 67.1984C94.3448 67.227 94.3988 67.2408 94.4521 67.2408C94.5484 67.2408 94.6426 67.1963 94.7036 67.1133C102.268 56.8146 96.1262 46.7405 96.0634 46.6398" fill="#F6C5B0"/>
<path fill-rule="evenodd" clip-rule="evenodd" d="M82.8033 83.4404C82.8033 88.5454 77.3193 92.6837 70.5542 92.6837C63.7894 92.6837 58.3052 88.5454 58.3052 83.4404C58.3052 78.3355 63.7894 74.1973 70.5542 74.1973C77.3193 74.1973 82.8033 78.3355 82.8033 83.4404" fill="#F1B39B"/>
<path fill-rule="evenodd" clip-rule="evenodd" d="M65.8228 55.4974V52.459C52.0874 53.9616 41.4534 64.3429 41.4534 76.9272C41.4534 82.585 43.6041 87.7965 47.2187 91.9573C44.8681 88.3395 43.5232 84.1432 43.5232 79.6683C43.5232 67.724 53.1035 57.7642 65.8228 55.4974" fill="#FBD6C9"/>
<path fill-rule="evenodd" clip-rule="evenodd" d="M46.8772 98.3754V98.3754C52.608 104.548 61.0894 108.455 70.5543 108.455C87.8129 108.455 101.804 95.4637 101.804 79.4377C101.804 76.0436 101.325 72.7435 100.375 69.6493C89.3617 116.766 46.8772 98.3754 46.8772 98.3754" fill="#EBB29A"/>
<path fill-rule="evenodd" clip-rule="evenodd" d="M82.6597 82.0231C77.0864 91.2582 67.2349 90.7133 62.2287 90.2181C64.4142 91.7474 67.3388 92.6837 70.5543 92.6837C77.3192 92.6837 82.8032 88.5453 82.8032 83.4404C82.8032 82.9584 82.7539 82.4852 82.6597 82.0231" fill="#EBB29A"/>
<path fill-rule="evenodd" clip-rule="evenodd" d="M44.7093 48.0061C44.7093 48.0061 41.9746 50.8879 42.156 58.2152C42.156 58.2152 43.055 50.4841 46.8772 48.4024L44.7093 48.0061Z" fill="#FBD6C9"/>
<path fill-rule="evenodd" clip-rule="evenodd" d="M59.1942 82.9454C59.1942 82.9454 60.1951 77.1925 66.7262 75.8088C66.7262 75.8088 62.435 77.7417 59.1942 82.9454" fill="#F6C5B0"/>
<path fill-rule="evenodd" clip-rule="evenodd" d="M85.5276 109.257C85.8453 109.514 86.2477 109.668 86.6863 109.668H91.4131C92.4378 109.668 93.2685 108.83 93.2685 107.796L94.7102 102.856C91.1724 106.995 87.7019 108.62 85.5276 109.257" fill="#EBB29A"/>
<path fill-rule="evenodd" clip-rule="evenodd" d="M66.9868 82.9454C66.9868 83.9942 66.487 84.8444 65.8707 84.8444C65.2543 84.8444 64.7547 83.9942 64.7547 82.9454C64.7547 81.8968 65.2543 81.0466 65.8707 81.0466C66.487 81.0466 66.9868 81.8968 66.9868 82.9454" fill="#DF9A80"/>
<path fill-rule="evenodd" clip-rule="evenodd" d="M76.3539 82.9454C76.3539 83.9942 75.8541 84.8444 75.2377 84.8444C74.6214 84.8444 74.1216 83.9942 74.1216 82.9454C74.1216 81.8968 74.6214 81.0466 75.2377 81.0466C75.8541 81.0466 76.3539 81.8968 76.3539 82.9454" fill="#DF9A80"/>
<path fill-rule="evenodd" clip-rule="evenodd" d="M72.1881 49.1177C72.299 49.1287 72.4145 49.1401 72.5184 49.0994C72.6232 49.0586 72.7011 48.9704 72.7847 48.8946C73.2859 48.4399 74.0554 48.4019 74.6921 48.6236C75.2178 48.8066 75.8304 49.1657 76.2161 49.5767C76.6108 49.9969 76.6208 50.8074 76.6813 51.3788C76.6971 51.5293 76.7094 51.6871 76.6521 51.8269C76.6148 51.9173 76.551 51.9937 76.4884 52.0682C76.3909 52.1842 76.2935 52.3004 76.1959 52.4162C75.6687 53.0434 74.6809 52.8204 73.9468 52.8306C73.6251 52.8348 73.2307 52.7949 73.1008 52.4973C72.996 52.2569 73.1072 51.9152 72.8992 51.7574C72.8039 51.6853 72.6749 51.6851 72.5557 51.6878C71.2949 51.718 70.0342 51.7482 68.7734 51.778C68.7518 51.0721 68.368 49.1545 69.0172 48.9052C69.2252 48.8253 70.1599 49.0207 70.4194 49.0228C71.0101 49.0278 71.6004 49.0593 72.1881 49.1177" fill="#F4CDAF"/>
<path fill-rule="evenodd" clip-rule="evenodd" d="M59.3197 45.3097C58.4497 46.9178 57.4042 48.7141 57.0871 50.5434C56.8981 51.6345 57.6002 52.6768 58.4762 53.2457C59.576 53.9598 60.7609 53.7684 62.0131 53.716C62.7753 53.6842 70.8527 53.2446 70.8524 52.8841L70.8481 48.2227C68.8091 47.8178 66.7512 47.5148 64.6845 47.3153C66.2296 44.9812 74.9943 31.1365 70.9171 29.5662C67.0346 28.0711 60.8435 42.4936 59.3197 45.3097" fill="#FA7268"/>
</svg>
