<svg width="164" height="112" viewBox="0 0 164 112" fill="none" xmlns="http://www.w3.org/2000/svg">
<path fill-rule="evenodd" clip-rule="evenodd" d="M125.641 47.0185C124.796 46.397 124.024 45.6868 123.327 44.9418C121.503 42.9908 120.086 40.7658 118.35 38.7522C118.285 38.6769 118.216 38.5925 118.224 38.4978C118.23 38.4257 118.28 38.3628 118.331 38.3063C119.013 37.5483 121.271 36.3817 122.422 36.5684C123.013 36.6642 123.287 37.2399 123.689 37.7244C124.637 38.8661 125.584 40.0078 126.532 41.1494C127.347 38.9301 128.163 36.7109 128.978 34.4916C129.354 33.4691 129.736 32.4352 130.373 31.5207C130.476 31.3725 130.598 31.219 130.783 31.1604C131.045 31.0773 131.327 31.2139 131.554 31.3569C133.019 32.2797 134.069 33.7107 134.426 35.2752C134.716 36.5434 134.564 37.8571 134.341 39.136C133.766 42.4313 132.722 45.6616 131.241 48.7259C131.185 48.8428 131.124 48.964 131.013 49.0438C130.819 49.1831 130.538 49.1556 130.295 49.1113C128.565 48.7984 127.008 48.0247 125.641 47.0185" fill="#C8E7F5"/>
<path fill-rule="evenodd" clip-rule="evenodd" d="M118.497 33.1485C118.592 33.1499 118.687 33.1531 118.782 33.1567C119.588 33.1865 120.431 33.2508 121.109 33.638C121.493 33.8569 121.828 34.26 121.679 34.6429C121.593 34.8663 121.367 35.018 121.18 35.1861C119.974 36.2725 123.169 38.2614 121.624 39.4014C121.418 39.5533 121.206 39.708 120.956 39.7782C120.752 39.8356 120.534 39.8331 120.319 39.8205C120.152 39.8106 119.886 39.8338 119.773 39.7148C119.654 39.5899 119.617 39.1683 119.569 39.0011C119.433 38.5235 119.297 38.0457 119.161 37.5681C119.028 37.0996 118.826 36.5582 118.353 36.4077C118.25 36.3747 118.139 36.364 118.041 36.3177C117.929 36.2656 117.843 36.173 117.763 36.0808C117.368 35.6269 116.4 34.5502 116.645 33.9333C116.783 33.5866 117.155 33.3457 117.551 33.2395C117.856 33.1576 118.176 33.1435 118.497 33.1485" fill="#D4AA8C"/>
<path fill-rule="evenodd" clip-rule="evenodd" d="M130.867 107.945C130.315 107.918 129.763 107.89 129.21 107.863C128.942 106.048 128.832 104.188 128.882 102.339C129.647 102.711 130.708 102.483 130.852 103.753C130.898 104.164 130.757 107.94 130.867 107.945" fill="#ECD1BD"/>
<path fill-rule="evenodd" clip-rule="evenodd" d="M129.235 107.006C128.965 107.039 128.711 107.206 128.54 107.462C128.44 107.611 128.366 107.79 128.244 107.911C128.125 108.029 127.971 108.079 127.822 108.126C127.109 108.351 126.58 108.413 125.904 108.775C125.662 108.904 125.399 108.998 125.127 109.052C125.044 109.069 124.957 109.084 124.893 109.135C124.817 109.196 124.793 109.296 124.791 109.389C124.783 109.775 125.083 110.125 125.457 110.297C125.903 110.502 126.422 110.531 126.882 110.709C127.422 110.918 127.997 110.923 128.569 110.836C129.728 110.66 130.796 110.143 131.836 109.664C131.929 109.621 132.025 109.573 132.084 109.475C132.148 109.37 132.156 109.229 132.159 109.095C132.177 108.353 132.22 107.222 131.379 107.214C131.019 107.211 130.687 107.474 130.302 107.445C129.986 107.421 129.479 106.977 129.235 107.006" fill="#1C1E1E"/>
<path fill-rule="evenodd" clip-rule="evenodd" d="M122.225 81.8076C122.044 82.5332 121.864 83.265 121.845 84.0088C121.824 84.8094 121.991 85.602 122.157 86.3873C123.639 93.38 125.12 100.373 126.602 107.365C127.834 107.334 129.067 107.303 130.3 107.271C130.855 107.257 131.863 106.884 132.395 106.735C132.395 106.735 132.483 106.069 132.454 105.597C131.952 97.222 130.797 90.8515 131.653 83.4989C131.868 81.6505 133.118 80.4676 134.21 78.903C137.923 73.5879 138.851 69.0225 140.597 65.4902C140.707 65.2667 130.473 63.8748 129.967 63.806C128.682 63.6312 127.577 63.606 126.81 64.704C125.962 65.9175 125.803 67.7053 125.449 69.0742C124.932 71.0809 124.418 73.0884 123.909 75.0968C123.342 77.3327 122.781 79.5696 122.225 81.8076" fill="#002D51"/>
<path fill-rule="evenodd" clip-rule="evenodd" d="M143.75 108.629C143.157 108.651 142.563 108.673 141.97 108.695C141.474 106.851 141.143 104.948 140.984 103.04C141.845 103.354 142.954 103.023 143.253 104.317C143.35 104.736 143.633 108.634 143.75 108.629" fill="#ECD1BD"/>
<path fill-rule="evenodd" clip-rule="evenodd" d="M141.898 107.811C141.612 107.87 141.36 108.064 141.206 108.343C141.117 108.506 141.058 108.696 140.942 108.831C140.828 108.964 140.669 109.029 140.515 109.091C139.778 109.387 139.219 109.499 138.538 109.932C138.294 110.087 138.024 110.208 137.738 110.288C137.652 110.313 137.56 110.336 137.498 110.395C137.424 110.465 137.41 110.57 137.418 110.666C137.454 111.064 137.815 111.396 138.235 111.539C138.735 111.71 139.294 111.693 139.806 111.834C140.408 112 141.023 111.953 141.625 111.812C142.844 111.527 143.928 110.897 144.985 110.31C145.079 110.258 145.177 110.2 145.229 110.094C145.284 109.98 145.276 109.834 145.265 109.696C145.199 108.931 145.115 107.763 144.214 107.831C143.829 107.86 143.505 108.161 143.089 108.166C142.748 108.17 142.155 107.759 141.898 107.811" fill="#1C1E1E"/>
<path fill-rule="evenodd" clip-rule="evenodd" d="M136.765 92.2458C137.807 97.1264 139.348 101.969 139.423 106.936C139.427 107.169 139.435 107.423 139.602 107.602C139.769 107.781 140.048 107.836 140.306 107.87C141.953 108.092 143.663 107.933 145.222 107.412C145.388 104.825 144.684 102.264 144.361 99.6891C143.962 96.5153 144.14 93.3092 144.331 90.1205C144.797 82.3341 147.92 74.2358 147.607 66.4435C147.547 64.9678 144.868 63.7686 144.296 62.3821C140.8 62.8682 137.176 62.6123 133.81 61.6417C133.854 63.2406 134.174 64.6753 134.37 66.2369C134.628 68.2933 134.51 70.4325 134.595 72.5013C134.769 76.7262 135.037 80.9515 135.573 85.1538C135.876 87.5293 136.263 89.8968 136.765 92.2458" fill="#002D51"/>
<path fill-rule="evenodd" clip-rule="evenodd" d="M142.702 29.4261C143.48 29.7127 144.17 30.0892 144.694 30.5687C146.347 32.0818 147.661 34.1634 148.692 36.066C150.804 39.9622 152.18 44.3226 152.715 48.6445C153.618 55.9352 152.385 63.3261 150.722 70.5203C140.682 67.6006 130.548 64.9546 120.338 62.5866C121.435 62.841 125.094 57.4156 125.637 56.5958C127.046 54.466 128.689 51.7617 128.984 49.2362C129.507 44.7681 128.463 40.2687 129.173 35.809C129.442 34.1133 129.349 32.5889 130.719 31.2983C132.194 29.9083 134.234 29.0322 136.326 28.7714C138.13 28.5465 140.704 28.6898 142.702 29.4261" fill="#FA7268"/>
<path fill-rule="evenodd" clip-rule="evenodd" d="M136.048 30.1207C136.092 30.2262 138.173 30.1242 138.402 30.123C139.119 30.1189 139.471 29.9359 139.592 29.2542C139.723 28.5134 139.983 27.8337 140.421 27.1926C140.775 26.6736 141.316 26.3153 141.692 25.8156C142.023 25.375 142.298 24.9015 142.522 24.4106C142.887 23.6098 143.125 22.7618 143.274 21.9088C143.388 21.2549 143.149 20.616 143.096 19.956C143.055 19.4562 143.011 18.9414 142.758 18.4937C142.313 17.7082 141.326 17.2939 140.373 17.0578C137.659 16.386 132.496 16.618 132.062 19.8149C131.966 20.5165 132 21.2263 132.033 21.9326C132.104 23.4226 131.655 26.1708 133.501 27.0061C134.022 27.2417 134.667 27.244 135.127 27.5647C135.936 28.1304 135.691 29.2623 136.048 30.1207" fill="#D4AA8C"/>
<path fill-rule="evenodd" clip-rule="evenodd" d="M148.619 17.5896C147.88 17.2537 147.349 16.6487 146.825 16.0771C146.3 15.5055 145.718 14.9235 144.941 14.6697C144.236 14.4395 143.468 14.5127 142.732 14.3986C141.957 14.2783 141.236 13.9532 140.484 13.7352C138.316 13.1059 135.859 13.4276 134.098 14.596C133.051 15.2909 131.217 17.0131 131.685 18.3277C131.787 18.6141 132.034 18.8568 132.344 18.9753C132.757 19.1327 133.27 19.0244 133.664 19.2027C133.956 19.3351 134.07 19.5616 134.241 19.8145C134.614 20.3642 134.955 20.9487 135.557 21.3318C136.129 21.6964 136.852 21.8064 137.547 21.9066C137.701 21.9286 137.864 21.9501 138.009 21.8996C138.22 21.8264 138.332 21.6276 138.47 21.4688C138.738 21.1627 139.208 20.9727 139.624 21.0903C140.04 21.2078 140.301 21.6914 140.065 22.0174C139.824 22.3486 139.293 22.3499 138.85 22.3572C138.715 22.3593 138.546 22.3881 138.512 22.5044C138.49 22.5828 138.544 22.6608 138.595 22.7276L140.198 24.8117C140.524 25.2351 141.153 26.5975 141.87 26.1317C143.08 25.3454 143.419 24.055 144.541 23.3004C145.054 22.955 145.535 22.5725 145.977 22.158C146.824 21.3624 147.385 20.3631 148.385 19.7013C148.763 19.4511 149.207 19.2838 149.59 19.0387C150.228 18.6301 150.677 18.0043 150.828 17.3135C150.375 17.8931 149.357 17.9258 148.619 17.5896" fill="#1B2749"/>
<path fill-rule="evenodd" clip-rule="evenodd" d="M155.131 66.7087L112.626 61.1155C111.745 60.9997 111.132 60.2602 111.263 59.4722L115.204 35.8335C115.335 35.0455 116.163 34.4956 117.044 34.6116L159.549 40.2046C160.43 40.3204 161.043 41.0601 160.912 41.8481L156.971 65.4868C156.84 66.2748 156.012 66.8245 155.131 66.7087" fill="#00BECE"/>
<path fill-rule="evenodd" clip-rule="evenodd" d="M112.919 60.6772L154.687 66.1733C155.568 66.2892 156.396 65.7393 156.527 64.9515L158.768 51.5104C145.713 60.9064 123.104 61.1041 112.919 60.6772" fill="#00BECE"/>
<path fill-rule="evenodd" clip-rule="evenodd" d="M122.812 50.1381L115.871 49.2247C115.581 49.1867 115.379 48.9447 115.422 48.687L116.153 44.3024C116.196 44.045 116.468 43.8653 116.758 43.9035L123.699 44.817C123.989 44.8552 124.191 45.097 124.148 45.3546L123.417 49.7392C123.375 49.9969 123.102 50.1763 122.812 50.1381" fill="#FFD54D"/>
<path fill-rule="evenodd" clip-rule="evenodd" d="M123.499 49.2524L123.861 47.078C121.636 48.4825 117.934 48.8247 115.689 48.8958C115.854 49.1045 116.108 49.2561 116.412 49.2959L122.272 50.067C122.859 50.1443 123.411 49.7777 123.499 49.2524" fill="#D1A458"/>
<path fill-rule="evenodd" clip-rule="evenodd" d="M123.849 54.7974L114.606 53.581L115.044 50.9546L124.287 52.1708L123.849 54.7974Z" fill="white"/>
<path fill-rule="evenodd" clip-rule="evenodd" d="M134.16 56.1541L124.917 54.9378L125.354 52.3112L134.598 53.5276L134.16 56.1541Z" fill="white"/>
<path fill-rule="evenodd" clip-rule="evenodd" d="M144.47 57.5108L135.227 56.2944L135.665 53.6681L144.908 54.8842L144.47 57.5108Z" fill="white"/>
<path fill-rule="evenodd" clip-rule="evenodd" d="M154.781 58.8676L145.537 57.6512L145.975 55.0247L155.218 56.241L154.781 58.8676Z" fill="white"/>
<path opacity="0.723331" fill-rule="evenodd" clip-rule="evenodd" d="M148.379 44.4949C148.519 43.6572 149.112 42.9802 149.902 42.6313C149.504 42.2988 148.994 42.0666 148.415 41.9904C146.899 41.7911 145.487 42.7286 145.261 44.0845C145.035 45.4405 146.081 46.7014 147.596 46.9009C148.176 46.9772 148.74 46.8862 149.228 46.6705C148.586 46.1332 148.24 45.3324 148.379 44.4949" fill="white"/>
<path fill-rule="evenodd" clip-rule="evenodd" d="M151.498 44.9052C151.637 44.0675 152.23 43.3906 153.02 43.0416C152.623 42.7092 152.113 42.477 151.533 42.4008C150.954 42.3245 150.39 42.4155 149.902 42.6314C150.544 43.1687 150.89 43.9693 150.751 44.807C150.611 45.6445 150.018 46.3215 149.228 46.6704C149.626 47.0029 150.135 47.2351 150.715 47.3113C151.294 47.3875 151.858 47.2966 152.347 47.0809C151.705 46.5434 151.358 45.7428 151.498 44.9052" fill="white"/>
<path fill-rule="evenodd" clip-rule="evenodd" d="M150.751 44.807C150.89 43.9692 150.544 43.1686 149.902 42.6313C149.112 42.9803 148.519 43.6572 148.379 44.495C148.239 45.3325 148.586 46.1331 149.228 46.6704C150.018 46.3214 150.611 45.6445 150.751 44.807" fill="#005467"/>
<path opacity="0.723331" fill-rule="evenodd" clip-rule="evenodd" d="M154.652 42.8112C154.072 42.7349 153.509 42.8259 153.02 43.0416C153.662 43.5791 154.009 44.3797 153.869 45.2172C153.73 46.055 153.136 46.7319 152.347 47.0808C152.744 47.4133 153.254 47.6453 153.833 47.7217C155.349 47.9211 156.762 46.9837 156.987 45.6276C157.214 44.2716 156.168 43.0107 154.652 42.8112" fill="white"/>
<path fill-rule="evenodd" clip-rule="evenodd" d="M153.869 45.2172C154.009 44.3797 153.662 43.5791 153.02 43.0416C152.23 43.3906 151.637 44.0675 151.498 44.9052C151.358 45.7428 151.705 46.5434 152.347 47.0808C153.137 46.7319 153.73 46.055 153.869 45.2172" fill="#002D51"/>
<path fill-rule="evenodd" clip-rule="evenodd" d="M154.336 61.5339L134.782 58.9608L134.915 58.165L154.469 60.7381L154.336 61.5339Z" fill="white"/>
<path fill-rule="evenodd" clip-rule="evenodd" d="M154.051 63.2451L139.119 61.2802L139.251 60.4842L154.184 62.4491L154.051 63.2451Z" fill="#E7E7E7"/>
<path fill-rule="evenodd" clip-rule="evenodd" d="M124.051 45.9369L124.083 45.7459L120.192 45.2339L120.335 44.3743L120.122 44.3462L119.979 45.2058L116.088 44.6937L116.056 44.8847L119.947 45.3968L119.81 46.2159L115.919 45.7038L115.887 45.8948L119.778 46.4071L119.777 46.414L119.893 46.4218C119.932 46.425 120.856 46.4929 120.833 47.1352C120.833 47.1368 120.825 47.3219 120.644 47.4615C120.451 47.6104 120.135 47.6598 119.705 47.6078L115.69 47.0795L115.658 47.2704L119.568 47.7849L119.429 48.6193L115.519 48.1047L115.487 48.2957L119.397 48.8103L119.254 49.6699L119.467 49.6979L119.61 48.8383L123.483 49.3479L123.514 49.1569L119.642 48.6473L119.782 47.8101C120.223 47.8489 120.56 47.7806 120.785 47.6076C120.949 47.4816 121.011 47.3306 121.034 47.2347L123.775 47.5952L123.807 47.4043L121.046 47.041C121 46.5128 120.419 46.296 120.024 46.2411L120.16 45.4249L124.051 45.9369Z" fill="white"/>
<path fill-rule="evenodd" clip-rule="evenodd" d="M154.336 61.5339L154.469 60.7379L140.21 58.8617C139.357 59.0344 138.501 59.1928 137.646 59.3376L154.336 61.5339Z" fill="#E7E7E7"/>
<path fill-rule="evenodd" clip-rule="evenodd" d="M155.218 56.2411L151.039 55.691C149.27 56.4098 147.431 57.0326 145.551 57.5699L145.537 57.6513L154.781 58.8676L155.218 56.2411Z" fill="#E7E7E7"/>
<path fill-rule="evenodd" clip-rule="evenodd" d="M115.698 36.1424L115.013 40.2513C115.425 38.5225 116.997 34.8493 122.868 35.622L117.538 34.9206C116.657 34.8047 115.829 35.3544 115.698 36.1424" fill="#00BECE"/>
<path fill-rule="evenodd" clip-rule="evenodd" d="M151.211 16.5185C151.101 16.5384 150.992 16.5597 150.884 16.5823C150.818 16.5959 150.751 16.6109 150.697 16.6459C150.644 16.6802 150.608 16.7306 150.574 16.7805C150.19 17.3436 149.987 17.9315 149.783 18.5576C149.707 18.7907 149.687 18.8089 149.85 19.0171C150.03 19.2483 150.242 19.4668 150.445 19.6832C150.596 20.0421 150.763 20.3958 150.88 20.7652C151.173 21.7 150.677 23.9511 152.022 24.2386C152.282 24.2944 152.549 24.3502 152.807 24.3153C153.019 24.2869 153.214 24.199 153.4 24.1034C153.546 24.0289 153.796 23.9456 153.838 23.7946C153.883 23.6359 153.707 23.2431 153.666 23.0743L153.321 21.6284C153.208 21.1556 153.12 20.5908 153.47 20.2701C153.547 20.2 153.641 20.1469 153.706 20.067C153.78 19.9765 153.811 19.8598 153.838 19.7456C153.934 19.3271 153.997 18.8888 153.989 18.454C153.981 18.0569 153.695 17.8979 153.417 17.6323C153.127 17.355 153.043 16.9683 152.785 16.6734C152.526 16.3769 152.171 16.3742 151.768 16.4295C151.582 16.4552 151.396 16.4849 151.211 16.5185" fill="#D4AA8C"/>
<path fill-rule="evenodd" clip-rule="evenodd" d="M155.856 34.3849C155.829 33.3487 155.783 32.2935 155.812 31.2108C155.893 28.1777 155.483 25.1072 154.6 22.1455C153.126 22.0363 151.646 22.2129 150.273 22.662C150.466 26.0529 150.506 29.4989 148.959 32.6626C148.896 32.7896 148.807 32.9312 148.653 32.9522C148.503 32.9726 148.371 32.8674 148.268 32.769C147.253 31.8044 146.409 30.6637 145.16 29.9491C143.91 29.2344 142.041 29.1098 141.09 30.1245C140.482 30.7739 140.417 31.7047 140.579 32.5373C140.828 33.821 141.538 35.0004 142.374 36.0705C143.675 37.7355 145.307 39.1956 147.172 40.3626C148.45 41.1618 149.843 41.83 150.981 42.7811C151.301 43.0487 151.625 43.3502 152.054 43.4353C152.848 43.5927 153.542 42.9513 153.982 42.3428C155.872 39.7258 155.928 37.1225 155.856 34.3849" fill="#FA7268"/>
<mask id="mask0_35_471" style="mask-type:alpha" maskUnits="userSpaceOnUse" x="146" y="0" width="15" height="13">
<path fill-rule="evenodd" clip-rule="evenodd" d="M146.316 0.654648H160.209V12.4795H146.316V0.654648Z" fill="white"/>
</mask>
<g mask="url(#mask0_35_471)">
<path fill-rule="evenodd" clip-rule="evenodd" d="M160.209 12.4795H158.289V6.83252C158.289 4.36766 156.034 2.36243 153.263 2.36243C150.491 2.36243 148.236 4.36766 148.236 6.83252V12.4795H146.316V6.83252C146.316 3.42598 149.432 0.654631 153.263 0.654631C157.093 0.654631 160.209 3.42598 160.209 6.83252V12.4795Z" fill="#FFAC00"/>
</g>
<path fill-rule="evenodd" clip-rule="evenodd" d="M163.149 21.0265C163.149 21.3923 162.816 21.6887 162.404 21.6887H144.121C143.71 21.6887 143.376 21.3923 143.376 21.0265V10.462C143.376 10.0962 143.71 9.79985 144.121 9.79985H162.404C162.816 9.79985 163.149 10.0962 163.149 10.462V21.0265Z" fill="#FFAC00"/>
<path fill-rule="evenodd" clip-rule="evenodd" d="M163.149 21.0265V14.5535C157.126 19.0856 148.44 20.7884 143.519 21.4133C143.654 21.5796 143.873 21.6887 144.121 21.6887H162.404C162.816 21.6887 163.149 21.3923 163.149 21.0265" fill="#FFAC00"/>
<path fill-rule="evenodd" clip-rule="evenodd" d="M154.897 13.9538C154.897 13.1513 154.165 12.5008 153.263 12.5008C152.36 12.5008 151.629 13.1513 151.629 13.9538C151.629 14.4323 151.89 14.8553 152.291 15.1201L151.771 18.406H154.754L154.234 15.1201C154.636 14.8553 154.897 14.4323 154.897 13.9538" fill="#1B2749"/>
<path fill-rule="evenodd" clip-rule="evenodd" d="M144 11.0527V13.3276C144.068 12.3616 144.59 10.2595 147.86 10.2595H144.892C144.401 10.2595 144 10.6163 144 11.0527" fill="#FFAC00"/>
<path fill-rule="evenodd" clip-rule="evenodd" d="M151.771 18.406C151.771 18.406 153.985 17.8494 154.234 15.1201L154.754 18.406H151.771Z" fill="#1B2749"/>
<path fill-rule="evenodd" clip-rule="evenodd" d="M119.698 36.313C119.426 36.1605 119.274 35.8563 119.328 35.5749C119.36 35.4075 119.458 35.2556 119.509 35.0918C119.56 34.9282 119.554 34.7302 119.413 34.6153C119.196 34.4378 118.763 34.5341 118.631 34.2994C118.532 34.1217 118.711 33.9208 118.895 33.8076C119.745 33.284 121.446 33.4497 121.539 34.5874C121.594 35.2745 120.637 36.8401 119.698 36.313" fill="#D4AA8C"/>
<path fill-rule="evenodd" clip-rule="evenodd" d="M21.2222 105.335C20.6063 105.508 19.9796 105.437 19.3563 105.508C18.862 103.597 18.5926 101.721 18.5378 99.7402C19.7373 100.466 20.3832 99.753 20.8315 101.509C20.9765 102.077 20.8627 104.501 21.2222 105.335" fill="#ECD1BD"/>
<path fill-rule="evenodd" clip-rule="evenodd" d="M18.9591 104.59C18.1849 104.518 18.4392 106.064 18.5314 106.42C18.5868 106.635 18.675 106.846 18.6708 107.066C18.666 107.308 18.5496 107.535 18.4356 107.755C18.1967 108.215 17.9577 108.674 17.7189 109.134C17.6115 109.341 17.5026 109.552 17.4768 109.779C17.4128 110.34 17.9213 110.879 18.5398 111.007C20.6865 111.45 21.8615 108.995 21.8987 107.534C21.9045 107.31 21.8919 107.086 21.8795 106.863C21.8537 106.4 21.9655 105.354 21.6493 104.965C21.2806 104.512 20.6831 105.028 20.1736 104.937C19.701 104.853 19.2723 104.62 18.9591 104.59" fill="#002D51"/>
<path fill-rule="evenodd" clip-rule="evenodd" d="M24.2347 71.4322C23.6372 76.1279 22.7391 80.7888 22.8061 85.554C22.8889 91.4409 22.0468 97.3816 22.3825 103.227C21.6143 103.417 20.8302 103.556 20.0387 103.642C19.1312 103.741 17.6731 103.833 17.1195 103.046C16.8366 102.644 16.8138 101.895 16.7138 101.436C16.3935 99.963 16.1111 98.4837 15.8321 97.0046C15.0437 92.8195 14.134 88.6073 13.8718 84.3698C13.5959 79.9122 13.2779 75.4481 12.8944 71.0143C12.6962 68.7226 12.5962 66.4244 12.6182 64.1259C12.6238 63.5337 12.6996 57.426 13.0372 57.4016C17.043 57.1106 20.962 57.4627 24.806 58.5039C25.1797 58.6052 25.5511 58.7416 25.7486 59.0233C25.9464 59.3049 25.9158 59.5909 25.887 59.8915C25.6113 62.7592 24.9558 65.5343 24.611 68.4058C24.4908 69.4049 24.3652 70.405 24.2347 71.4322" fill="#002D51"/>
<path fill-rule="evenodd" clip-rule="evenodd" d="M26.8762 105.108C27.4921 105.281 28.1186 105.21 28.7419 105.281C29.2365 103.37 29.5056 101.494 29.5606 99.513C28.3612 100.239 27.7151 99.5258 27.2668 101.282C27.1218 101.85 27.2356 104.273 26.8762 105.108" fill="#ECD1BD"/>
<path fill-rule="evenodd" clip-rule="evenodd" d="M29.3319 104.681C29.4081 105.742 30.4284 106.832 31.0157 107.757C31.0849 107.866 31.1555 107.979 31.1669 108.103C31.1837 108.288 31.0679 108.46 30.9563 108.617C30.8015 108.835 30.6327 109.064 30.3698 109.173C30.1114 109.28 29.8107 109.25 29.5289 109.211C29.0578 109.147 28.5899 109.063 28.1273 108.96C28.0117 108.934 27.8942 108.907 27.7974 108.845C27.6826 108.773 27.609 108.661 27.5384 108.553C27.1775 107.997 26.8759 107.605 26.8481 106.965C26.8197 106.304 26.8651 105.615 26.6831 104.969C26.5938 104.655 26.476 104.254 26.7697 104.063C26.9967 103.915 27.4428 104.077 27.703 104.1C28.1617 104.14 28.5799 104.092 29.0132 104.281C29.1014 104.319 29.188 104.366 29.2458 104.437C29.3043 104.509 29.3255 104.593 29.3319 104.681" fill="#002D51"/>
<path fill-rule="evenodd" clip-rule="evenodd" d="M23.8637 71.2049C24.4614 75.9007 25.3592 80.5616 25.2922 85.327C25.2095 91.2137 26.0517 97.1544 25.7158 102.999C26.4841 103.19 27.2681 103.329 28.0596 103.415C28.9673 103.514 30.4253 103.606 30.9788 102.819C31.2617 102.417 31.2845 101.668 31.3847 101.208C31.7051 99.7358 31.9874 98.2565 32.2662 96.7775C33.0547 92.5924 33.9643 88.3801 34.2267 84.1428C34.5026 79.685 34.8206 75.2209 35.2039 70.7871C35.4021 68.4954 35.5023 66.1972 35.4803 63.8988C35.4745 63.3065 35.3989 57.1989 35.0614 57.1744C31.0556 56.8834 27.1366 57.2355 23.2923 58.2767C22.9186 58.378 22.5475 58.5146 22.3499 58.796C22.1521 59.0777 22.1825 59.3637 22.2113 59.6645C22.4871 62.532 23.1426 65.3071 23.4875 68.1788C23.6075 69.1777 23.7331 70.1778 23.8637 71.2049" fill="#002D51"/>
<path fill-rule="evenodd" clip-rule="evenodd" d="M19.6971 31.9607C19.7397 32.0243 19.7949 32.0846 19.8675 32.1405C20.1529 32.3612 20.5348 32.4742 20.9081 32.5007C21.3999 32.5353 21.8902 32.436 22.3679 32.3271C23.0134 32.18 22.9666 31.8413 23.024 31.3092C23.0554 31.0184 23.0674 30.7263 23.0712 30.4343C23.0734 30.2741 22.9636 29.7075 23.0702 29.5895C23.1424 29.5094 23.46 29.5174 23.5937 29.4454C23.8061 29.3315 23.9761 29.1338 24.0951 28.9444C24.2868 28.6391 24.3798 28.2937 24.4708 27.9535C24.629 27.3615 24.7874 26.7695 24.9455 26.1775C25.1073 25.5727 25.2697 24.9627 25.2915 24.3414C25.3245 23.4047 25.0623 22.0997 24.2232 21.4629C23.458 20.8819 22.3897 20.7231 21.4167 20.6671C20.1279 20.5932 18.8175 20.8748 17.7558 21.5393C17.3269 21.8076 16.9267 22.1469 16.694 22.5956C16.3352 23.2874 16.4252 24.1211 16.5238 24.8998C16.615 25.6187 16.706 26.3375 16.7972 27.0562C16.9019 27.8829 17.0855 28.8321 17.8166 29.2429C18.2048 29.461 18.6937 29.485 19.0332 29.7736C19.4584 30.135 19.4732 30.7117 19.5242 31.1971C19.5531 31.4744 19.5483 31.7388 19.6971 31.9607" fill="#F4CDAF"/>
<path fill-rule="evenodd" clip-rule="evenodd" d="M23.0867 22.4147C23.1355 22.4799 23.1773 22.5479 23.2109 22.6194C23.3866 22.9934 23.3164 23.4304 23.489 23.8057C23.7626 24.4005 24.5866 24.7214 24.7514 25.3472C24.8862 25.8589 24.5233 26.3727 24.5265 26.8983C24.5303 27.4723 24.9808 27.991 24.9566 28.5594C24.9356 29.0529 24.6338 29.7618 24.3323 30.1733C24.4257 30.0458 25.3529 30.0378 25.5835 29.8942C25.9368 29.6744 25.9698 29.5465 26.0552 29.2002C26.14 28.8566 26.0322 28.5284 26.177 28.1731C26.3546 27.7371 26.7589 27.4018 26.8763 26.9409C27.0365 26.312 26.6207 25.6809 26.6043 25.0363C26.5793 24.0605 27.4614 23.0907 27.0527 22.1848C26.8127 21.6532 26.1952 21.3394 25.8271 20.8693C25.5479 20.5123 25.4235 20.0802 25.2191 19.6851C25.0152 19.2901 24.6842 18.9017 24.2073 18.8049C23.9421 18.7512 23.6644 18.7948 23.3944 18.7654C22.9279 18.715 22.5248 18.4536 22.071 18.3447C21.4221 18.1891 20.3411 18.8225 20.0037 19.3217C19.669 19.8173 19.8832 20.2108 20.2895 20.6099C20.9658 21.2746 22.5132 21.648 23.0867 22.4147" fill="#1B2749"/>
<path fill-rule="evenodd" clip-rule="evenodd" d="M14.3243 20.0161C13.9609 20.2856 13.5034 20.491 13.1758 20.8007C12.5375 21.4041 12.4723 22.3159 12.5061 23.1435C12.5363 23.8803 12.2202 24.5541 12.3638 25.3157C12.4605 25.8274 12.7435 26.3343 13.2366 26.612C13.8505 26.958 14.777 26.9688 15.0814 27.5553C15.4119 28.1926 14.7086 29.0574 15.2107 29.5989C15.4877 29.8976 15.9908 29.9157 16.3704 30.1058C16.7939 30.3176 17.0327 30.725 17.3072 31.0814C17.582 31.4378 17.9813 31.7877 18.467 31.7699C18.4404 31.1134 18.4256 30.5928 18.0683 30.0109C17.8601 29.6719 17.274 29.0579 17.6626 28.6565C17.9023 28.3277 18.513 28.191 18.5016 27.7994C18.496 27.6155 18.3409 27.4672 18.2165 27.3203C17.7343 26.7513 17.634 25.963 17.8859 25.2871C18.1377 24.6109 18.7154 24.05 19.4135 23.7002C20.2316 23.2901 20.0828 23.1145 20.2776 22.3832C20.4565 21.7102 20.8675 21.5318 21.5196 21.2538C22.1053 21.0041 22.2889 20.8588 22.4754 20.3467C22.6118 19.972 22.7808 19.523 22.5166 19.1281C22.3067 18.8143 21.9537 18.6011 21.612 18.3984C20.8981 17.9746 20.0984 17.532 19.2477 17.6344C18.7754 17.6911 18.3429 17.914 17.8695 17.9645C17.5538 17.9981 17.2344 17.9533 16.9165 17.9615C16.3746 17.9757 15.8144 18.1534 15.3969 18.4638C14.9756 18.7768 15.0094 19.0781 14.7928 19.5014C14.6866 19.7087 14.519 19.8716 14.3243 20.0161" fill="#1B2749"/>
<path fill-rule="evenodd" clip-rule="evenodd" d="M16.0475 17.2146C16.0985 16.7532 16.0031 16.1612 15.5014 16.0341C15.2266 15.9647 14.9316 16.0741 14.6485 16.0391C14.0452 15.9645 13.797 15.3348 13.4521 14.889C13.4005 14.8222 13.3399 14.7551 13.2543 14.7266C13.1321 14.6863 12.9987 14.7357 12.8706 14.7568C12.2822 14.854 11.7949 14.3594 11.2234 14.202C10.5159 14.0072 9.67364 14.4393 9.50986 15.0813C9.44267 15.3451 9.47727 15.6225 9.41508 15.8872C9.16412 16.9598 7.45777 17.5053 7.49077 18.6003C7.51317 19.3405 8.37643 20.0025 8.10848 20.7036C7.9369 21.1518 7.32519 21.485 7.43058 21.9491C7.49837 22.2476 7.87391 22.4325 8.21566 22.4092C8.55741 22.386 8.85996 22.2017 9.10352 21.9874C9.49027 21.6472 9.76962 21.2229 10.1358 20.8651C10.5017 20.5074 11.002 20.2059 11.545 20.2358C12.0709 20.2645 12.5688 20.5993 13.0819 20.4932C13.4927 20.4083 13.7772 20.0624 14.1782 19.9469C14.5535 19.839 14.9594 19.9501 15.3536 19.9492C15.7481 19.9483 16.2178 19.7397 16.2036 19.3897C16.2002 19.3048 16.1675 19.2188 16.1917 19.1367C16.2596 18.9066 16.6936 18.8954 16.76 18.665C16.5352 18.3954 16.253 18.5122 16.0801 18.1536C15.9463 17.8761 16.0155 17.5042 16.0475 17.2146" fill="#1B2749"/>
<path fill-rule="evenodd" clip-rule="evenodd" d="M34.0065 20.1939C33.9037 20.2125 33.8015 20.2326 33.6993 20.2537C33.6381 20.2667 33.5753 20.2806 33.5243 20.3134C33.4745 20.3456 33.4407 20.3932 33.4087 20.4399C33.0482 20.9685 32.8572 21.5205 32.6663 22.1085C32.5949 22.3274 32.5759 22.3444 32.7282 22.5399C32.8976 22.757 33.0968 22.9622 33.287 23.1653C33.4287 23.5021 33.5861 23.8344 33.6953 24.1812C33.9713 25.0589 33.5051 27.1725 34.7679 27.4426C35.0121 27.4948 35.2625 27.5472 35.5056 27.5145C35.7044 27.4877 35.8874 27.4053 36.0623 27.3155C36.1985 27.2457 36.4339 27.1674 36.4735 27.0256C36.5151 26.8765 36.3499 26.5077 36.3119 26.3494L35.988 24.9916C35.882 24.5477 35.7996 24.0174 36.1279 23.7164C36.1999 23.6505 36.2879 23.6007 36.3495 23.5256C36.4187 23.4407 36.4483 23.331 36.4729 23.2239C36.5629 22.8311 36.6225 22.4194 36.6149 22.0111C36.6081 21.6383 36.3393 21.4891 36.0781 21.2396C35.8056 20.9792 35.727 20.6162 35.4848 20.3394C35.2411 20.0608 34.9079 20.0583 34.53 20.1103C34.3548 20.1343 34.1802 20.1622 34.0065 20.1939" fill="#F4CDAF"/>
<path fill-rule="evenodd" clip-rule="evenodd" d="M38.3677 36.9691C38.3421 35.9963 38.2995 35.0054 38.3267 33.989C38.4029 31.141 38.0173 28.2581 37.1887 25.4773C35.8049 25.3746 34.4149 25.5406 33.1257 25.962C33.3071 29.1461 33.345 32.3816 31.8917 35.3519C31.8333 35.4711 31.7491 35.6042 31.6045 35.6239C31.4637 35.6431 31.3404 35.5443 31.2432 35.4518C30.2905 34.546 29.4982 33.4751 28.3248 32.8041C27.1518 32.1332 25.3965 32.0161 24.504 32.9689C23.9327 33.5787 23.8717 34.4525 24.0237 35.2343C24.258 36.4396 24.9243 37.5469 25.7092 38.5516C26.9306 40.1152 28.4632 41.4859 30.2147 42.5816C31.4141 43.3319 32.7221 43.9595 33.7906 44.8525C34.0911 45.1037 34.3951 45.3869 34.7976 45.4667C35.5437 45.6145 36.1954 45.0124 36.6082 44.4408C38.3829 41.9838 38.4351 39.5395 38.3677 36.9691" fill="#FA7268"/>
<path fill-rule="evenodd" clip-rule="evenodd" d="M26.2111 23.8177C26.7691 14.2304 35.9687 6.86033 46.759 7.35586C57.5494 7.85157 65.8443 16.0255 65.2864 25.6127C64.7285 35.2 55.5289 42.5703 44.7385 42.0745C33.9482 41.5788 25.6532 33.405 26.2111 23.8177" fill="#FFD54D"/>
<path fill-rule="evenodd" clip-rule="evenodd" d="M29.1676 23.9535C29.6409 15.817 37.4485 9.56196 46.6061 9.98269C55.7637 10.4032 62.8037 17.3403 62.3304 25.4769C61.8568 33.6135 54.0492 39.8685 44.8916 39.4479C35.734 39.0272 28.694 32.0901 29.1676 23.9535" fill="#FFC71B"/>
<path fill-rule="evenodd" clip-rule="evenodd" d="M47.671 15.2691L47.5616 17.1461C48.4022 17.3063 49.0813 17.5871 49.5985 17.9886C50.1154 18.39 50.5953 18.9914 51.0386 19.7925L48.8762 20.7399C48.3033 19.6895 47.5068 19.1406 46.4865 19.0937C45.8542 19.0648 45.3199 19.2067 44.884 19.5194C44.448 19.8323 44.2155 20.2376 44.1865 20.7356C44.1601 21.189 44.3071 21.5733 44.6272 21.8889C44.9408 22.1977 45.5887 22.5763 46.5711 23.0248C47.42 23.4158 48.1193 23.7792 48.669 24.1148C49.2185 24.4506 49.6287 24.7686 49.8996 25.0691C50.6661 25.8853 51.0172 26.8456 50.9531 27.9501C50.8899 29.0353 50.4675 29.9761 49.6864 30.7722C48.9128 31.5625 47.9103 32.0733 46.6795 32.3048L46.5643 34.2871L44.678 34.2004L44.7902 32.2755C43.3936 32.0065 42.3446 31.5264 41.6427 30.8348C40.941 30.1434 40.4538 29.1032 40.1819 27.7145L42.5785 27.3827C42.8455 28.3681 43.2002 29.079 43.6432 29.5154C44.1089 29.9336 44.7474 30.1614 45.5593 30.1987C46.3498 30.2349 47.0238 30.0388 47.5822 29.6099C48.1325 29.1872 48.4284 28.6213 48.4696 27.9127C48.5064 27.2808 48.3167 26.763 47.9007 26.3599C47.6887 26.1646 47.3722 25.9406 46.9511 25.6874C46.5299 25.4344 45.9896 25.1552 45.3303 24.8496C43.9685 24.2303 43.0822 23.6774 42.6711 23.1912C42.0146 22.4635 41.7149 21.6142 41.7712 20.6438C41.798 20.1843 41.9054 19.7604 42.0936 19.372C42.282 18.9839 42.5419 18.6359 42.8731 18.3276C43.2044 18.0197 43.607 17.7582 44.0805 17.543C44.554 17.328 45.0857 17.1667 45.6755 17.0594L45.7846 15.1824L47.671 15.2691Z" fill="#E69A24"/>
<path fill-rule="evenodd" clip-rule="evenodd" d="M18.0489 33.0328C17.9859 33.0557 17.923 33.0798 17.8608 33.1047C16.8203 33.5235 15.9594 34.2205 15.1176 34.9063C13.8532 35.9363 13.2269 36.392 12.8123 37.8364C12.4256 39.1833 12.2234 40.5942 12.0256 41.9712C11.6243 44.7642 11.4569 47.5787 11.3144 50.3901C11.2356 51.9468 10.9612 66.7535 9.43384 66.8647C19.4853 66.132 29.5368 65.3992 39.5883 64.6665C39.1485 62.3079 37.9917 60.1113 36.9431 57.9094C34.2267 52.2052 32.1674 46.2544 30.8072 40.1797C30.3671 38.2139 29.9747 34.9319 28.1408 33.5274C26.1479 32.0012 21.8622 32.2064 19.4713 32.6597C18.9872 32.7515 18.5065 32.8663 18.0489 33.0328" fill="#FA7268"/>
<path fill-rule="evenodd" clip-rule="evenodd" d="M53.8931 79.0519L3.92706 85.3497L0.428589 63.4387L50.3948 57.1408L53.8931 79.0519Z" fill="#00BECE"/>
<path fill-rule="evenodd" clip-rule="evenodd" d="M5.00258 84.0712L52.1572 78.1276L49.1757 58.4965L2.00504 64.4075L5.00258 84.0712ZM52.5524 78.3934L4.70163 84.4248L1.6095 64.1414L1.78267 64.1197L49.477 58.1433L52.5524 78.3934Z" fill="white"/>
<path fill-rule="evenodd" clip-rule="evenodd" d="M42.677 59.1231C42.677 59.1231 48.1474 59.4593 49.3348 65.2271L50.8282 75.4142C50.8282 75.4142 51.1121 77.1931 48.9599 78.1746L46.9324 78.8245L52.3547 78.2606L49.3266 58.3199L42.677 59.1231Z" fill="white"/>
<path fill-rule="evenodd" clip-rule="evenodd" d="M8.32984 63.5049C8.32984 63.5049 3.18021 65.1797 3.84531 71.0133L5.59985 81.1675C5.59985 81.1675 5.88381 82.9464 8.25825 83.3571L10.4089 83.4806L5.02414 84.2789L1.69104 64.3766L8.32984 63.5049Z" fill="white"/>
<path fill-rule="evenodd" clip-rule="evenodd" d="M15.3011 72.1205C15.4989 73.3592 14.6002 74.4968 13.2938 74.6616C11.9874 74.8263 10.768 73.9555 10.5703 72.7167C10.3725 71.478 11.2711 70.3403 12.5775 70.1756C13.8839 70.0109 15.1034 70.8817 15.3011 72.1205" fill="white"/>
<path fill-rule="evenodd" clip-rule="evenodd" d="M10.5842 78.7903L9.90308 78.8762L9.62512 77.1358L10.3064 77.05L10.5842 78.7903Z" fill="white"/>
<path fill-rule="evenodd" clip-rule="evenodd" d="M11.6912 78.6508L11.0101 78.7366L10.7322 76.9964L11.4133 76.9106L11.6912 78.6508Z" fill="white"/>
<path fill-rule="evenodd" clip-rule="evenodd" d="M12.7983 78.5112L12.1172 78.5971L11.8392 76.8567L12.5203 76.7711L12.7983 78.5112Z" fill="white"/>
<path fill-rule="evenodd" clip-rule="evenodd" d="M13.9053 78.3718L13.224 78.4576L12.9463 76.7173L13.6274 76.6314L13.9053 78.3718Z" fill="white"/>
<path fill-rule="evenodd" clip-rule="evenodd" d="M15.0124 78.2322L14.3311 78.318L14.0533 76.5778L14.7344 76.492L15.0124 78.2322Z" fill="white"/>
<path fill-rule="evenodd" clip-rule="evenodd" d="M16.1195 78.0927L15.4382 78.1785L15.1603 76.4382L15.8416 76.3525L16.1195 78.0927Z" fill="white"/>
<path fill-rule="evenodd" clip-rule="evenodd" d="M17.2266 77.9531L16.5453 78.0389L16.2673 76.2987L16.9486 76.2129L17.2266 77.9531Z" fill="white"/>
<path fill-rule="evenodd" clip-rule="evenodd" d="M18.3336 77.8136L17.6523 77.8994L17.3744 76.1593L18.0557 76.0734L18.3336 77.8136Z" fill="white"/>
<path fill-rule="evenodd" clip-rule="evenodd" d="M38.2167 65.9972L37.5354 66.083L37.4486 65.5394L38.1297 65.4534L38.2167 65.9972Z" fill="white"/>
<path fill-rule="evenodd" clip-rule="evenodd" d="M39.3238 65.8577L38.6425 65.9435L38.5555 65.3997L39.2368 65.3139L39.3238 65.8577Z" fill="white"/>
<path fill-rule="evenodd" clip-rule="evenodd" d="M40.4307 65.7182L39.7496 65.804L39.6626 65.2602L40.3439 65.1744L40.4307 65.7182Z" fill="white"/>
<path fill-rule="evenodd" clip-rule="evenodd" d="M41.5377 65.5786L40.8566 65.6644L40.7697 65.1208L41.451 65.0348L41.5377 65.5786Z" fill="white"/>
<path fill-rule="evenodd" clip-rule="evenodd" d="M42.6448 65.4391L41.9637 65.525L41.8767 64.9811L42.558 64.8953L42.6448 65.4391Z" fill="white"/>
<path fill-rule="evenodd" clip-rule="evenodd" d="M43.7518 65.2996L43.0708 65.3855L42.9838 64.8416L43.6649 64.7558L43.7518 65.2996Z" fill="white"/>
<path fill-rule="evenodd" clip-rule="evenodd" d="M44.8589 65.16L44.1776 65.2459L44.0908 64.7022L44.7719 64.6162L44.8589 65.16Z" fill="white"/>
<path fill-rule="evenodd" clip-rule="evenodd" d="M45.966 65.0205L45.2847 65.1064L45.1979 64.5625L45.879 64.4767L45.966 65.0205Z" fill="white"/>
<path fill-rule="evenodd" clip-rule="evenodd" d="M36.698 80.0751L20.855 82.072L20.6823 80.9892L36.5253 78.9922L36.698 80.0751Z" fill="white"/>
<path fill-rule="evenodd" clip-rule="evenodd" d="M25.6316 61.6661C21.7114 62.1602 19.2113 66.876 20.0578 72.1785C20.9043 77.4808 24.7823 81.3929 28.7021 80.8989C32.6221 80.4048 35.1223 75.6888 34.2759 70.3863C33.4292 65.0838 29.5516 61.172 25.6316 61.6661M28.7765 81.3628C26.7174 81.6224 24.6197 80.8042 22.8702 79.0591C21.147 77.3403 19.9626 74.9202 19.5355 72.2443C19.1084 69.5685 19.4883 66.9512 20.6053 64.8743C21.7398 62.7657 23.4985 61.4616 25.5574 61.202C27.6163 60.9424 29.7137 61.7606 31.4635 63.5057C33.1864 65.2245 34.3708 67.6446 34.7982 70.3204C35.2253 72.9963 34.8452 75.6137 33.7281 77.6905C32.5937 79.7991 30.8352 81.1032 28.7765 81.3628" fill="white"/>
<path fill-rule="evenodd" clip-rule="evenodd" d="M28.7143 81.1602C24.6437 81.6733 20.6402 77.6799 19.7717 72.2408C18.9032 66.8017 21.499 61.9766 25.5694 61.4635C29.64 60.9505 33.6436 64.9437 34.5121 70.3829C35.3805 75.822 32.7847 80.6472 28.7143 81.1602Z" fill="#00BECE"/>
<path fill-rule="evenodd" clip-rule="evenodd" d="M10.2835 64.8089C10.3267 64.7739 10.3667 64.7363 10.4027 64.6949C10.7379 64.309 10.5069 63.8676 10.6877 63.4654C10.7683 63.2859 11.3406 63.0121 11.0764 62.7943C10.9782 62.7145 10.6733 62.421 10.3467 62.1435C10.1867 61.8413 10.011 61.5449 9.8836 61.2306C9.56124 60.4353 9.93519 58.4184 8.63838 58.2794C8.38762 58.2526 8.13026 58.226 7.8847 58.2784C7.68373 58.3212 7.50176 58.4148 7.32818 58.5143C7.1928 58.5918 6.95724 58.6861 6.92364 58.8222C6.88825 58.9651 7.07402 59.295 7.12001 59.4395C7.25119 59.8527 7.38237 60.266 7.51355 60.6793C7.64233 61.0846 7.75152 61.5726 7.43157 61.8834C7.36158 61.9514 7.27439 62.0058 7.2154 62.0815C7.14901 62.1671 7.12421 62.2721 7.10442 62.3746C7.03103 62.7499 6.99003 63.1397 7.01723 63.521C7.06602 64.2029 8.10686 64.7423 8.66478 65.0817C8.80396 65.1661 8.95094 65.2496 9.11731 65.2721C9.38787 65.3087 9.64823 65.1794 9.8834 65.0548C10.0226 64.9811 10.1644 64.9054 10.2835 64.8089" fill="#ECD1BD"/>
<path fill-rule="evenodd" clip-rule="evenodd" d="M6.29167 49.8469C6.00731 50.3238 5.72015 50.8079 5.58757 51.3347C5.48219 51.7546 5.47899 52.1892 5.48819 52.6193C5.54558 55.2873 6.0739 57.9467 7.04815 60.4707C8.46074 60.4425 9.86612 60.1628 11.1573 59.653C10.9104 57.4719 10.8592 55.273 11.0044 53.0846C11.0341 52.6371 11.0733 52.1842 11.2363 51.7597C11.4705 51.1483 12.0252 50.688 12.4093 50.1395C14.1141 47.7068 15.5729 46.2607 17.4284 44.0613C18.4488 42.8519 20.3411 40.7827 21.3114 39.5413C22.2297 38.3667 16.3929 34.0243 14.8156 35.0245C10.7936 37.5748 8.61151 45.9564 6.29167 49.8469" fill="#FA7268"/>
<path fill-rule="evenodd" clip-rule="evenodd" d="M96.7394 107.268C96.6602 107.038 96.5258 106.826 96.3265 106.672C96.2213 106.59 96.1011 106.527 95.9991 106.442C95.5186 106.045 95.5732 105.665 94.8663 105.751C94.062 105.85 93.2607 105.981 92.4592 106.096C92.4276 106.1 92.3943 106.106 92.3693 106.124C92.3335 106.151 92.3255 106.198 92.3197 106.24C92.2865 106.487 92.2535 106.734 92.2203 106.98C92.1309 107.648 91.4582 107.843 90.9069 108.107C90.7651 108.174 90.6181 108.243 90.4687 108.313C89.8434 108.608 87.9477 109.263 88.8834 110.133C89.2699 110.493 89.9398 110.492 90.4547 110.539C90.9523 110.584 91.4528 110.478 91.9431 110.417C93.5159 110.153 94.9663 109.739 96.39 109.065C96.9 108.823 96.8672 108.139 96.8214 107.653C96.8092 107.524 96.7824 107.393 96.7394 107.268" fill="#1C1E1E"/>
<path fill-rule="evenodd" clip-rule="evenodd" d="M80.4998 107.125C80.4736 107.014 80.4312 106.913 80.3684 106.828C80.2874 106.718 80.1742 106.631 80.0978 106.519C79.9017 106.231 79.9739 105.824 79.7323 105.566C79.3912 105.203 78.813 105.368 78.3745 105.393C77.7002 105.432 77.0127 105.403 76.3368 105.408C76.3046 105.408 76.271 105.409 76.2434 105.424C76.2038 105.446 76.188 105.49 76.1758 105.532L75.9603 106.251C75.7659 106.899 75.0696 107.001 74.4823 107.188C74.3313 107.236 74.1751 107.284 74.0162 107.333C73.501 107.494 72.7578 107.62 72.3518 107.973C71.4322 108.774 73.0457 109.395 73.6496 109.533C74.1345 109.645 74.6465 109.607 75.1412 109.613C76.739 109.563 78.2395 109.349 79.7547 108.873C79.9049 108.826 80.0605 108.776 80.1732 108.673C80.2756 108.581 80.3322 108.454 80.376 108.328C80.4864 108.011 80.592 107.511 80.4998 107.125" fill="#1C1E1E"/>
<path fill-rule="evenodd" clip-rule="evenodd" d="M84.6601 63.777L83.5556 72.8661L81.9923 89.6379L80.4437 106.252L75.4989 106.019L73.4868 87.8871L72.8953 72.5065L74.7834 62.6969L84.6601 63.777Z" fill="#8A9193"/>
<path fill-rule="evenodd" clip-rule="evenodd" d="M94.4889 63.8853L96.0926 69.4625L94.3145 85.3557L96.4036 106.501L91.7063 106.854L85.6114 86.627L80.8033 64.4959L94.4889 63.8853Z" fill="#8A9193"/>
<path fill-rule="evenodd" clip-rule="evenodd" d="M99.3202 64.1351C99.2817 63.0975 99.2123 62.229 99.2025 61.9185C99.1151 59.1091 98.8125 56.2834 98.3832 53.4493C97.9956 50.8903 97.5035 48.3245 96.9706 45.7466C96.1349 41.7038 95.3752 38.142 93.7003 34.2973C93.1054 32.9317 92.4949 31.5419 91.4678 30.4052C90.5216 29.3576 89.11 28.6382 87.6928 28.2166C87.0305 28.0196 86.2854 27.8513 85.6229 27.718C84.8722 27.567 84.4957 27.868 83.777 28.1414C83.2939 28.3252 82.7272 28.3742 82.2268 28.53C79.2533 29.4561 77.5555 31.3211 76.5495 33.9683C75.74 36.0982 74.9303 38.2282 74.1209 40.3583C73.4562 42.1073 72.7913 43.8572 72.2148 45.6316C70.7058 50.2767 69.8141 55.0636 69.159 59.8619C68.8305 62.2676 68.5617 64.6793 68.3025 67.092C68.137 68.6336 69.0196 67.9851 70.0615 67.5141C71.8572 66.7023 73.6407 65.8459 75.6548 65.5528C76.6329 65.4106 77.6291 65.4037 78.62 65.4161C84.6473 65.4927 90.6964 66.2894 96.3573 68.1298C96.6934 68.2392 97.0356 68.3558 97.3102 68.5601C97.6771 68.8328 98.1738 69.4531 98.7033 69.129C99.0329 68.9275 99.1127 68.2401 99.1729 67.9308C99.4146 66.6888 99.3672 65.3895 99.3202 64.1351" fill="#FA7268"/>
<path fill-rule="evenodd" clip-rule="evenodd" d="M80.342 18.0297C79.8369 18.9348 79.6269 19.9602 79.6353 20.9738C79.6377 21.2432 79.6349 21.5548 79.4033 21.7247C79.1554 21.9066 79.4031 22.2689 79.1942 22.0507C78.9854 21.8325 78.2749 21.0737 78.2287 20.7881C78.1203 20.1194 78.0827 19.4412 78.1167 18.7659C78.1463 18.1785 78.2435 17.5618 78.6413 17.0966C78.8772 16.8207 79.2016 16.6196 79.5211 16.4239C79.9842 16.1407 80.4624 15.8545 81.0061 15.7363C81.944 15.5331 82.5421 15.8127 81.7406 16.4483C81.1665 16.9035 80.6879 17.4097 80.342 18.0297" fill="#002D51"/>
<path fill-rule="evenodd" clip-rule="evenodd" d="M86.8795 29.2335C85.5833 29.4041 84.2869 29.5746 82.9907 29.7454C82.7345 28.738 82.5594 27.7107 82.4678 26.6766C81.3231 26.5535 79.9702 26.2841 79.521 25.2284C79.3796 24.896 79.3544 24.5284 79.3311 24.1686L79.0405 19.7077C79.0071 19.1934 78.9755 18.6632 79.1431 18.1769C79.4376 17.323 80.2785 16.7834 81.1132 16.4295C83.2429 15.5263 85.7805 15.4404 87.8536 16.4874C88.4053 16.766 88.932 17.1329 89.2699 17.6485C89.7911 18.4436 89.7889 19.4552 89.7689 20.4015C89.7505 21.275 89.7321 22.1486 89.7137 23.022C89.6923 24.0268 89.5917 25.1868 88.7616 25.7556C88.3207 26.0574 87.7336 26.1365 87.3604 26.5181C86.7027 27.191 87.0847 28.316 86.8795 29.2335" fill="#F4CDAF"/>
<path fill-rule="evenodd" clip-rule="evenodd" d="M83.3304 25.1075C83.8397 25.3836 84.3551 25.3633 84.8926 25.1895C85.1685 25.1002 85.3117 25.5193 85.036 25.6085C84.3875 25.8183 83.735 25.8292 83.1234 25.4978C82.8687 25.3596 83.0745 24.9685 83.3304 25.1075M79.0851 25.0483C79.341 25.9647 79.8871 26.8259 80.7508 27.3071C81.7297 27.8525 82.9183 27.8394 84.0421 27.8111C84.6568 27.7957 85.2713 27.7802 85.886 27.7647C87.441 27.7255 88.9758 27.4723 89.6911 25.9573C90.0206 25.2585 90.0926 24.4607 89.9944 23.6949C89.9674 23.4846 89.9254 23.2687 89.8046 23.0917C89.6837 22.915 89.4661 22.7851 89.2521 22.8224C88.979 22.87 88.8288 23.1456 88.6634 23.362C88.3025 23.8341 87.6338 24.1192 87.0679 23.9021C86.9003 23.8378 86.7525 23.7356 86.6055 23.6326C86.5453 23.5903 86.4851 23.5478 86.424 23.5079C85.816 23.1102 85.09 22.9487 84.3707 22.8975C83.7466 22.8533 82.8221 22.6895 82.3894 23.188C82.1374 23.478 81.8854 23.768 81.6337 24.0579C81.5299 24.1775 81.4237 24.299 81.2853 24.379C81.1432 24.4613 80.9754 24.4938 80.8098 24.5041C80.3931 24.5302 79.9149 24.3781 79.7516 24.0023C79.6804 23.8387 79.6788 23.6564 79.6614 23.4798C79.6438 23.3032 79.6036 23.1168 79.476 22.9896C78.9879 22.5029 78.9007 23.3174 78.8981 23.594C78.8933 24.0832 78.9527 24.575 79.0851 25.0483" fill="#1B2749"/>
<path fill-rule="evenodd" clip-rule="evenodd" d="M78.204 15.5445C78.075 15.1891 77.9742 14.8254 77.9019 14.4569C78.2886 14.5598 78.7041 14.5726 79.0977 14.4937C79.0863 14.2798 79.0751 14.0659 79.0639 13.852C79.0555 13.6739 81.7119 13.4254 81.9275 13.3993C83.9449 13.1548 85.7899 12.9258 87.678 13.8232C89.2907 14.5895 90.3656 15.7962 90.6987 17.4165C91.0169 18.9643 90.5685 21.0261 89.6447 22.3661C89.6267 21.9509 89.8353 20.9598 89.7045 20.5705C89.6155 20.1784 89.4427 19.8044 89.2143 19.4624C88.7578 18.7794 88.0795 18.2181 87.3104 17.831C86.0846 17.2139 84.6836 16.9225 83.2948 16.8131C82.0222 16.7129 80.4743 16.6377 79.2433 16.9984C78.6515 17.1716 78.5598 17.3122 78.1652 16.782C78.0956 16.6883 77.5235 15.5855 77.5731 15.5825L78.204 15.5445Z" fill="#1B2749"/>
<path fill-rule="evenodd" clip-rule="evenodd" d="M61.6544 110.104H56.2776C55.112 110.104 54.1673 109.265 54.1673 108.231L49.546 94.3134C49.546 93.2793 50.4911 92.4409 51.6565 92.4409L63.4317 95.5949C64.5973 95.5949 65.542 96.4334 65.542 97.4674L63.7649 108.231C63.7649 109.265 62.8198 110.104 61.6544 110.104" fill="#F1B39B"/>
<path fill-rule="evenodd" clip-rule="evenodd" d="M98.7557 110.104H104.133C105.298 110.104 106.243 109.265 106.243 108.231L110.864 94.3134C110.864 93.2793 109.919 92.4409 108.754 92.4409L96.9783 95.5949C95.8129 95.5949 94.868 96.4334 94.868 97.4674L96.6454 108.231C96.6454 109.265 97.5902 110.104 98.7557 110.104" fill="#F1B39B"/>
<path fill-rule="evenodd" clip-rule="evenodd" d="M83.0033 49.9704V54.9559H77.8077V49.9704C56.1114 50.9663 44.8589 64.4517 44.8589 79.8733C44.8589 95.8993 60.7737 108.891 80.4055 108.891C100.037 108.891 115.952 95.8993 115.952 79.8733C115.952 64.4512 104.72 50.9652 83.0033 49.9704" fill="#F6C5B0"/>
<path fill-rule="evenodd" clip-rule="evenodd" d="M50.0804 46.9298C49.9474 46.9188 49.8161 46.9743 49.7441 47.0752C49.6725 47.1759 42.6863 57.25 51.2906 67.5489C51.3598 67.6317 51.4672 67.6764 51.5764 67.6764C51.6374 67.6764 51.6988 67.6624 51.7546 67.6338L67.9367 59.2982C68.0943 59.217 68.1569 59.0433 68.0823 58.896C68.0273 58.7876 62.4425 48.0428 50.0804 46.9298" fill="#F6C5B0"/>
<path fill-rule="evenodd" clip-rule="evenodd" d="M109.422 47.0752C109.35 46.9741 109.217 46.9194 109.086 46.9299C96.7233 48.0427 91.1385 58.7877 91.0835 58.8961C91.0087 59.0432 91.0715 59.2169 91.2291 59.2983L107.411 67.6339C107.467 67.6625 107.529 67.6763 107.589 67.6763C107.699 67.6763 107.806 67.6317 107.875 67.5488C116.479 57.2501 109.494 47.176 109.422 47.0752" fill="#F6C5B0"/>
<path fill-rule="evenodd" clip-rule="evenodd" d="M94.3387 83.8759C94.3387 88.9808 88.1007 93.1192 80.4055 93.1192C72.7104 93.1192 66.4722 88.9808 66.4722 83.8759C66.4722 78.771 72.7104 74.6328 80.4055 74.6328C88.1007 74.6328 94.3387 78.771 94.3387 83.8759" fill="#F1B39B"/>
<path fill-rule="evenodd" clip-rule="evenodd" d="M75.0235 55.9329V52.8945C59.3995 54.3971 47.3033 64.7784 47.3033 77.3627C47.3033 83.0205 49.7498 88.232 53.8614 92.3928C51.1876 88.775 49.6578 84.5787 49.6578 80.1038C49.6578 68.1595 60.5553 58.1997 75.0235 55.9329" fill="#FBD6C9"/>
<path fill-rule="evenodd" clip-rule="evenodd" d="M53.4728 98.8109V98.8109C59.9916 104.983 69.6391 108.891 80.4055 108.891C100.037 108.891 115.952 95.8992 115.952 79.8732C115.952 76.4791 115.407 73.179 114.327 70.0848C101.799 117.201 53.4728 98.8109 53.4728 98.8109" fill="#EBB29A"/>
<path fill-rule="evenodd" clip-rule="evenodd" d="M94.1755 82.4586C87.8358 91.6937 76.6297 91.1488 70.9352 90.6536C73.4212 92.1828 76.7479 93.1192 80.4055 93.1192C88.1006 93.1192 94.3386 88.9808 94.3386 83.8759C94.3386 83.3939 94.2826 82.9207 94.1755 82.4586" fill="#EBB29A"/>
<path fill-rule="evenodd" clip-rule="evenodd" d="M51.0068 48.4415C51.0068 48.4415 47.8961 51.3234 48.1025 58.6507C48.1025 58.6507 49.1251 50.9196 53.4729 48.8379L51.0068 48.4415Z" fill="#FBD6C9"/>
<path fill-rule="evenodd" clip-rule="evenodd" d="M67.4834 83.3809C67.4834 83.3809 68.622 77.628 76.0511 76.2443C76.0511 76.2443 71.1698 78.1772 67.4834 83.3809" fill="#F6C5B0"/>
<path fill-rule="evenodd" clip-rule="evenodd" d="M97.4377 109.692C97.7991 109.949 98.2568 110.104 98.7557 110.104H104.133C105.298 110.104 106.243 109.265 106.243 108.231L107.883 103.292C103.859 107.431 99.911 109.055 97.4377 109.692" fill="#EBB29A"/>
<path fill-rule="evenodd" clip-rule="evenodd" d="M76.3475 83.3809C76.3475 84.4297 75.779 85.2798 75.0779 85.2798C74.3768 85.2798 73.8085 84.4297 73.8085 83.3809C73.8085 82.3322 74.3768 81.4821 75.0779 81.4821C75.779 81.4821 76.3475 82.3322 76.3475 83.3809" fill="#DF9A80"/>
<path fill-rule="evenodd" clip-rule="evenodd" d="M87.0026 83.3809C87.0026 84.4297 86.4341 85.2798 85.733 85.2798C85.0319 85.2798 84.4634 84.4297 84.4634 83.3809C84.4634 82.3322 85.0319 81.4821 85.733 81.4821C86.4341 81.4821 87.0026 82.3322 87.0026 83.3809" fill="#DF9A80"/>
<path fill-rule="evenodd" clip-rule="evenodd" d="M82.264 49.5532C82.3902 49.5642 82.5215 49.5756 82.6397 49.5349C82.7589 49.494 82.8475 49.4059 82.9427 49.33C83.5128 48.8754 84.3881 48.8374 85.1123 49.0591C85.7103 49.2421 86.4071 49.6012 86.8459 50.0121C87.2948 50.4323 87.3062 51.2429 87.375 51.8143C87.393 51.9648 87.407 52.1225 87.3418 52.2624C87.2994 52.3528 87.2268 52.4292 87.1556 52.5037C87.0447 52.6197 86.9339 52.7359 86.8229 52.8517C86.2232 53.4789 85.0995 53.2559 84.2645 53.2661C83.8985 53.2703 83.45 53.2303 83.3022 52.9327C83.183 52.6923 83.3094 52.3507 83.0729 52.1929C82.9645 52.1208 82.8177 52.1206 82.6821 52.1233C81.2479 52.1535 79.8139 52.1837 78.3798 52.2135C78.3552 51.5076 77.9186 49.59 78.6571 49.3407C78.8937 49.2608 79.9569 49.4562 80.2521 49.4583C80.924 49.4633 81.5955 49.4948 82.264 49.5532" fill="#F4CDAF"/>
<path fill-rule="evenodd" clip-rule="evenodd" d="M67.6261 45.7452C66.6365 47.3533 65.4472 49.1496 65.0865 50.9789C64.8715 52.07 65.6702 53.1123 66.6667 53.6812C67.9177 54.3952 69.2655 54.2039 70.6899 54.1515C71.5569 54.1197 80.7449 53.6801 80.7445 53.3196L80.7397 48.6582C78.4203 48.2532 76.0794 47.9503 73.7286 47.7508C75.4861 45.4167 85.456 31.572 80.8181 30.0017C76.4018 28.5066 69.3595 42.9291 67.6261 45.7452" fill="#FA7268"/>
</svg>
