<svg width="247" height="170" viewBox="0 0 247 170" fill="none" xmlns="http://www.w3.org/2000/svg">
<g opacity="0.0786133">
<path fill-rule="evenodd" clip-rule="evenodd" d="M143.751 28.6552C127.969 28.0961 112.938 22.8904 98.5848 17.1928C84.2315 11.4952 70.0128 5.1875 54.6209 2.16936C44.7133 0.227638 33.3837 -0.0484254 25.4003 5.38005C17.7068 10.6137 15.2244 19.6217 13.8978 27.9871C12.8931 34.2832 12.303 40.9087 15.0534 46.8012C16.963 50.8934 20.355 54.3314 22.7008 58.2497C30.8625 71.8858 25.0928 88.7025 16.2485 102.016C12.1031 108.261 7.28945 114.219 4.08769 120.867C0.885925 127.516 -0.601566 135.134 2.19297 141.918C4.96799 148.645 11.5837 153.689 18.7504 157.229C33.3059 164.441 50.4511 166.508 67.1815 167.668C104.203 170.257 141.425 169.137 178.546 168.014C192.282 167.599 206.081 167.176 219.596 164.998C227.102 163.792 234.849 161.878 240.296 157.259C247.214 151.397 248.928 141.468 244.293 134.116C236.519 121.784 215.031 118.719 209.591 105.484C206.601 98.2 209.671 90.0851 214.019 83.3297C223.341 68.8352 238.972 56.12 239.794 39.5516C240.36 28.1843 232.847 16.7798 221.229 11.3954C209.052 5.75123 192.168 6.4611 183.189 15.8032C173.942 25.4608 157.685 29.1517 143.751 28.6552" fill="#FA7268"/>
</g>
</svg>
