<svg width="24" height="38" viewBox="0 0 24 38" fill="none" xmlns="http://www.w3.org/2000/svg">
<mask id="mask0_35_587" style="mask-type:alpha" maskUnits="userSpaceOnUse" x="0" y="33" width="24" height="5">
<path fill-rule="evenodd" clip-rule="evenodd" d="M0.124756 33.1025H23.1239V37.3257H0.124756V33.1025Z" fill="white"/>
</mask>
<g mask="url(#mask0_35_587)">
<path fill-rule="evenodd" clip-rule="evenodd" d="M11.6243 33.1025C17.9753 33.1025 23.1239 34.0477 23.1239 35.2141C23.1239 36.3802 17.9753 37.3257 11.6243 37.3257C5.27338 37.3257 0.124756 36.3802 0.124756 35.2141C0.124756 34.0477 5.27338 33.1025 11.6243 33.1025" fill="#DBD4DA"/>
</g>
<path fill-rule="evenodd" clip-rule="evenodd" d="M11.7021 32.5003C12.3751 32.5003 12.9207 33.2205 12.9207 34.1089C12.9207 34.9971 12.3751 35.7172 11.7021 35.7172C11.029 35.7172 10.4834 34.9971 10.4834 34.1089C10.4834 33.2205 11.029 32.5003 11.7021 32.5003" fill="#1B2749"/>
<path fill-rule="evenodd" clip-rule="evenodd" d="M11.7021 31.428C12.3751 31.428 12.9207 32.1481 12.9207 33.0365C12.9207 33.9249 12.3751 34.6449 11.7021 34.6449C11.029 34.6449 10.4834 33.9249 10.4834 33.0365C10.4834 32.1481 11.029 31.428 11.7021 31.428" fill="#1B2749"/>
<path fill-rule="evenodd" clip-rule="evenodd" d="M11.7021 28.7473C12.3751 28.7473 12.9207 29.4674 12.9207 30.3559C12.9207 31.244 12.3751 31.9642 11.7021 31.9642C11.029 31.9642 10.4834 31.244 10.4834 30.3559C10.4834 29.4674 11.029 28.7473 11.7021 28.7473" fill="#1B2749"/>
<path fill-rule="evenodd" clip-rule="evenodd" d="M11.7021 27.1388C12.3751 27.1388 12.9207 27.8589 12.9207 28.7474C12.9207 29.6357 12.3751 30.3557 11.7021 30.3557C11.029 30.3557 10.4834 29.6357 10.4834 28.7474C10.4834 27.8589 11.029 27.1388 11.7021 27.1388" fill="#1B2749"/>
<path fill-rule="evenodd" clip-rule="evenodd" d="M11.7021 24.9942C12.3751 24.9942 12.9207 25.7144 12.9207 26.6027C12.9207 27.491 12.3751 28.2111 11.7021 28.2111C11.029 28.2111 10.4834 27.491 10.4834 26.6027C10.4834 25.7144 11.029 24.9942 11.7021 24.9942" fill="#1B2749"/>
<path fill-rule="evenodd" clip-rule="evenodd" d="M11.7021 22.8496C12.3751 22.8496 12.9207 23.5697 12.9207 24.4582C12.9207 25.3465 12.3751 26.0665 11.7021 26.0665C11.029 26.0665 10.4834 25.3465 10.4834 24.4582C10.4834 23.5697 11.029 22.8496 11.7021 22.8496" fill="#3F3D56"/>
<path fill-rule="evenodd" clip-rule="evenodd" d="M11.7021 21.2412C12.3751 21.2412 12.9207 21.9614 12.9207 22.8496C12.9207 23.7379 12.3751 24.4581 11.7021 24.4581C11.029 24.4581 10.4834 23.7379 10.4834 22.8496C10.4834 21.9614 11.029 21.2412 11.7021 21.2412" fill="#3F3D56"/>
<mask id="mask1_35_587" style="mask-type:alpha" maskUnits="userSpaceOnUse" x="5" y="0" width="14" height="26">
<path fill-rule="evenodd" clip-rule="evenodd" d="M5.01367 0.398293H18.2975V25.9939H5.01367V0.398293Z" fill="white"/>
</mask>
<g mask="url(#mask1_35_587)">
<path fill-rule="evenodd" clip-rule="evenodd" d="M16.8729 9.66074C17.0628 9.45317 17.2354 9.23434 17.3895 9.00581L13.7504 8.49111L17.6826 8.51576C18.4462 7.08492 18.4921 5.44604 17.8095 3.98515L12.5296 6.346L17.3984 3.26395C15.5692 0.526623 11.5124 -0.414173 8.33752 1.16291C5.16242 2.74015 4.07141 6.23766 5.90061 8.97514C6.06147 9.2157 6.24218 9.44577 6.44183 9.66398C6.14744 9.98744 5.894 10.3373 5.68577 10.7071L10.4098 12.8231L5.37655 11.3653C4.65892 13.1965 5.06215 15.2166 6.44898 16.7356C4.18276 19.2183 4.68001 22.8146 7.55965 24.7685C10.4389 26.7224 14.6103 26.2937 16.8765 23.8109C18.7711 21.7353 18.7711 18.8112 16.8765 16.7356C18.771 14.6612 18.771 11.7382 16.8765 9.66398L16.8729 9.66074Z" fill="#FFAC00"/>
</g>
<path fill-rule="evenodd" clip-rule="evenodd" d="M5.61081 13.2833C5.60926 14.5648 6.09151 15.8092 6.97931 16.8157C4.79401 19.2963 5.27351 22.8899 8.05015 24.842C10.827 26.7944 14.8494 26.3661 17.0345 23.8855C18.8615 21.8116 18.8615 18.8896 17.0345 16.8157C17.8929 15.844 5.61081 12.6412 5.61081 13.2833" fill="#FFAC00"/>
</svg>
