<svg width="41" height="41" viewBox="0 0 41 41" fill="none" xmlns="http://www.w3.org/2000/svg">
<rect width="40" height="40" transform="translate(0.5 0.5)" fill="white"/>
<path d="M17.1944 33.9706C18.6564 33.9706 19.8415 32.7855 19.8415 31.3236C19.8415 29.8616 18.6564 28.6765 17.1944 28.6765C15.7325 28.6765 14.5474 29.8616 14.5474 31.3236C14.5474 32.7855 15.7325 33.9706 17.1944 33.9706Z" stroke="url(#paint0_linear_124_336)" stroke-width="3"/>
<path d="M28.6651 33.9706C30.1271 33.9706 31.3122 32.7855 31.3122 31.3236C31.3122 29.8616 30.1271 28.6765 28.6651 28.6765C27.2032 28.6765 26.0181 29.8616 26.0181 31.3236C26.0181 32.7855 27.2032 33.9706 28.6651 33.9706Z" stroke="url(#paint1_linear_124_336)" stroke-width="3"/>
<path d="M20.5536 20.5541L20.6229 20.7348L25.5537 20.7351C26.2624 20.7351 26.9256 20.3965 27.3451 19.8288L27.4374 19.6938L31.3623 13.4865C31.408 13.4142 31.4323 13.3303 31.4323 13.2446C31.4323 13.0237 31.2743 12.8399 31.0659 12.8018L30.9856 12.7945L17.26 12.7939L20.5536 20.5541Z" fill="#FA6650" fill-opacity="0.14"/>
<path d="M11.8796 9.35794H29.4465C30.4211 9.35794 31.2112 10.148 31.2112 11.1226C31.2112 11.4586 31.1153 11.7875 30.9348 12.0709L27.0586 18.155C26.4106 19.1721 25.288 19.788 24.082 19.788H16.3124" stroke="#080808" stroke-width="3" stroke-linecap="round" stroke-linejoin="round"/>
<path d="M7.5 7.5H9.31167C10.3714 7.5 11.329 8.13203 11.7456 9.10644L15.8931 18.8073C16.151 19.4103 16.0531 20.1065 15.6391 20.6151L14.5225 21.9868C14.0526 22.5641 14.1396 23.4131 14.7169 23.883C14.9573 24.0787 15.2578 24.1856 15.5678 24.1856H31.4663" stroke="#080808" stroke-width="3" stroke-linecap="round" stroke-linejoin="round"/>
<defs>
<linearGradient id="paint0_linear_124_336" x1="19.8415" y1="31.3236" x2="14.5781" y2="31.3236" gradientUnits="userSpaceOnUse">
<stop stop-color="#FF9B94"/>
<stop offset="1" stop-color="#FA6650"/>
</linearGradient>
<linearGradient id="paint1_linear_124_336" x1="31.3122" y1="31.3236" x2="26.0181" y2="31.3236" gradientUnits="userSpaceOnUse">
<stop stop-color="#FF9B94"/>
<stop offset="0.99419" stop-color="#FA6650"/>
</linearGradient>
</defs>
</svg>
