<svg width="21" height="18" viewBox="0 0 21 18" fill="none" xmlns="http://www.w3.org/2000/svg">
<path fill-rule="evenodd" clip-rule="evenodd" d="M18.8943 6.63364L13.6071 5.97703L11.2454 1.88549C11.1057 1.68277 10.851 1.55832 10.5757 1.55832C10.3004 1.55832 10.0456 1.68277 9.9059 1.88549L7.53972 5.97703L2.25257 6.63364C1.9713 6.66834 1.73747 6.83648 1.64936 7.06737C1.56126 7.29827 1.63416 7.55189 1.83742 7.72162L5.66409 10.9083L4.76137 15.4089C4.71337 15.6483 4.82856 15.8902 5.05849 16.0329C5.28842 16.1757 5.59324 16.1945 5.84478 16.0814L10.5734 13.9572L15.3021 16.0814C15.5536 16.1945 15.8584 16.1757 16.0884 16.0329C16.3183 15.8902 16.4335 15.6483 16.3855 15.4089L15.4828 10.9083L19.3094 7.72162C19.5126 7.55206 19.5857 7.29868 19.4979 7.06785C19.4102 6.83703 19.1768 6.66874 18.8958 6.63364H18.8943Z" fill="#FA7268"/>
</svg>
