<svg width="30" height="16" viewBox="0 0 30 16" fill="none" xmlns="http://www.w3.org/2000/svg">
<path fill-rule="evenodd" clip-rule="evenodd" d="M17.128 10.376C17.4035 10.2674 17.7692 10.066 17.7692 9.56669C17.7692 9.21202 17.3405 8.99936 16.4249 8.77936V10.552C16.6921 10.506 16.938 10.4514 17.128 10.376Z" fill="#7F8592"/>
<path fill-rule="evenodd" clip-rule="evenodd" d="M15.2374 0C7.3793 0 0.986694 3.58867 0.986694 8C0.986694 12.4113 7.3793 16 15.2374 16C23.0954 16 29.488 12.4113 29.488 8C29.488 3.58867 23.0954 0 15.2374 0ZM20.1443 9.56733C20.1443 10.6 19.2465 11.1707 18.4924 11.468C17.9022 11.7007 17.1909 11.8393 16.4249 11.9193V13.3333H14.0498V11.9753C12.6829 11.9173 11.2887 11.7347 10.0834 11.4907L8.96707 11.2647L9.77342 10.0107L10.8909 10.2373C11.9835 10.4587 13.0689 10.5907 14.0498 10.6413V8.302C12.1628 7.922 10.0691 7.32867 10.0691 5.82067C10.0691 5.06867 10.6902 4.448 11.8196 4.07333C12.4632 3.86 13.2375 3.74467 14.0498 3.69067V2.66667H16.4249V3.70067C17.8227 3.792 19.1028 4.00733 19.8166 4.22867L20.8581 4.54933L19.7144 5.718L18.6741 5.39667C18.1599 5.238 17.3203 5.10867 16.4249 5.03867V7.348C18.2395 7.708 20.1443 8.22933 20.1443 9.56733Z" fill="#7F8592"/>
<path fill-rule="evenodd" clip-rule="evenodd" d="M13.0297 5.22202C12.62 5.35802 12.4442 5.53669 12.4442 5.82069C12.4442 6.32535 12.9537 6.60069 14.0498 6.86802V5.03735C13.6603 5.07535 13.3016 5.13135 13.0297 5.22202Z" fill="#7F8592"/>
</svg>
