<svg width="31" height="21" viewBox="0 0 31 21" fill="none" xmlns="http://www.w3.org/2000/svg">
<path fill-rule="evenodd" clip-rule="evenodd" d="M21.4756 0.833313C26.3389 0.833313 30.3128 3.45641 30.3128 6.66665C30.3128 8.01895 29.4783 9.52124 27.9577 11.1637C26.7165 12.5044 25.041 13.912 23.0374 15.3547C21.4904 16.4688 19.8363 17.5408 18.1824 18.5333C17.6034 18.8807 17.0653 19.1937 16.5816 19.4673C16.2893 19.6327 16.0785 19.7491 15.9627 19.8116L15.1633 20.2434L14.3639 19.8116C14.2481 19.7491 14.0373 19.6327 13.745 19.4673C13.2613 19.1937 12.7232 18.8807 12.1442 18.5333C10.4903 17.5408 8.83623 16.4688 7.28915 15.3547C5.28556 13.912 3.61013 12.5044 2.36887 11.1637C0.848285 9.52124 0.0137939 8.01895 0.0137939 6.66665C0.0137939 3.45641 3.98765 0.833313 8.851 0.833313C11.2709 0.833313 13.5069 1.49201 15.1633 2.60906C16.8197 1.49201 19.0557 0.833313 21.4756 0.833313Z" fill="#1B2749"/>
</svg>
