<svg width="32" height="21" viewBox="0 0 32 21" fill="none" xmlns="http://www.w3.org/2000/svg">
<path fill-rule="evenodd" clip-rule="evenodd" d="M22.1252 0.833313C27.0312 0.833313 31.0399 3.45641 31.0399 6.66665C31.0399 8.01895 30.1981 9.52124 28.6641 11.1637C27.412 12.5044 25.7219 13.912 23.7007 15.3547C22.1401 16.4688 20.4715 17.5408 18.803 18.5333C18.219 18.8807 17.6762 19.1937 17.1882 19.4673C16.8933 19.6327 16.6807 19.7491 16.5639 19.8116L15.7575 20.2434L14.951 19.8116C14.8343 19.7491 14.6216 19.6327 14.3267 19.4673C13.8388 19.1937 13.296 18.8807 12.7119 18.5333C11.0435 17.5408 9.37492 16.4688 7.81427 15.3547C5.79311 13.912 4.10298 12.5044 2.85083 11.1637C1.31691 9.52124 0.475098 8.01895 0.475098 6.66665C0.475098 3.45641 4.48382 0.833313 9.38983 0.833313C11.831 0.833313 14.0866 1.49201 15.7575 2.60906C17.4284 1.49201 19.684 0.833313 22.1252 0.833313Z" fill="#1B2749"/>
</svg>
