<svg width="28" height="17" viewBox="0 0 28 17" fill="none" xmlns="http://www.w3.org/2000/svg">
<path fill-rule="evenodd" clip-rule="evenodd" d="M15.8381 11.1376C16.0955 11.0249 16.4372 10.8162 16.4372 10.2984C16.4372 9.93064 16.0367 9.71012 15.1814 9.48199V11.3201C15.431 11.2724 15.6606 11.2157 15.8381 11.1376Z" fill="#7F8592"/>
<path fill-rule="evenodd" clip-rule="evenodd" d="M14.072 0.378479C6.73155 0.378479 0.76001 4.09965 0.76001 8.67386C0.76001 13.2481 6.73155 16.9692 14.072 16.9692C21.4125 16.9692 27.384 13.2481 27.384 8.67386C27.384 4.09965 21.4125 0.378479 14.072 0.378479ZM18.6558 10.2991C18.6558 11.3699 17.8171 11.9616 17.1127 12.2699C16.5613 12.5112 15.8969 12.655 15.1813 12.7379V14.2041H12.9627V12.796C11.6858 12.7358 10.3835 12.5464 9.2575 12.2934L8.21473 12.0591L8.96796 10.7588L10.0118 10.9938C11.0324 11.2233 12.0464 11.3602 12.9627 11.4127V8.98701C11.1999 8.59298 9.24419 7.97774 9.24419 6.41406C9.24419 5.6343 9.82437 4.99071 10.8793 4.60221C11.4806 4.381 12.2039 4.26141 12.9627 4.20542V3.14361H15.1813V4.21579C16.487 4.31049 17.6829 4.53378 18.3496 4.76328L19.3225 5.09579L18.2542 6.30761L17.2824 5.97441C16.8021 5.80988 16.0178 5.67577 15.1813 5.60319V7.99779C16.8764 8.37108 18.6558 8.91166 18.6558 10.2991Z" fill="#7F8592"/>
<path fill-rule="evenodd" clip-rule="evenodd" d="M12.0098 5.79329C11.6271 5.93431 11.4629 6.11958 11.4629 6.41406C11.4629 6.93736 11.9388 7.22286 12.9627 7.50007V5.60181C12.5988 5.64121 12.2638 5.69928 12.0098 5.79329Z" fill="#7F8592"/>
</svg>
