<svg width="26" height="16" viewBox="0 0 26 16" fill="none" xmlns="http://www.w3.org/2000/svg">
<path fill-rule="evenodd" clip-rule="evenodd" d="M23.9985 5.92268L17.0032 5.28945L13.8785 1.3436C13.6936 1.14809 13.3566 1.02808 12.9923 1.02808C12.6281 1.02808 12.291 1.14809 12.1062 1.3436L8.97552 5.28945L1.98022 5.92268C1.60808 5.95614 1.2987 6.11829 1.18213 6.34096C1.06556 6.56364 1.16201 6.80823 1.43095 6.97191L6.49392 10.0451L5.29955 14.3854C5.23605 14.6163 5.38845 14.8496 5.69267 14.9873C5.99689 15.1249 6.40018 15.1431 6.73299 15.0341L12.9893 12.9854L19.2457 15.0341C19.5785 15.1431 19.9818 15.1249 20.286 14.9873C20.5902 14.8496 20.7426 14.6163 20.6791 14.3854L19.4848 10.0451L24.5477 6.97191C24.8166 6.80839 24.9133 6.56403 24.7971 6.34143C24.681 6.11882 24.3722 5.95652 24.0005 5.92268H23.9985Z" fill="#FA7268"/>
</svg>
