<svg width="30" height="17" viewBox="0 0 30 17" fill="none" xmlns="http://www.w3.org/2000/svg">
<path fill-rule="evenodd" clip-rule="evenodd" d="M16.7003 11.1376C16.9804 11.0249 17.3522 10.8161 17.3522 10.2984C17.3522 9.93061 16.9164 9.71009 15.9857 9.48196V11.3201C16.2573 11.2724 16.5072 11.2157 16.7003 11.1376Z" fill="#7F8592"/>
<path fill-rule="evenodd" clip-rule="evenodd" d="M14.7787 0.378479C6.79121 0.378479 0.293335 4.09965 0.293335 8.67386C0.293335 13.2481 6.79121 16.9692 14.7787 16.9692C22.7661 16.9692 29.264 13.2481 29.264 8.67386C29.264 4.09965 22.7661 0.378479 14.7787 0.378479ZM19.7664 10.2991C19.7664 11.3699 18.8539 11.9616 18.0874 12.2699C17.4874 12.5112 16.7644 12.655 15.9858 12.7379V14.2041H13.5716V12.796C12.1822 12.7358 10.765 12.5464 9.5398 12.2934L8.40512 12.0591L9.22475 10.7588L10.3606 10.9938C11.4712 11.2233 12.5745 11.3602 13.5716 11.4127V8.98701C11.6535 8.59298 9.52532 7.97774 9.52532 6.41406C9.52532 5.6343 10.1566 4.99071 11.3046 4.60221C11.9589 4.381 12.7459 4.26141 13.5716 4.20542V3.14361H15.9858V4.21579C17.4065 4.31049 18.7078 4.53378 19.4333 4.76328L20.4919 5.09579L19.3295 6.30761L18.272 5.97441C17.7494 5.80988 16.8959 5.67577 15.9858 5.60319V7.99779C17.8302 8.37108 19.7664 8.91166 19.7664 10.2991Z" fill="#7F8592"/>
<path fill-rule="evenodd" clip-rule="evenodd" d="M12.5347 5.79329C12.1182 5.93431 11.9396 6.11958 11.9396 6.41406C11.9396 6.93736 12.4574 7.22286 13.5716 7.50007V5.60181C13.1757 5.64121 12.8111 5.69928 12.5347 5.79329Z" fill="#7F8592"/>
</svg>
