<svg width="30" height="16" viewBox="0 0 30 16" fill="none" xmlns="http://www.w3.org/2000/svg">
<path fill-rule="evenodd" clip-rule="evenodd" d="M27.4535 5.92268L19.6913 5.28945L16.224 1.3436C16.0189 1.14809 15.6449 1.02808 15.2407 1.02808C14.8365 1.02808 14.4625 1.14809 14.2574 1.3436L10.7835 5.28945L3.0213 5.92268C2.60836 5.95614 2.26506 6.11829 2.13571 6.34096C2.00636 6.56364 2.11339 6.80823 2.41181 6.97191L8.02986 10.0451L6.70455 14.3854C6.63408 14.6163 6.80319 14.8496 7.14076 14.9873C7.47833 15.1249 7.92584 15.1431 8.29514 15.0341L15.2374 12.9854L22.1797 15.0341C22.549 15.1431 22.9965 15.1249 23.3341 14.9873C23.6716 14.8496 23.8407 14.6163 23.7703 14.3854L22.445 10.0451L28.063 6.97191C28.3613 6.80839 28.4686 6.56403 28.3398 6.34143C28.2109 6.11882 27.8683 5.95652 27.4557 5.92268H27.4535Z" fill="#FA7268"/>
</svg>
