<svg width="18" height="16" viewBox="0 0 18 16" fill="none" xmlns="http://www.w3.org/2000/svg">
<path fill-rule="evenodd" clip-rule="evenodd" d="M9.99874 10.376C10.1637 10.2673 10.3827 10.066 10.3827 9.56666C10.3827 9.21199 10.126 8.99933 9.57776 8.77933V10.552C9.73776 10.506 9.88496 10.4513 9.99874 10.376Z" fill="#7F8592"/>
<path fill-rule="evenodd" clip-rule="evenodd" d="M8.86671 0C4.16128 0 0.333374 3.58867 0.333374 8C0.333374 12.4113 4.16128 16 8.86671 16C13.5721 16 17.4 12.4113 17.4 8C17.4 3.58867 13.5721 0 8.86671 0ZM11.805 9.56733C11.805 10.6 11.2674 11.1707 10.8159 11.468C10.4624 11.7007 10.0365 11.8393 9.57782 11.9193V13.3333H8.1556V11.9753C7.33711 11.9173 6.50226 11.7347 5.78048 11.4907L5.11204 11.2647L5.59488 10.0107L6.26404 10.2373C6.91826 10.4587 7.56822 10.5907 8.1556 10.6413V8.302C7.02564 7.922 5.77195 7.32867 5.77195 5.82067C5.77195 5.06867 6.14386 4.448 6.82013 4.07333C7.20555 3.86 7.6692 3.74467 8.1556 3.69067V2.66667H9.57782V3.70067C10.4148 3.792 11.1814 4.00733 11.6088 4.22867L12.2324 4.54933L11.5476 5.718L10.9247 5.39667C10.6168 5.238 10.114 5.10867 9.57782 5.03867V7.348C10.6644 7.708 11.805 8.22933 11.805 9.56733Z" fill="#7F8592"/>
<path fill-rule="evenodd" clip-rule="evenodd" d="M7.54479 5.22199C7.29946 5.35799 7.19421 5.53666 7.19421 5.82066C7.19421 6.32532 7.49928 6.60066 8.15564 6.86799V5.03732C7.92239 5.07532 7.70764 5.13132 7.54479 5.22199Z" fill="#7F8592"/>
</svg>
