<svg width="28" height="17" viewBox="0 0 28 17" fill="none" xmlns="http://www.w3.org/2000/svg">
<path fill-rule="evenodd" clip-rule="evenodd" d="M15.8381 10.9684C16.0955 10.8557 16.4372 10.6469 16.4372 10.1291C16.4372 9.76139 16.0367 9.54087 15.1814 9.31274V11.1509C15.431 11.1032 15.6606 11.0465 15.8381 10.9684Z" fill="#7F8592"/>
<path fill-rule="evenodd" clip-rule="evenodd" d="M14.072 0.209229C6.73155 0.209229 0.76001 3.9304 0.76001 8.50461C0.76001 13.0788 6.73155 16.8 14.072 16.8C21.4125 16.8 27.384 13.0788 27.384 8.50461C27.384 3.9304 21.4125 0.209229 14.072 0.209229ZM18.6558 10.1298C18.6558 11.2006 17.8171 11.7923 17.1127 12.1007C16.5613 12.3419 15.8969 12.4857 15.1813 12.5687V14.0349H12.9627V12.6267C11.6858 12.5666 10.3835 12.3772 9.2575 12.1242L8.21473 11.8898L8.96796 10.5895L10.0118 10.8246C11.0324 11.0541 12.0464 11.1909 12.9627 11.2435V8.81776C11.1999 8.42373 9.24419 7.80849 9.24419 6.24481C9.24419 5.46505 9.82437 4.82146 10.8793 4.43296C11.4806 4.21175 12.2039 4.09216 12.9627 4.03617V2.97436H15.1813V4.04654C16.487 4.14124 17.6829 4.36452 18.3496 4.59403L19.3225 4.92654L18.2542 6.13835L17.2824 5.80516C16.8021 5.64063 16.0178 5.50652 15.1813 5.43394V7.82854C16.8764 8.20183 18.6558 8.74241 18.6558 10.1298Z" fill="#7F8592"/>
<path fill-rule="evenodd" clip-rule="evenodd" d="M12.0098 5.62404C11.6271 5.76506 11.4629 5.95033 11.4629 6.24481C11.4629 6.76811 11.9388 7.05361 12.9627 7.33082V5.43256C12.5988 5.47196 12.2638 5.53003 12.0098 5.62404Z" fill="#7F8592"/>
</svg>
