<svg width="30" height="17" viewBox="0 0 30 17" fill="none" xmlns="http://www.w3.org/2000/svg">
<path fill-rule="evenodd" clip-rule="evenodd" d="M27.1959 6.46439L19.3059 5.80778L15.7815 1.71624C15.573 1.51352 15.1928 1.38907 14.782 1.38907C14.3711 1.38907 13.991 1.51352 13.7825 1.71624L10.2514 5.80778L2.36136 6.46439C1.94162 6.49909 1.59267 6.66723 1.46119 6.89812C1.32971 7.12902 1.4385 7.38264 1.74183 7.55237L7.45239 10.7391L6.10526 15.2396C6.03364 15.479 6.20552 15.7209 6.54865 15.8637C6.89179 16.0064 7.34666 16.0252 7.72204 15.9122L14.7786 13.7879L21.8352 15.9122C22.2106 16.0252 22.6655 16.0064 23.0086 15.8637C23.3517 15.7209 23.5236 15.479 23.452 15.2396L22.1049 10.7391L27.8154 7.55237C28.1187 7.38281 28.2277 7.12943 28.0967 6.8986C27.9658 6.66778 27.6175 6.49949 27.1981 6.46439H27.1959Z" fill="#FA7268"/>
</svg>
