<svg width="16" height="16" viewBox="0 0 16 16" fill="none" xmlns="http://www.w3.org/2000/svg">
<path fill-rule="evenodd" clip-rule="evenodd" d="M14.8578 5.92266L10.5003 5.28943L8.5538 1.34359C8.43866 1.14808 8.2287 1.02806 8.0018 1.02806C7.77491 1.02806 7.56495 1.14808 7.4498 1.34359L5.49965 5.28943L1.14211 5.92266C0.9103 5.95612 0.717578 6.11827 0.644964 6.34095C0.57235 6.56362 0.632434 6.80821 0.799958 6.97189L3.9538 10.0451L3.2098 14.3854C3.17025 14.6163 3.26518 14.8496 3.45468 14.9872C3.64419 15.1249 3.89541 15.143 4.10273 15.034L7.99996 12.9854L11.8972 15.034C12.1045 15.143 12.3557 15.1249 12.5452 14.9872C12.7347 14.8496 12.8297 14.6163 12.7901 14.3854L12.0461 10.0451L15.2 6.97189C15.3674 6.80838 15.4276 6.56402 15.3553 6.34141C15.283 6.11881 15.0906 5.95651 14.859 5.92266H14.8578Z" fill="#1B2749"/>
</svg>
