<svg width="25" height="16" viewBox="0 0 25 16" fill="none" xmlns="http://www.w3.org/2000/svg">
<path fill-rule="evenodd" clip-rule="evenodd" d="M23.1117 5.92268L16.4524 5.28945L13.4777 1.3436C13.3017 1.14809 12.9809 1.02808 12.6341 1.02808C12.2874 1.02808 11.9665 1.14809 11.7905 1.3436L8.81022 5.28945L2.15085 5.92268C1.79659 5.95614 1.50207 6.11829 1.39109 6.34096C1.28012 6.56364 1.37194 6.80823 1.62796 6.97191L6.44779 10.0451L5.31078 14.3854C5.25033 14.6163 5.39541 14.8496 5.68502 14.9873C5.97463 15.1249 6.35855 15.1431 6.67538 15.0341L12.6313 12.9854L18.5872 15.0341C18.904 15.1431 19.2879 15.1249 19.5776 14.9873C19.8672 14.8496 20.0122 14.6163 19.9518 14.3854L18.8148 10.0451L23.6346 6.97191C23.8905 6.80839 23.9826 6.56403 23.872 6.34143C23.7615 6.11882 23.4675 5.95652 23.1136 5.92268H23.1117Z" fill="#FA7268"/>
</svg>
