<svg width="20" height="21" viewBox="0 0 20 21" fill="none" xmlns="http://www.w3.org/2000/svg">
<path fill-rule="evenodd" clip-rule="evenodd" d="M14.1667 0.833313C17.3769 0.833313 20 3.45641 20 6.66665C20 8.01895 19.4492 9.52124 18.4454 11.1637C17.6261 12.5044 16.5202 13.912 15.1976 15.3547C14.1764 16.4688 13.0846 17.5408 11.9929 18.5333C11.6107 18.8807 11.2555 19.1937 10.9362 19.4673C10.7432 19.6327 10.6041 19.7491 10.5277 19.8116L10 20.2434L9.4723 19.8116C9.3959 19.7491 9.25676 19.6327 9.06379 19.4673C8.74451 19.1937 8.38933 18.8807 8.00715 18.5333C6.91541 17.5408 5.82358 16.4688 4.80237 15.3547C3.47983 13.912 2.3739 12.5044 1.55456 11.1637C0.550837 9.52124 0 8.01895 0 6.66665C0 3.45641 2.6231 0.833313 5.83333 0.833313C7.4307 0.833313 8.90663 1.49201 10 2.60906C11.0934 1.49201 12.5693 0.833313 14.1667 0.833313Z" fill="#1B2749"/>
</svg>
