<svg width="21" height="17" viewBox="0 0 21 17" fill="none" xmlns="http://www.w3.org/2000/svg">
<path fill-rule="evenodd" clip-rule="evenodd" d="M11.8611 11.1376C12.0487 11.0249 12.2979 10.8161 12.2979 10.2984C12.2979 9.93061 12.0059 9.71009 11.3822 9.48196V11.3201C11.5642 11.2724 11.7316 11.2157 11.8611 11.1376Z" fill="#7F8592"/>
<path fill-rule="evenodd" clip-rule="evenodd" d="M10.5734 0.378479C5.22095 0.378479 0.866699 4.09965 0.866699 8.67386C0.866699 13.2481 5.22095 16.9692 10.5734 16.9692C15.9258 16.9692 20.28 13.2481 20.28 8.67386C20.28 4.09965 15.9258 0.378479 10.5734 0.378479ZM13.9157 10.2991C13.9157 11.3699 13.3042 11.9616 12.7905 12.2699C12.3885 12.5112 11.904 12.655 11.3823 12.7379V14.2041H9.76447V12.796C8.83344 12.7358 7.88381 12.5464 7.06279 12.2934L6.30243 12.0591L6.85167 10.7588L7.61283 10.9938C8.35701 11.2233 9.09633 11.3602 9.76447 11.4127V8.98701C8.47915 8.59298 7.05308 7.97774 7.05308 6.41406C7.05308 5.6343 7.47613 4.99071 8.24538 4.60221C8.6838 4.381 9.21119 4.26141 9.76447 4.20542V3.14361H11.3823V4.21579C12.3343 4.31049 13.2063 4.53378 13.6924 4.76328L14.4018 5.09579L13.6229 6.30761L12.9143 5.97441C12.564 5.80988 11.9922 5.67577 11.3823 5.60319V7.99779C12.6182 8.37108 13.9157 8.91166 13.9157 10.2991Z" fill="#7F8592"/>
<path fill-rule="evenodd" clip-rule="evenodd" d="M9.06968 5.79329C8.79061 5.93431 8.6709 6.11958 8.6709 6.41406C8.6709 6.93736 9.01791 7.22286 9.76452 7.50007V5.60181C9.4992 5.64121 9.25492 5.69928 9.06968 5.79329Z" fill="#7F8592"/>
</svg>
