<svg width="25" height="16" viewBox="0 0 25 16" fill="none" xmlns="http://www.w3.org/2000/svg">
<path fill-rule="evenodd" clip-rule="evenodd" d="M14.0303 10.376C14.2646 10.2673 14.5757 10.066 14.5757 9.56663C14.5757 9.21196 14.2111 8.9993 13.4324 8.7793V10.552C13.6596 10.506 13.8687 10.4513 14.0303 10.376Z" fill="#7F8592"/>
<path fill-rule="evenodd" clip-rule="evenodd" d="M12.4225 0C5.73951 0 0.302856 3.58867 0.302856 8C0.302856 12.4113 5.73951 16 12.4225 16C19.1054 16 24.5421 12.4113 24.5421 8C24.5421 3.58867 19.1054 0 12.4225 0ZM16.5956 9.56733C16.5956 10.6 15.8321 11.1707 15.1908 11.468C14.6888 11.7007 14.0839 11.8393 13.4324 11.9193V13.3333H11.4125V11.9753C10.25 11.9173 9.06432 11.7347 8.0392 11.4907L7.08983 11.2647L7.7756 10.0107L8.72598 10.2373C9.65515 10.4587 10.5783 10.5907 11.4125 10.6413V8.302C9.80765 7.922 8.02708 7.32867 8.02708 5.82067C8.02708 5.06867 8.55529 4.448 9.51577 4.07333C10.0632 3.86 10.7217 3.74467 11.4125 3.69067V2.66667H13.4324V3.70067C14.6212 3.792 15.7099 4.00733 16.3169 4.22867L17.2026 4.54933L16.23 5.718L15.3453 5.39667C14.908 5.238 14.1939 5.10867 13.4324 5.03867V7.348C14.9757 7.708 16.5956 8.22933 16.5956 9.56733Z" fill="#7F8592"/>
<path fill-rule="evenodd" clip-rule="evenodd" d="M10.5449 5.22202C10.1965 5.35802 10.047 5.53669 10.047 5.82069C10.047 6.32535 10.4803 6.60069 11.4125 6.86802V5.03735C11.0812 5.07535 10.7762 5.13135 10.5449 5.22202Z" fill="#7F8592"/>
</svg>
