<svg width="30" height="18" viewBox="0 0 30 18" fill="none" xmlns="http://www.w3.org/2000/svg">
<path fill-rule="evenodd" clip-rule="evenodd" d="M27.1959 6.63364L19.3059 5.97703L15.7815 1.88549C15.573 1.68277 15.1928 1.55832 14.782 1.55832C14.3711 1.55832 13.991 1.68277 13.7825 1.88549L10.2514 5.97703L2.36136 6.63364C1.94162 6.66834 1.59267 6.83648 1.46119 7.06737C1.32971 7.29827 1.4385 7.55189 1.74183 7.72162L7.45239 10.9083L6.10526 15.4089C6.03364 15.6483 6.20552 15.8902 6.54865 16.0329C6.89179 16.1757 7.34666 16.1945 7.72204 16.0814L14.7786 13.9572L21.8352 16.0814C22.2106 16.1945 22.6655 16.1757 23.0086 16.0329C23.3517 15.8902 23.5236 15.6483 23.452 15.4089L22.1049 10.9083L27.8154 7.72162C28.1187 7.55206 28.2277 7.29868 28.0967 7.06785C27.9658 6.83703 27.6175 6.66874 27.1981 6.63364H27.1959Z" fill="#FA7268"/>
</svg>
