<svg width="21" height="18" viewBox="0 0 21 18" fill="none" xmlns="http://www.w3.org/2000/svg">
<path fill-rule="evenodd" clip-rule="evenodd" d="M18.8943 6.63367L13.6071 5.97706L11.2454 1.88552C11.1057 1.6828 10.851 1.55835 10.5757 1.55835C10.3004 1.55835 10.0456 1.6828 9.9059 1.88552L7.53972 5.97706L2.25257 6.63367C1.9713 6.66837 1.73747 6.83651 1.64936 7.0674C1.56126 7.2983 1.63416 7.55192 1.83742 7.72165L5.66409 10.9084L4.76137 15.4089C4.71337 15.6483 4.82856 15.8902 5.05849 16.033C5.28842 16.1757 5.59324 16.1945 5.84478 16.0815L10.5734 13.9572L15.3021 16.0815C15.5536 16.1945 15.8584 16.1757 16.0884 16.033C16.3183 15.8902 16.4335 15.6483 16.3855 15.4089L15.4828 10.9084L19.3094 7.72165C19.5126 7.55209 19.5857 7.29871 19.4979 7.06789C19.4102 6.83706 19.1768 6.66877 18.8958 6.63367H18.8943Z" fill="#FA7268"/>
</svg>
